<svg width="349" height="433" viewBox="0 0 349 433" fill="none" xmlns="http://www.w3.org/2000/svg">
<g style="mix-blend-mode:multiply" opacity="0.11">
<path d="M326.81 357.921H48.1235C39.3085 357.921 32.0962 363.559 32.0962 370.45C32.0962 375.222 35.5557 379.391 40.6096 381.505H16.0689C7.25388 381.505 0.0415955 387.144 0.0415955 394.035C0.0415955 400.926 7.25388 406.564 16.0689 406.564H24.62C22.2318 408.753 20.7828 411.586 20.7828 414.671V419.683C20.7828 426.574 27.9951 432.212 36.8101 432.212H311.348C320.163 432.212 327.375 426.574 327.375 419.683V414.671C327.375 407.78 320.163 402.142 311.348 402.142L292.681 402.42C294.103 402.42 296.412 401.543 297.961 399.78C300.677 396.689 300.797 391.984 299.469 388.09C298.608 385.565 297.229 383.563 293.812 382.81L326.81 382.979C335.625 382.979 342.837 377.341 342.837 370.45C342.837 363.559 335.625 357.921 326.81 357.921Z" fill="#606060"/>
</g>
<path d="M202.399 378.828L211.653 384.76L214.865 389.475C214.865 389.475 211.573 391.124 209.724 391.584C207.875 392.044 193.21 390.477 193.21 390.477L192.813 381.89L202.399 378.828Z" fill="#273140"/>
<path d="M156.156 385.305L160.729 390.433C160.729 390.433 164.45 397.384 162.584 397.277C160.719 397.17 150.58 397.714 149.898 396.552C149.215 395.39 143.832 391.339 143.128 390.55C142.424 389.761 143.143 383.237 143.143 383.237L156.156 385.305Z" fill="#273140"/>
<path d="M182.307 248.893L170.815 318.759L156.156 385.305L143.096 384.559L145.612 314.324C145.612 314.324 136.199 249.771 136.167 230.677L182.307 248.893Z" fill="#2E4661"/>
<path d="M211.137 252.337L205.88 381.286L192.44 381.908L185.292 316.389L174.885 258.571L202.662 222.797L211.137 252.337Z" fill="#2E4661"/>
<path d="M204.091 184.444C197.044 150.15 205.992 133.616 190.568 124.085C190.568 124.085 165.44 117.181 149.434 128.671C149.212 128.83 148.992 128.991 148.773 129.156L142.956 141.247L138.541 195.492C138.541 195.492 126.193 266.708 132.747 267.283C140.174 267.935 174.264 252.047 180.738 252.423C187.212 252.798 207.014 256.344 225.707 249.982C241.732 244.527 211.139 218.738 204.091 184.444Z" fill="#677B91"/>
<path d="M172.843 123.028L167.955 123.211L167.457 128.131L185.414 178.348L189.438 156.587L185.043 124.983L172.843 123.028Z" fill="white"/>
<path d="M188.701 160.57C188.664 158.585 188.571 156.808 188.407 155.365C187.278 145.397 180.163 132.39 180.163 132.39C179.877 130.629 179.682 128.854 179.579 127.073L173.665 126.114L174.045 132.288L176.597 134.957C176.597 134.957 182.8 158.684 182.918 168.199C182.93 169.197 182.915 170.225 182.881 171.263L185.414 178.348L188.701 160.57Z" fill="#2E4661"/>
<path d="M187.603 197.647L180.682 252.324L195.274 254.383L205.364 253.599L192.601 206.163L187.603 197.647Z" fill="white"/>
<path d="M179.466 125.205C176.116 125.343 172.767 125.481 169.417 125.619C169.012 122.974 168.818 120.302 168.839 117.627C165.949 117.046 162.562 116.043 161.677 113.231C161.448 112.329 161.373 111.396 161.453 110.469C161.573 106.632 160.496 102.744 161.812 98.9597C162.248 97.7059 161.903 96.2659 162.452 95.0569C163.413 92.9353 165.692 91.7454 167.909 91.0307C173.567 89.207 180.064 89.5731 185.095 92.738C186.435 93.5804 187.688 94.6432 188.423 96.0439C189.557 98.2036 189.302 100.798 189.018 103.221C188.755 105.457 188.493 107.693 188.231 109.929C187.929 112.501 187.386 115.453 185.127 116.72C183.928 117.392 182.409 117.459 181.364 118.352C179.519 119.925 180.216 122.899 179.466 125.205Z" fill="#E7CAAD"/>
<path d="M193.867 75.359C193.081 75.3086 192.304 75.1643 191.552 74.9289C189.045 74.0814 187.171 72.1145 184.52 71.3443C179.158 69.7866 172.669 70.6285 167.75 73.2062C163.042 75.6732 156.447 77.0277 152.311 80.1568C150.613 81.5173 149.273 83.2717 148.407 85.2676C145.248 92.0725 146.437 100.674 151.324 106.367C152.438 107.63 153.661 108.793 154.978 109.842C157.674 112.048 160.913 114.787 164.262 115.274C163.933 112.385 160.034 103.68 161.912 101.01C164.402 97.4691 169.846 97.0929 173.773 97.1276C178.453 97.169 182.148 95.3545 186.798 95.194C189.167 95.1122 191.874 95.3603 193.553 93.6885C195.495 91.7559 199.442 85.8055 200.283 83.2698C201.019 81.0497 200.183 78.4631 198.444 76.8989C196.943 75.5487 195.442 75.5041 193.867 75.359Z" fill="#3A3029"/>
<path d="M225.373 150.889L194.933 123.31L187.613 129.482L212.809 171.562L224.182 172.653C224.182 172.653 227.459 160.939 228.134 159.697L225.373 150.889Z" fill="#6D8299"/>
<path d="M81.5947 355.418C75.8581 353.612 70.2884 354.084 65.0421 356.818C59.7952 359.553 56.2193 363.849 54.4139 369.586C52.6065 375.329 53.0784 380.899 55.8146 386.139C58.5495 391.385 62.8449 394.961 68.5821 396.767C70.76 397.467 73.0323 397.829 75.3198 397.84C78.7442 397.826 82.1135 396.977 85.1355 395.366C90.3822 392.631 93.9578 388.335 95.7632 382.598C97.5667 376.867 97.0956 371.299 94.3613 366.044C91.6214 360.796 87.3259 357.221 81.5947 355.418Z" fill="#1A5F7A"/>
<path d="M94.3613 366.044C91.6214 360.797 87.326 357.221 81.5947 355.418C79.8119 354.849 77.966 354.503 76.0985 354.385C79.7175 356.404 82.6526 359.457 84.5289 363.152C87.2632 368.407 87.7343 373.976 85.9308 379.707C84.1254 385.444 80.5498 389.739 75.3032 392.474C72.2811 394.085 68.9119 394.934 65.4875 394.948C65.0737 394.948 64.6583 394.932 64.2421 394.907C65.6217 395.673 67.0759 396.296 68.5821 396.767C70.76 397.467 73.0323 397.829 75.3199 397.84C78.7443 397.826 82.1135 396.977 85.1356 395.366C90.3822 392.631 93.9578 388.335 95.7632 382.599C97.5667 376.867 97.0956 371.299 94.3613 366.044Z" fill="#193B6E"/>
<path d="M202.189 214.054C193.236 198.419 178.187 187.184 157.459 180.661C136.737 174.14 117.87 174.696 101.382 182.314C87.0494 188.937 76.5444 200.172 70.1593 215.709C69.6258 217.007 69.3676 218.403 69.4014 219.806C69.4351 221.21 69.7599 222.591 70.3552 223.863C70.9506 225.134 71.8035 226.268 72.8599 227.193C73.9163 228.118 75.1533 228.813 76.4924 229.235L88.8343 233.119C91.214 233.867 93.7861 233.711 96.0582 232.681C98.3302 231.651 100.143 229.82 101.149 227.537C104.862 219.145 110.128 213.451 117.246 210.13C125.864 206.111 136.261 205.971 148.148 209.711C160 213.441 168.328 219.624 172.902 228.087C177.454 236.525 177.908 246.694 174.251 258.314C169.211 274.33 161.228 283.676 150.524 286.092C139.253 288.635 123.421 286.628 103.44 280.12L98.099 278.439C95.5349 277.635 92.7565 277.881 90.3736 279.124C87.9907 280.366 86.1978 282.502 85.3883 285.065L70.7504 331.579C69.9437 334.143 70.1886 336.922 71.4311 339.306C72.6736 341.69 74.8121 343.482 77.3761 344.289L89.895 348.229C91.1646 348.629 92.5006 348.775 93.8266 348.658C95.1526 348.542 96.4427 348.165 97.6231 347.55C98.8035 346.935 99.8511 346.093 100.706 345.072C101.561 344.052 102.206 342.873 102.606 341.604L112.085 311.481C112.143 311.301 112.267 311.15 112.433 311.06C112.598 310.97 112.792 310.948 112.974 310.997C136.499 317.714 156.05 318.174 171.085 312.363C187.075 306.183 198.648 292.041 205.48 270.33C212.286 248.704 211.178 229.77 202.189 214.054Z" fill="#0F1F64"/>
<path d="M202.189 214.054C193.236 198.419 178.187 187.183 157.459 180.66C144.629 176.623 132.51 175.302 121.226 176.687C127.44 177.425 133.569 178.755 139.53 180.66C160.257 187.183 175.307 198.419 184.259 214.054C193.249 229.77 194.356 248.704 187.551 270.329C180.718 292.04 169.146 306.182 153.155 312.363C148.292 314.204 143.21 315.407 138.037 315.94C150.702 317.155 161.763 315.966 171.085 312.363C187.075 306.182 198.648 292.04 205.48 270.329C212.286 248.704 211.178 229.77 202.189 214.054Z" fill="#193B6E"/>
<path d="M154.769 125.619L140.344 130.064L105.833 188.891L108.186 200.264L152.894 222.617L159.169 210.46L130.932 188.891L148.188 165.36L154.855 127.712L154.769 125.619Z" fill="#6D8299"/>
<path d="M194.336 123.813L187.013 115.946L179.954 117.907L177.993 124.966L184.268 126.143L190.162 127.333L194.336 123.813Z" fill="#D6BBA0"/>
<path d="M158.55 211.659L165.594 213.11L164.463 217.258L170.564 224.397L162.2 227.44L154.008 220.458L158.55 211.659Z" fill="#E7CAAD"/>
<path d="M228.561 61.6518C226.274 64.3164 224.993 67.6979 224.941 71.2087C224.888 74.7196 226.067 78.1379 228.273 80.8699C230.478 83.6019 233.571 85.4749 237.014 86.1636C240.457 86.8522 244.033 86.3129 247.12 84.6395C248.378 88.6328 250.759 92.1792 253.98 94.8545C257.2 97.5299 261.123 99.2209 265.28 99.7254C269.436 100.23 273.65 99.5264 277.417 97.6992C281.184 95.872 284.345 92.9984 286.522 89.422C290.284 94.0158 295.483 97.209 301.281 98.4869C307.08 99.7647 313.14 99.0527 318.484 96.4656C323.829 93.8785 328.146 89.567 330.741 84.2263C333.336 78.8855 334.056 72.8266 332.787 67.0262C338.171 65.3889 342.712 61.7321 345.461 56.8216C348.209 51.9111 348.951 46.1277 347.532 40.6824C346.112 35.2371 342.64 30.5522 337.844 27.6087C333.048 24.6652 327.299 23.6914 321.801 24.8912C321.806 24.7301 321.812 24.5695 321.812 24.4072C321.801 21.4056 320.892 18.476 319.201 15.9963C317.509 13.5166 315.114 11.6007 312.323 10.4956C309.532 9.39055 306.474 9.14711 303.544 9.79672C300.613 10.4463 297.945 11.9591 295.882 14.14C293.179 9.39434 289.071 5.60301 284.124 3.28756C279.178 0.97212 273.635 0.246331 268.259 1.21004C262.883 2.17375 257.937 4.7796 254.103 8.66913C250.269 12.5587 247.734 17.5408 246.847 22.9301C241.932 21.6491 236.725 22.1252 232.124 24.2761C227.523 26.4269 223.819 30.1173 221.65 34.7097C219.481 39.302 218.985 44.5076 220.247 49.427C221.509 54.3464 224.449 58.6704 228.561 61.6518ZM252.399 62.7938C252.369 62.8246 252.341 62.8574 252.31 62.8884C252.303 62.8778 252.295 62.8677 252.288 62.8571C252.325 62.8356 252.362 62.8155 252.399 62.7938Z" fill="#C5CCCC"/>
<path d="M243.942 105.883C244.213 107.574 244.007 109.307 243.347 110.888C242.687 112.468 241.6 113.834 240.206 114.83C238.813 115.826 237.17 116.414 235.461 116.527C233.752 116.64 232.045 116.274 230.532 115.47C230.04 117.191 228.925 118.668 227.405 119.613C225.885 120.559 224.068 120.906 222.306 120.587C220.545 120.269 218.965 119.307 217.872 117.889C216.779 116.471 216.253 114.698 216.394 112.913C215.455 113.005 214.508 112.895 213.615 112.591C212.722 112.287 211.905 111.795 211.218 111.148C210.531 110.502 209.991 109.716 209.633 108.844C209.275 107.971 209.107 107.032 209.142 106.09C209.177 105.147 209.413 104.223 209.835 103.379C210.256 102.536 210.853 101.792 211.586 101.198C212.318 100.604 213.17 100.174 214.082 99.9362C214.995 99.6985 215.948 99.6588 216.877 99.8198C217.257 97.87 218.257 96.0953 219.729 94.7606C221.2 93.426 223.064 92.6031 225.041 92.4146C227.019 92.2261 229.004 92.6823 230.701 93.7149C232.398 94.7476 233.716 96.3014 234.457 98.1444C236.712 98.0476 238.923 98.7823 240.672 100.209C242.42 101.636 243.584 103.655 243.942 105.883Z" fill="#C5CCCC"/>
</svg>
