<svg width="16" height="15" viewBox="0 0 16 15" fill="none" xmlns="http://www.w3.org/2000/svg">
<path d="M7.83748 0.0463867C4.58807 0.0463867 1.95577 2.62579 1.86705 5.85332C1.05628 5.9721 0.431152 6.67022 0.431152 7.51346V9.42207C0.431152 10.33 1.15566 11.07 2.05672 11.099C2.09832 11.1084 2.14165 11.1069 2.18251 11.0947C2.22337 11.0825 2.26039 11.0599 2.29 11.0292C2.29054 11.0287 2.29108 11.0281 2.29162 11.0276C2.29227 11.0268 2.29292 11.0261 2.29356 11.0253C2.32009 10.9976 2.33982 10.9641 2.35121 10.9274C2.36259 10.8907 2.36531 10.8519 2.35915 10.814V6.12247C2.36353 6.09583 2.36353 6.06865 2.35915 6.04201V6.02101C2.35915 2.98171 4.79817 0.542684 7.83748 0.542684C10.8768 0.542684 13.3158 2.98171 13.3158 6.02101V6.04104C13.3114 6.06768 13.3114 6.09486 13.3158 6.1215V10.8131C13.3142 10.8233 13.3132 10.8337 13.3129 10.8441C13.1498 11.7104 12.6338 12.275 11.8715 12.6496C11.114 13.0219 10.1123 13.182 9.05043 13.1727C8.98928 13.0442 8.88335 12.9391 8.76416 12.8654C8.57797 12.7504 8.34599 12.69 8.0937 12.69C7.84142 12.69 7.60976 12.7504 7.42357 12.8654C7.23738 12.9805 7.08205 13.1714 7.08205 13.4102C7.08205 13.649 7.23738 13.8399 7.42357 13.955C7.60976 14.07 7.84142 14.1301 8.0937 14.1301C8.34599 14.1301 8.57797 14.07 8.76416 13.955C8.87664 13.8855 8.97703 13.7877 9.03945 13.669C10.1557 13.6797 11.2284 13.5187 12.0902 13.0952C12.9122 12.6912 13.5419 12.0273 13.7685 11.088C14.5985 10.9866 15.2438 10.279 15.2438 9.42207V7.51346C15.2438 6.67023 14.6187 5.9721 13.8079 5.85332C13.7192 2.6258 11.0869 0.0463867 7.83748 0.0463867ZM1.86285 6.35575V10.5798C1.32454 10.4675 0.927449 9.9967 0.927449 9.42207V7.51346C0.927449 6.93882 1.32454 6.46799 1.86285 6.35575ZM13.8121 6.35575C14.3504 6.46799 14.7475 6.93882 14.7475 7.51346V9.42207C14.7475 9.9967 14.3504 10.4675 13.8121 10.5798V6.35575ZM8.0937 13.1863C8.26311 13.1863 8.41325 13.2317 8.50341 13.2874C8.59356 13.3431 8.60906 13.3884 8.60906 13.4102C8.60906 13.432 8.59356 13.477 8.50341 13.5327C8.41325 13.5884 8.26311 13.6338 8.0937 13.6338C7.9243 13.6338 7.77448 13.5884 7.68432 13.5327C7.59417 13.477 7.57834 13.432 7.57834 13.4102C7.57834 13.3884 7.59417 13.3431 7.68432 13.2874C7.77448 13.2317 7.9243 13.1863 8.0937 13.1863Z" fill="#99A4BC"/>
</svg>
