<svg width="87" height="54" viewBox="0 0 87 54" fill="none" xmlns="http://www.w3.org/2000/svg">
<g clip-path="url(#clip0_144_167)">
<mask id="mask0_144_167" style="mask-type:luminance" maskUnits="userSpaceOnUse" x="0" y="0" width="87" height="53">
<path d="M86.1956 0.550781H0.00500488V52.9198H86.1956V0.550781Z" fill="white"/>
</mask>
<g mask="url(#mask0_144_167)">
<path d="M77.4674 0.550781H8.73319C3.91273 0.550781 0.00500488 4.45851 0.00500488 9.27896V44.1916C0.00500488 49.012 3.91273 52.9198 8.73319 52.9198H77.4674C82.2878 52.9198 86.1956 49.012 86.1956 44.1916V9.27896C86.1956 4.45851 82.2878 0.550781 77.4674 0.550781Z" fill="#F2F5FC"/>
<path fill-rule="evenodd" clip-rule="evenodd" d="M29.9103 19.6426H27.3774V33.3728H29.9103V19.6426ZM15.5714 30.5357L19.0767 22.9539L21.0045 27.1186L15.5714 30.5357ZM26.4958 33.3887L24.0292 28.061L26.4322 26.5494L25.2002 24.4791L23.0092 25.8572L20.6087 20.6708C20.4617 20.3529 20.2374 20.0894 19.9603 19.9081C19.6811 19.7262 19.3607 19.6342 19.0335 19.6432C18.7059 19.6518 18.3896 19.7608 18.119 19.9578C17.8604 20.1462 17.6544 20.4094 17.5215 20.72L12.7105 31.1261L12.6992 31.1541C12.3792 31.9444 12.5911 32.8397 13.2263 33.3826C13.8499 33.9154 14.7098 33.9607 15.3797 33.5015L22.0248 29.3222L23.9072 33.3891L26.4958 33.3887ZM33.9885 26.0628H37.751C39.6882 26.0628 40.3401 24.9996 40.3401 23.8004C40.3401 22.6012 39.6882 21.6153 37.7696 21.6153H33.9885V26.0628ZM38.2355 19.6426C41.849 19.6426 43.0037 21.6539 43.0037 23.7811C43.0037 25.386 42.2029 27.0492 40.042 27.6294L43.4506 33.3728H40.582L37.4157 27.9775H33.9885V33.3728H31.4555V19.6426H38.2355ZM43.7671 21.7698H48.5911V33.3728H51.1249V21.7698H55.9491V19.6426H43.7671V21.7698ZM60.842 19.6426H57.0981L57.0976 33.3728H59.3887V23.433C59.3887 22.8141 59.3514 22.2531 59.2959 21.7698H59.37C59.4446 22.1376 59.6311 22.8531 59.8175 23.375L63.5796 33.3732H65.964L69.7265 23.375C69.9316 22.8527 70.1549 22.0793 70.2108 21.7698H70.2854C70.2295 22.2728 70.1922 22.872 70.1922 23.433V33.3728H72.5578V19.6426H68.777L65.2191 29.215C65.0144 29.7949 64.9025 30.143 64.8279 30.6074H64.7906C64.7248 30.1948 64.6289 29.8892 64.4776 29.405C64.4585 29.3446 64.439 29.2815 64.4182 29.215L60.842 19.6426Z" fill="black"/>
</g>
</g>
<defs>
<clipPath id="clip0_144_167">
<rect width="86.1906" height="52.8527" fill="white" transform="translate(0.00500488 0.550781)"/>
</clipPath>
</defs>
</svg>
