<svg width="87" height="53" viewBox="0 0 87 53" fill="none" xmlns="http://www.w3.org/2000/svg">
<g clip-path="url(#clip0_144_160)">
<path d="M78.3591 0.550781H8.43084C3.94011 0.550781 0.299652 4.19124 0.299652 8.68197V44.4592C0.299652 48.9499 3.94011 52.5904 8.43084 52.5904H78.3591C82.8498 52.5904 86.4903 48.9499 86.4903 44.4592V8.68197C86.4903 4.19124 82.8498 0.550781 78.3591 0.550781Z" fill="#862565"/>
<mask id="mask0_144_160" style="mask-type:luminance" maskUnits="userSpaceOnUse" x="19" y="17" width="49" height="18">
<path d="M67.6341 17.626H19.0014V34.9948H67.6341V17.626Z" fill="white"/>
</mask>
<g mask="url(#mask0_144_160)">
<path d="M53.8897 22.0145C54.9879 22.0145 55.8772 21.1252 55.8772 20.0286C55.8772 18.932 54.9874 18.041 53.8897 18.041C52.7919 18.041 51.9038 18.9315 51.9038 20.0286C51.9037 20.2895 51.955 20.5477 52.0548 20.7887C52.1545 21.0297 52.3008 21.2487 52.4852 21.4332C52.6696 21.6177 52.8885 21.764 53.1296 21.8638C53.3705 21.9637 53.6288 22.0145 53.8897 22.0145ZM38.6664 23.0855C38.5767 23.3171 37.9311 25.1351 36.3697 27.0242V18.9442L32.2099 19.7664V34.4141H36.3703V29.8866C37.5756 31.693 38.1708 34.4141 38.1708 34.4141H43.154C42.6618 32.3645 40.5052 28.5868 40.5052 28.5868C41.7865 26.9342 42.7742 25.0734 43.4249 23.0861L38.6664 23.0855ZM49.603 22.9327C45.8773 23.0525 43.9853 24.724 43.9853 28.0473V34.4135H48.0508V29.2225C48.0508 27.2332 48.3113 26.3856 50.6723 26.2987V22.9929C50.2752 22.9083 49.603 22.935 49.603 22.935V22.9327ZM25.2333 24.7009C24.7239 24.6679 23.544 24.5909 23.544 23.529C23.544 22.2478 25.242 22.2478 25.8795 22.2478C26.9997 22.2478 28.4501 22.5778 29.4864 22.8887C29.8393 23.0355 30.1961 23.1729 30.5563 23.3009L30.6027 23.3136V19.8028L30.5401 19.7843C29.3174 19.3558 27.896 18.9448 25.26 18.9448C20.7151 18.9448 19.1057 21.5918 19.1057 23.8602C19.1057 25.1674 19.6661 28.2447 24.8703 28.5995C25.3115 28.6268 26.4822 28.6939 26.4822 29.7922C26.4822 30.6983 25.5234 31.2327 23.9116 31.2327C22.1457 31.2327 20.4303 30.7823 19.3899 30.355V33.9694C20.9484 34.3776 22.705 34.582 24.7644 34.582C29.2079 34.582 31.1978 32.0774 31.1978 29.5948C31.1978 26.7798 28.9711 24.9516 25.2345 24.7009H25.2333ZM51.876 34.4158H55.9079V23.0994H51.8748L51.876 34.4158ZM63.5004 19.6668V34.4158H67.5334V18.9459L63.5004 19.6668ZM57.6164 19.6668L61.6448 18.9459V34.4158H57.6164V19.6656V19.6668Z" fill="white"/>
</g>
</g>
<defs>
<clipPath id="clip0_144_160">
<rect width="86.1906" height="52.0396" fill="white" transform="translate(0.299652 0.550781)"/>
</clipPath>
</defs>
</svg>
