<svg width="87" height="53" viewBox="0 0 87 53" fill="none" xmlns="http://www.w3.org/2000/svg">
<g clip-path="url(#clip0_144_177)">
<path d="M78.4756 0.550781H8.54733C4.0566 0.550781 0.416138 4.19124 0.416138 8.68197V44.4592C0.416138 48.9499 4.0566 52.5904 8.54733 52.5904H78.4756C82.9663 52.5904 86.6067 48.9499 86.6067 44.4592V8.68197C86.6067 4.19124 82.9663 0.550781 78.4756 0.550781Z" fill="#2C2C2C"/>
<mask id="mask0_144_177" style="mask-type:luminance" maskUnits="userSpaceOnUse" x="13" y="18" width="61" height="18">
<path d="M73.4321 18.4395H13.426V35.1078H73.4321V18.4395Z" fill="white"/>
</mask>
<g mask="url(#mask0_144_177)">
<path d="M21.5947 34.9418C26.1061 34.9418 29.7633 31.2845 29.7633 26.7731C29.7633 22.2617 26.1061 18.6045 21.5947 18.6045C17.0833 18.6045 13.426 22.2617 13.426 26.7731C13.426 31.2845 17.0833 34.9418 21.5947 34.9418Z" fill="#26A17B"/>
<path d="M22.4653 27.5272V27.5259C22.4089 27.5299 22.1173 27.547 21.4685 27.547C20.9498 27.547 20.586 27.5325 20.4573 27.5259V27.5272C18.4624 27.4392 16.9745 27.0925 16.9745 26.6762C16.9745 26.2613 18.4637 25.9133 20.4573 25.8252V27.1819C20.5873 27.1911 20.9616 27.2133 21.4777 27.2133C22.0976 27.2133 22.4076 27.1871 22.4653 27.1819V25.8266C24.4562 25.9159 25.9403 26.2626 25.9403 26.6776C25.9403 27.0925 24.4549 27.4392 22.4653 27.5286V27.5272ZM22.4653 25.686V24.4726H25.2429V22.6221H17.681V24.4726H20.4586V25.686C18.2011 25.7897 16.5043 26.2363 16.5043 26.7721C16.5043 27.3079 18.2024 27.7545 20.4586 27.8595V31.7495H22.4666V27.8595C24.7202 27.7558 26.4144 27.3092 26.4144 26.7734C26.4144 26.2389 24.7202 25.791 22.4666 25.6874" fill="white"/>
<path d="M36.702 23.127V25.089H38.6089V26.5612H36.6889V29.5463C36.6889 30.2056 37.0526 30.5273 37.5858 30.5273C37.8524 30.5273 38.1611 30.4433 38.4132 30.3172L38.89 31.775C38.4001 31.9706 37.9929 32.0547 37.4742 32.0692C35.9744 32.1256 34.9934 31.2707 34.9934 29.5463V26.5612H33.7037V25.089H34.9934V23.3095L36.702 23.127ZM69.5776 24.9971L69.7036 25.7956C70.2368 24.9406 70.9512 24.8145 71.6526 24.8145C72.367 24.8145 73.0538 25.0942 73.4321 25.4725L72.6612 26.9578C72.3105 26.6636 71.9887 26.5087 71.428 26.5087C70.531 26.5087 69.7036 26.9854 69.7036 28.2606V31.905H67.9937V24.9945L69.5776 24.9971ZM65.3868 27.646C65.2752 26.749 64.5739 26.2999 63.5929 26.2999C62.6683 26.2999 61.9106 26.749 61.6584 27.646H65.3868ZM61.6309 29.0617C61.7424 29.9167 62.4858 30.5339 63.6914 30.5339C64.3217 30.5339 65.1492 30.2949 65.5418 29.8891L66.6345 30.9686C65.9056 31.7251 64.7145 32.0902 63.6625 32.0902C61.2802 32.0902 59.8632 30.6179 59.8632 28.4037C59.8632 26.3012 61.2933 24.787 63.5364 24.787C65.8491 24.787 67.2938 26.2172 67.0271 29.0617H61.6309ZM54.0899 22.0947V25.9348C54.7072 25.1363 55.4636 24.8973 56.249 24.8973C58.2111 24.8973 59.0804 26.2289 59.0804 28.2619V31.9063H57.3705V28.2764C57.3705 27.0143 56.7113 26.4824 55.7998 26.4824C54.7899 26.4824 54.0899 27.3374 54.0899 28.3749V31.9076H52.38V22.096L54.0899 22.0947ZM49.5486 23.0482V25.0102H51.4555V26.4824H49.5355V29.4675C49.5355 30.1268 49.9006 30.4485 50.4324 30.4485C50.6991 30.4485 51.0076 30.3645 51.2598 30.2384L51.7365 31.6962C51.2467 31.8918 50.8396 31.9759 50.3208 31.9904C48.821 32.0468 47.84 31.1905 47.84 29.4675V26.4824H46.5504V25.0102H47.84V23.2307L49.5486 23.0482ZM44.8247 27.646C44.713 26.749 44.0117 26.2999 43.0307 26.2999C42.1062 26.2999 41.3484 26.749 41.0963 27.646H44.8247ZM41.0687 29.0617C41.1803 29.9167 41.9236 30.5339 43.1292 30.5339C43.7596 30.5339 44.587 30.2949 44.9797 29.8891L46.0723 30.9686C45.3435 31.7251 44.1523 32.0902 43.1003 32.0902C40.7167 32.0902 39.301 30.6179 39.301 28.4037C39.301 26.3012 40.7312 24.787 42.973 24.787C45.2856 24.787 46.7289 26.2172 46.4637 29.0617H41.0687Z" fill="white"/>
</g>
</g>
<defs>
<clipPath id="clip0_144_177">
<rect width="86.1906" height="52.0396" fill="white" transform="translate(0.416138 0.550781)"/>
</clipPath>
</defs>
</svg>
