<svg width="87" height="53" viewBox="0 0 87 53" fill="none" xmlns="http://www.w3.org/2000/svg">
<g clip-path="url(#clip0_144_186)">
<path d="M78.1809 0.550781H8.25265C3.76192 0.550781 0.12146 4.19124 0.12146 8.68197V44.4592C0.12146 48.9499 3.76192 52.5904 8.25265 52.5904H78.1809C82.6716 52.5904 86.3121 48.9499 86.3121 44.4592V8.68197C86.3121 4.19124 82.6716 0.550781 78.1809 0.550781Z" fill="#343535"/>
<mask id="mask0_144_186" style="mask-type:luminance" maskUnits="userSpaceOnUse" x="13" y="16" width="60" height="22">
<path d="M72.5715 16H13.1314V37.1865H72.5715V16Z" fill="white"/>
</mask>
<g mask="url(#mask0_144_186)">
<path d="M32.0815 28.2436C32.0815 28.3404 32.0005 28.4193 31.9037 28.4193H28.4803C28.5664 29.2652 29.2023 30.0366 30.0977 30.0366C30.3749 30.0488 30.6505 29.9887 30.8973 29.8621C31.1442 29.7355 31.3539 29.5469 31.5058 29.3147C31.556 29.2473 31.6298 29.2043 31.7237 29.2451C31.7489 29.2561 31.7709 29.2732 31.7879 29.2949C31.8048 29.3165 31.816 29.3421 31.8205 29.3691C31.8298 29.4251 31.8134 29.4566 31.799 29.4882C31.4549 30.089 30.7688 30.3843 30.0963 30.3843C28.9449 30.3843 28.1248 29.3541 28.1248 28.2522C28.1248 27.1503 28.9456 26.12 30.0963 26.12C31.247 26.12 32.0801 27.1453 32.0822 28.2457L32.0815 28.2436ZM31.7237 28.0795C31.6491 27.2334 31.0018 26.462 30.1063 26.462C29.2109 26.462 28.5742 27.2334 28.489 28.0795H31.7237ZM36.2447 26.2032C36.3437 26.2032 36.4153 26.2892 36.4153 26.3739C36.4153 26.4727 36.3408 26.5445 36.2447 26.5445H35.327V30.1456C35.327 30.2316 35.2525 30.3163 35.1564 30.3163C35.0603 30.3163 34.9858 30.2302 34.9858 30.1456V26.5445H34.1039C34.005 26.5445 33.9334 26.4699 33.9334 26.3739C33.9334 26.2878 34.0079 26.2032 34.1039 26.2032H34.9858V24.8826C34.9858 24.7994 35.0417 24.7227 35.1292 24.7091C35.2439 24.6912 35.3335 24.7701 35.3335 24.8776V26.2003L36.2447 26.2032ZM41.8368 27.9439V30.1255C41.8368 30.2245 41.7508 30.2962 41.6662 30.2962C41.5672 30.2962 41.4955 30.2216 41.4955 30.1255V27.9511C41.4955 27.2155 41.0797 26.48 40.2581 26.48C39.2056 26.48 38.7511 27.3998 38.8121 28.3425C38.8121 28.3676 38.8235 28.4773 38.8235 28.4888V30.1262C38.8235 30.2094 38.7676 30.2861 38.6802 30.2998C38.5654 30.3177 38.4758 30.2389 38.4758 30.1313V22.9655C38.4758 22.8795 38.5504 22.7949 38.6464 22.7949C38.7425 22.7949 38.8171 22.881 38.8171 22.9655V27.0213C39.1038 26.495 39.6379 26.1394 40.2495 26.1394C41.2547 26.1394 41.8311 27.0213 41.8311 27.9533L41.8368 27.9439ZM47.9694 28.2544C47.9694 28.3511 47.8884 28.43 47.7917 28.43H44.3662C44.4522 29.276 45.0881 30.0474 45.9835 30.0474C46.2607 30.0596 46.5363 29.9994 46.7831 29.8729C47.03 29.7463 47.2397 29.5576 47.3916 29.3255C47.4418 29.2581 47.5156 29.2151 47.6095 29.2559C47.6347 29.2669 47.6568 29.284 47.6737 29.3056C47.6906 29.3273 47.7018 29.3528 47.7064 29.38C47.7156 29.4358 47.6991 29.4674 47.6848 29.4989C47.3407 30.0997 46.6546 30.3951 45.9821 30.3951C44.8307 30.3951 44.0106 29.3649 44.0106 28.263C44.0106 27.161 44.8314 26.1308 45.9821 26.1308C47.1328 26.1308 47.968 27.156 47.9701 28.2565L47.9694 28.2544ZM47.6009 28.0902C47.5263 27.2442 46.879 26.4727 45.9835 26.4727C45.0881 26.4727 44.4515 27.2442 44.3662 28.0902H47.6009ZM52.1793 26.3739C52.1793 26.4843 52.1183 26.5445 52.0194 26.5581C51.0143 26.7043 50.5619 27.526 50.5619 28.4809V30.1184C50.5619 30.2015 50.5059 30.2783 50.4185 30.2919C50.3038 30.3098 50.2142 30.231 50.2142 30.1234V26.3918C50.2142 26.3086 50.27 26.2319 50.3575 26.2182C50.4723 26.2003 50.5619 26.2792 50.5619 26.3867V27.1467C50.8429 26.6699 51.4078 26.2147 51.9943 26.2147C52.0804 26.2125 52.1786 26.2756 52.1786 26.3724L52.1793 26.3739ZM57.8015 28.2551C57.8015 28.3519 57.7205 28.4307 57.6237 28.4307H54.2003C54.2864 29.2767 54.9222 30.0481 55.8177 30.0481C56.0949 30.0603 56.3705 30.0001 56.6173 29.8735C56.8642 29.747 57.0739 29.5584 57.2258 29.3261C57.276 29.2588 57.3498 29.2158 57.4437 29.2566C57.4689 29.2676 57.4909 29.2847 57.5079 29.3064C57.5248 29.328 57.536 29.3535 57.5405 29.3807C57.5498 29.4366 57.5333 29.4681 57.519 29.4997C57.1749 30.1005 56.4888 30.3958 55.8162 30.3958C54.6649 30.3958 53.8447 29.3656 53.8447 28.2637C53.8447 27.1618 54.6656 26.1316 55.8162 26.1316C56.967 26.1316 57.8 27.1567 57.8022 28.2572L57.8015 28.2551ZM57.4437 28.0909C57.3691 27.2449 56.7217 26.4735 55.8263 26.4735C54.9308 26.4735 54.2943 27.2449 54.2089 28.0909H57.4437ZM63.3369 26.4176V30.1578C63.3369 30.2568 63.2508 30.3285 63.1663 30.3285C63.0673 30.3285 62.9957 30.2539 62.9957 30.1578V29.4409C62.7146 30.0051 62.2106 30.4087 61.5739 30.4087C60.5574 30.4087 59.9924 29.5269 59.9924 28.5949V26.4011C59.9924 26.3151 60.067 26.2304 60.163 26.2304C60.2591 26.2304 60.3337 26.3165 60.3337 26.4011V28.5949C60.3337 29.3304 60.7495 30.0661 61.5711 30.0661C62.7225 30.0661 62.9928 28.9885 62.9928 27.7991V26.3953C62.9928 26.2964 63.0917 26.1946 63.2129 26.2304C63.2874 26.2556 63.3369 26.3273 63.3369 26.4039V26.4176ZM71.9975 27.9289V30.1227C71.9975 30.2216 71.9114 30.2933 71.8268 30.2933C71.7279 30.2933 71.6562 30.2188 71.6562 30.1227V27.9289C71.6562 27.1933 71.2404 26.4714 70.4188 26.4714C69.3886 26.4714 68.9971 27.5733 68.9971 28.4307V30.1227C68.9971 30.2216 68.911 30.2933 68.8265 30.2933C68.7275 30.2933 68.6558 30.2188 68.6558 30.1227V27.9289C68.6558 27.1933 68.24 26.4714 67.4184 26.4714C66.3767 26.4714 65.9472 27.2922 65.986 28.3834C65.986 28.4085 65.9975 28.458 65.986 28.4694V30.1184C65.986 30.2015 65.9301 30.2783 65.8461 30.2919C65.7315 30.3098 65.6418 30.231 65.6418 30.1234V26.3739C65.6418 26.2907 65.6978 26.2139 65.7852 26.2003C65.9 26.1825 65.9896 26.2612 65.9896 26.3688V26.9939C66.2764 26.4678 66.8104 26.1237 67.422 26.1237C68.1196 26.1237 68.6595 26.5645 68.8795 27.2148C69.1606 26.5782 69.7111 26.1237 70.4224 26.1237C71.4275 26.1237 72.0039 26.9839 72.0039 27.9159" fill="white"/>
<path opacity="0.6" d="M19.3349 23.9609L13.1313 26.7823L19.3349 30.4473L25.536 26.7823L19.3349 23.9609Z" fill="white"/>
<path opacity="0.45" d="M13.1314 26.7821L19.3349 30.4473V16.4893L13.1314 26.7821Z" fill="white"/>
<path opacity="0.8" d="M19.3348 16.4893V30.4473L25.536 26.7821L19.3348 16.4893Z" fill="white"/>
<path opacity="0.45" d="M13.1313 27.957L19.3349 36.6967V31.6222L13.1313 27.957Z" fill="white"/>
<path opacity="0.8" d="M19.3348 31.6222V36.6967L25.5409 27.957L19.3348 31.6222Z" fill="white"/>
</g>
</g>
<defs>
<clipPath id="clip0_144_186">
<rect width="86.1906" height="52.0396" fill="white" transform="translate(0.12146 0.550781)"/>
</clipPath>
</defs>
</svg>
