<svg width="87" height="53" viewBox="0 0 87 53" fill="none" xmlns="http://www.w3.org/2000/svg">
<g clip-path="url(#clip0_144_174)">
<path d="M78.77 0.550781H8.84176C4.35103 0.550781 0.710571 4.19124 0.710571 8.68197V44.4592C0.710571 48.9499 4.35103 52.5904 8.84176 52.5904H78.77C83.2607 52.5904 86.9012 48.9499 86.9012 44.4592V8.68197C86.9012 4.19124 83.2607 0.550781 78.77 0.550781Z" fill="#E58D0C"/>
<path d="M21.5495 27.1263C21.6076 27.2633 21.6181 27.4137 21.5882 27.5909C21.5495 27.7965 21.4602 27.9573 21.3187 28.0824C21.1757 28.203 21.0208 28.276 20.8496 28.2924C20.6768 28.3087 20.4668 28.2924 20.2196 28.2477L19.7922 28.1643C19.6507 28.136 19.5658 28.1151 19.5345 28.0928C19.5048 28.0719 19.4883 28.0422 19.4809 28.0005C19.4779 27.9692 19.4899 27.859 19.5196 27.6817L19.7564 26.4159L20.5145 26.5559C20.8466 26.6199 21.0878 26.6974 21.2368 26.7867C21.3872 26.8761 21.49 26.9922 21.5495 27.1263ZM21.5898 24.465C21.4557 24.3905 21.1995 24.319 20.8242 24.249L20.1839 24.1283L19.9158 25.5536L20.5577 25.6742C20.8928 25.7353 21.146 25.7546 21.3172 25.7278C21.4884 25.6995 21.6225 25.6384 21.7268 25.5417C21.8265 25.4479 21.8935 25.3212 21.9204 25.1724C21.9501 25.0175 21.9353 24.8819 21.8787 24.7569C21.8251 24.6362 21.7297 24.5364 21.5898 24.465ZM27.2698 26.2357C27.2698 29.9797 24.2362 33.0104 20.4936 33.0104C16.7526 33.0104 13.7204 29.9797 13.7204 26.2357C13.7204 22.4917 16.7526 19.4609 20.4936 19.4609C24.2362 19.4609 27.2698 22.4917 27.2698 26.2357ZM23.2831 24.4456C23.1684 24.1954 22.9747 23.9839 22.7082 23.8097C22.6069 23.7411 22.4774 23.6816 22.3359 23.6265L22.528 22.5974L21.5391 22.4113L21.3574 23.3733L20.7215 23.2541L20.9032 22.2921L19.9128 22.1059L19.7311 23.0695L18.2195 22.7865L18.0691 23.5952L18.3 23.6384C18.4548 23.6652 18.5561 23.6995 18.6037 23.7382C18.6544 23.7739 18.6842 23.8201 18.6976 23.8722C18.711 23.9243 18.7021 24.036 18.6693 24.2117L18.0586 27.4703C18.0274 27.6401 17.9976 27.7488 17.9648 27.792C17.9321 27.8352 17.8874 27.8679 17.8278 27.8843C17.7683 27.9007 17.6625 27.8948 17.5091 27.862L17.2768 27.8232L17.1264 28.6289L18.6365 28.909L18.4578 29.871L19.4482 30.0572L19.6269 29.0951L20.1898 29.1993C20.2151 29.2053 20.2375 29.2068 20.2628 29.2128L20.0841 30.1748L21.0729 30.358L21.2696 29.317C21.4408 29.314 21.5942 29.2991 21.7297 29.2768C22.0976 29.2038 22.3984 29.0534 22.6352 28.8255C22.8705 28.6022 23.0179 28.3341 23.0745 28.0228C23.1237 27.7607 23.1058 27.5135 23.0224 27.2841C22.9375 27.0488 22.802 26.8537 22.6144 26.6959C22.4863 26.5856 22.2897 26.4695 22.0306 26.3503C22.3016 26.3102 22.5265 26.2402 22.7067 26.1344C22.8884 26.0301 23.0358 25.8991 23.149 25.7398C23.2636 25.5819 23.3411 25.4047 23.3754 25.2125C23.429 24.9594 23.3977 24.6973 23.2831 24.4456ZM35.8004 27.7562C35.8004 30.2061 34.198 33.006 30.8083 33.006C29.0213 33.006 28.1276 32.2315 28.1276 30.8957C28.1276 30.431 28.2036 29.9708 28.296 29.5255L29.8224 21.8974H32.0548L31.1628 26.1999H31.1941C31.7481 25.5372 32.5955 25.1321 33.5203 25.1321C35.093 25.1366 35.8004 26.4159 35.8004 27.7562ZM33.4727 28.2179C33.4727 27.4956 33.1644 26.9237 32.4882 26.9237C31.6855 26.9237 30.9022 27.7413 30.6386 29.0519L30.5001 29.6684C30.4688 29.9157 30.4077 30.1778 30.4227 30.5024C30.4376 31.0386 30.7607 31.3335 31.27 31.3335C32.5508 31.329 33.4727 29.5434 33.4727 28.2179ZM36.4066 32.8406H38.6256L40.0583 25.3049H37.8392L36.4066 32.8406ZM39.4268 22.027C38.7477 22.027 38.1609 22.5363 38.1475 23.2899C38.1475 23.9511 38.6092 24.3697 39.2243 24.3697C39.9346 24.3697 40.5333 23.9064 40.5333 23.1216C40.5349 22.4559 40.0716 22.027 39.4268 22.027ZM44.7584 23.1961L42.4933 23.7233L42.1849 25.3064H41.2139L40.9056 26.9863H41.8618L41.275 29.9916C41.1678 30.5635 41.1216 30.9775 41.1216 31.3931C41.1216 32.3328 41.7545 33.0104 43.0785 33.0104C43.5551 33.0104 44.1076 32.9478 44.3876 32.8421L44.6527 31.0997C44.4501 31.1309 44.2372 31.1309 44.0362 31.1309C43.5566 31.1309 43.4017 30.8658 43.4017 30.4965C43.4017 30.2344 43.4627 29.8471 43.5253 29.5404L44.0362 26.9818H45.6356L45.9618 25.3019H44.3593L44.7584 23.1961ZM46.0273 29.9157C46.0273 31.8696 47.3364 32.994 49.1979 32.994C50.0945 32.994 50.8645 32.8391 51.3395 32.6083L51.3246 30.912C50.9374 31.0669 50.4773 31.2203 49.8309 31.2203C48.9969 31.2203 48.352 30.6946 48.352 29.6625C48.352 28.2477 49.32 26.9044 50.9091 26.9044C51.3574 26.9044 51.6656 26.9818 51.9278 27.089L52.4654 25.3943C52.1422 25.2542 51.5868 25.1292 50.9419 25.1292C48.075 25.1366 46.0273 27.2335 46.0273 29.9157ZM60.2782 28.2343C60.2782 30.9924 58.4002 33.0104 55.7791 33.0104C53.8713 33.0104 52.589 31.7624 52.589 29.8963C52.589 27.2782 54.4059 25.1366 57.0882 25.1366C59.1091 25.1366 60.2782 26.5231 60.2782 28.2343ZM57.9832 28.2477C57.9832 27.5552 57.6928 26.8165 56.7977 26.8165C55.5199 26.8165 54.8736 28.6811 54.8915 29.8502C54.8915 30.7288 55.3218 31.3141 56.0933 31.3141C57.3085 31.3156 57.9832 29.5434 57.9832 28.2477ZM63.9626 22.027C63.285 22.027 62.6982 22.5363 62.6863 23.2899C62.6863 23.9511 63.151 24.3697 63.7661 24.3697C64.478 24.3697 65.0751 23.9064 65.0751 23.1216C65.0767 22.4559 64.612 22.027 63.9626 22.027ZM60.9468 32.8406H63.1629L64.5985 25.3049H62.3795L60.9468 32.8406ZM70.8848 25.1366C69.8825 25.1366 68.9443 25.5685 68.2368 26.5544H68.2056L68.3604 25.3064H66.3916C66.2978 25.9706 66.1742 26.8016 65.9881 27.7578L65.0305 32.8421H67.2495L67.8809 29.4972C68.1892 27.8382 69.0381 26.9237 69.7634 26.9237C70.3188 26.9237 70.5036 27.2945 70.5036 27.8188C70.5036 28.0988 70.4723 28.407 70.4232 28.6662L69.6398 32.8421H71.8573L72.6913 28.4666C72.7523 28.0973 72.8149 27.5284 72.8149 27.1933C72.8119 25.8917 72.1179 25.1366 70.8848 25.1366Z" fill="white"/>
</g>
<defs>
<clipPath id="clip0_144_174">
<rect width="86.1906" height="52.0396" fill="white" transform="translate(0.710571 0.550781)"/>
</clipPath>
</defs>
</svg>
