<svg width="88" height="53" viewBox="0 0 88 53" fill="none" xmlns="http://www.w3.org/2000/svg">
<g clip-path="url(#clip0_144_198)">
<path d="M78.8864 0.550781H8.95822C4.46748 0.550781 0.827026 4.19124 0.827026 8.68197V44.4592C0.827026 48.9499 4.46748 52.5904 8.95822 52.5904H78.8864C83.3772 52.5904 87.0176 48.9499 87.0176 44.4592V8.68197C87.0176 4.19124 83.3772 0.550781 78.8864 0.550781Z" fill="#2A88D2"/>
<path d="M31.8258 22.5565H32.3087C32.4315 22.5565 32.5315 22.6564 32.5315 22.7793V27.1022C32.5315 28.4679 33.2716 29.3308 34.6487 29.3308C36.0258 29.3308 36.7659 28.4679 36.7659 27.1022V22.7793C36.7659 22.6564 36.8659 22.5565 36.9887 22.5565H37.4716C37.5944 22.5565 37.6944 22.6564 37.6944 22.7793V27.1137C37.6944 28.9737 36.6745 30.1594 34.6487 30.1594C32.6229 30.1594 31.603 28.9622 31.603 27.125V22.7793C31.6001 22.6564 31.7001 22.5565 31.8258 22.5565ZM39.1173 28.4451C39.1888 28.3537 39.3259 28.345 39.4087 28.4251C39.9088 28.9108 40.6574 29.3308 41.606 29.3308C42.9374 29.3308 43.3631 28.6136 43.3631 28.0422C43.3631 27.145 42.4574 26.8993 41.4716 26.6308C40.2745 26.3165 38.9402 25.9822 38.9402 24.5136C38.9402 23.2822 40.0374 22.4421 41.5059 22.4421C42.5602 22.4421 43.3946 22.765 44.0088 23.3336C44.0974 23.4136 44.106 23.5507 44.0288 23.6421L43.7374 23.9993C43.666 24.0879 43.5345 24.0936 43.4516 24.0164C42.906 23.505 42.1859 23.2707 41.4374 23.2707C40.5402 23.2707 39.903 23.7536 39.903 24.4565C39.903 25.2079 40.7659 25.4308 41.7173 25.6879C42.9374 26.0136 44.326 26.3936 44.326 27.9622C44.326 29.0479 43.586 30.1565 41.5716 30.1565C40.3659 30.1565 39.4574 29.7308 38.8402 29.1137C38.7602 29.0337 38.7517 28.905 38.8231 28.8165L39.1173 28.4451ZM45.4317 22.7793C45.4317 22.6564 45.5317 22.5565 45.6545 22.5565H47.9832C50.3003 22.5565 51.8147 24.1793 51.8147 26.2965C51.8147 28.4251 50.3032 30.0251 47.9832 30.0251H45.6545C45.5317 30.0251 45.4317 29.9251 45.4317 29.8022V22.7793ZM47.986 29.1965C49.8003 29.1965 50.8518 27.8965 50.8518 26.2965C50.8518 24.6822 49.8318 23.385 47.986 23.385H46.3632V29.1965H47.986ZM61.109 27.3165C61.109 25.7479 62.1405 24.4822 63.7862 24.4822C65.432 24.4822 66.4634 25.7479 66.4634 27.3165C66.4634 28.885 65.432 30.1622 63.7862 30.1622C62.1405 30.1622 61.109 28.8822 61.109 27.3165ZM65.5777 27.3165C65.5777 26.2193 64.9405 25.2336 63.7862 25.2336C62.6319 25.2336 61.9834 26.2193 61.9834 27.3165C61.9834 28.4251 62.6319 29.4108 63.7862 29.4108C64.9405 29.4108 65.5777 28.4251 65.5777 27.3165ZM67.2691 23.1393C67.2691 22.825 67.5263 22.5793 67.8291 22.5793C68.1434 22.5793 68.4006 22.825 68.4006 23.1393C68.4006 23.4536 68.1434 23.7108 67.8291 23.7108C67.5263 23.7108 67.2691 23.4507 67.2691 23.1393ZM67.6377 24.6165H68.0291C68.152 24.6165 68.252 24.7164 68.252 24.8393V29.8022C68.252 29.9251 68.152 30.0251 68.0291 30.0251H67.6377C67.5148 30.0251 67.4148 29.9251 67.4148 29.8022V24.8393C67.4148 24.7164 67.5148 24.6165 67.6377 24.6165ZM73.092 26.4879C73.092 25.5365 72.6092 25.2336 71.8835 25.2336C71.2235 25.2336 70.5949 25.6365 70.2806 26.0736V29.8022C70.2806 29.9251 70.1806 30.0251 70.0577 30.0251H69.6663C69.5434 30.0251 69.4435 29.9251 69.4435 29.8022V24.8393C69.4435 24.7164 69.5434 24.6165 69.6663 24.6165H70.0577C70.1806 24.6165 70.2806 24.7164 70.2806 24.8393V25.3993C70.6606 24.9508 71.4006 24.4822 72.2064 24.4822C73.3377 24.4822 73.9321 25.0536 73.9321 26.2279V29.7994C73.9321 29.9223 73.832 30.0223 73.7092 30.0223H73.3177C73.1949 30.0223 73.095 29.9223 73.095 29.7994V26.4879H73.092ZM53.9375 26.2965C53.9375 23.9993 55.629 22.4336 57.7461 22.4336C59.0004 22.4336 59.8805 22.9793 60.4748 23.7278C60.549 23.8222 60.5233 23.9622 60.4176 24.0222L60.0005 24.2536C59.9062 24.3079 59.7861 24.2821 59.7176 24.1993C59.2748 23.6508 58.5576 23.265 57.7461 23.265C56.1433 23.265 54.9004 24.5193 54.9004 26.2993C54.9004 28.0679 56.1433 29.3336 57.7461 29.3336C58.5605 29.3336 59.2776 28.9565 59.7176 28.3994C59.7861 28.3137 59.9033 28.2908 60.0005 28.3422L60.4233 28.5736C60.5319 28.6336 60.5576 28.7765 60.4805 28.8708C59.8633 29.6251 59.0004 30.1622 57.7461 30.1622C55.629 30.1594 53.9375 28.5936 53.9375 26.2965Z" fill="white"/>
<path d="M21.6942 33.5823C25.718 33.5823 28.98 30.3203 28.98 26.2965C28.98 22.2726 25.718 19.0107 21.6942 19.0107C17.6704 19.0107 14.4084 22.2726 14.4084 26.2965C14.4084 30.3203 17.6704 33.5823 21.6942 33.5823Z" fill="white"/>
<path d="M20.3283 31.3625C20.3283 31.5339 20.194 31.6311 20.0283 31.5796C17.8255 30.8768 16.2283 28.811 16.2283 26.3739C16.2283 23.9367 17.8255 21.8709 20.0283 21.168C20.194 21.1167 20.3283 21.2138 20.3283 21.3852V21.808C20.3283 21.9224 20.2398 22.0566 20.1312 22.0938C18.3883 22.7338 17.1397 24.4081 17.1397 26.371C17.1397 28.3339 18.3883 30.0082 20.1312 30.6482C20.2398 30.6882 20.3283 30.8196 20.3283 30.9339V31.3625Z" fill="#2A88D2"/>
<path d="M22.1487 29.7875C22.1487 29.9132 22.0458 30.0161 21.9201 30.0161H21.4658C21.3401 30.0161 21.2373 29.9132 21.2373 29.7875V29.0675C20.2429 28.9333 19.7572 28.3761 19.6258 27.6189C19.6029 27.4904 19.7058 27.3732 19.8372 27.3732H20.3572C20.4658 27.3732 20.5573 27.4504 20.5801 27.5589C20.6772 28.0104 20.9372 28.3561 21.7344 28.3561C22.3229 28.3561 22.7401 28.0275 22.7401 27.5361C22.7401 27.0446 22.4944 26.8589 21.6316 26.716C20.3572 26.5446 19.7544 26.1589 19.7544 25.1589C19.7544 24.3874 20.3372 23.7874 21.2401 23.6589V22.9532C21.2401 22.8275 21.343 22.7246 21.4687 22.7246H21.923C22.0487 22.7246 22.1515 22.8275 22.1515 22.9532V23.6789C22.8858 23.8103 23.3515 24.2275 23.5029 24.9189C23.5316 25.0504 23.4287 25.1732 23.2944 25.1732H22.8144C22.7115 25.1732 22.6258 25.1046 22.5944 25.0046C22.4658 24.5646 22.1515 24.3761 21.6058 24.3761C21.0029 24.3761 20.6915 24.6675 20.6915 25.0761C20.6915 25.5075 20.8687 25.7246 21.7944 25.8589C23.0458 26.0303 23.6916 26.3875 23.6916 27.4532C23.6916 28.2618 23.0915 28.9161 22.1515 29.0675V29.7875H22.1487Z" fill="#2A88D2"/>
<path d="M23.3601 31.5798C23.1944 31.6313 23.0601 31.5341 23.0601 31.3627V30.9398C23.0601 30.8141 23.1372 30.6969 23.2572 30.6541C25.0001 30.0141 26.2487 28.3398 26.2487 26.3769C26.2487 24.414 25.0001 22.7397 23.2572 22.0997C23.1487 22.0597 23.0601 21.9283 23.0601 21.814V21.3911C23.0601 21.2197 23.1944 21.1197 23.3601 21.174C25.563 21.8769 27.1601 23.9426 27.1601 26.3798C27.1573 28.8112 25.563 30.8741 23.3601 31.5798Z" fill="#2A88D2"/>
</g>
<defs>
<clipPath id="clip0_144_198">
<rect width="86.1906" height="52.0396" fill="white" transform="translate(0.827026 0.550781)"/>
</clipPath>
</defs>
</svg>
