<svg width="61" height="71" viewBox="0 0 61 71" fill="none" xmlns="http://www.w3.org/2000/svg">
<path fill-rule="evenodd" clip-rule="evenodd" d="M29.6944 70.8858C29.9291 70.9228 30.1681 70.9228 30.4028 70.8858C30.6374 70.9228 30.8765 70.9228 31.1111 70.8858C31.1257 70.8766 31.2196 70.844 31.3846 70.7867C34.3781 69.7483 60.7615 60.5955 60.7615 35.4673V18.3653C60.7374 16.9099 60.2952 15.4922 59.4878 14.2811C58.6804 13.07 57.5418 12.1166 56.2077 11.5345L33.9446 1.41498C32.8324 0.908857 31.6247 0.646973 30.4028 0.646973C29.1808 0.646973 27.9731 0.908857 26.8609 1.41498L4.59787 11.5345C3.26374 12.1166 2.12511 13.07 1.31771 14.2811C0.510307 15.4922 0.0681934 16.9099 0.0440674 18.3653V35.4673C0.0440674 62.0818 29.4161 70.8858 29.6944 70.8858ZM28.9607 6.01938C29.4146 5.81748 29.906 5.71401 30.4028 5.7158C30.8995 5.71401 31.391 5.81748 31.8448 6.01938L54.1079 16.139C54.5591 16.318 54.9494 16.6231 55.232 17.0179C55.5146 17.4126 55.6777 17.8804 55.7017 18.3653V35.4673C55.7017 56.3136 34.6277 64.3081 30.4028 65.6995C26.1778 64.3081 5.10385 56.3136 5.10385 35.4673V18.3653C5.12789 17.8804 5.29095 17.4126 5.57356 17.0179C5.85617 16.6231 6.24641 16.318 6.69768 16.139L28.9607 6.01938ZM23.6227 46.5479C24.0528 46.8481 24.5655 47.0073 25.09 47.0033C25.6724 46.9986 26.2354 46.793 26.6838 46.4214L48.4409 28.4086C48.9576 27.9792 49.2825 27.3621 49.3441 26.6931C49.4058 26.0241 49.1992 25.3581 48.7698 24.8414C48.3404 24.3248 47.7233 23.9999 47.0543 23.9382C46.3854 23.8765 45.7193 24.0831 45.2027 24.5125L24.9635 41.2857L15.4258 34.5309C15.1551 34.3382 14.849 34.2007 14.5251 34.1263C14.2012 34.0519 13.8658 34.042 13.5381 34.0973C13.2104 34.1525 12.8967 34.2717 12.6151 34.4481C12.3335 34.6245 12.0893 34.8547 11.8966 35.1254C11.7039 35.3962 11.5665 35.7023 11.4921 36.0262C11.4176 36.3501 11.4078 36.6854 11.463 37.0132C11.5182 37.3409 11.6374 37.6545 11.8138 37.9362C11.9902 38.2178 12.2204 38.4619 12.4912 38.6546L23.6227 46.5479Z" fill="white"/>
</svg>
