<svg width="62" height="67" viewBox="0 0 62 67" fill="none" xmlns="http://www.w3.org/2000/svg">
<path d="M40.8379 41.467C40.838 41.467 40.8378 41.467 40.8379 41.467C40.8117 41.465 40.7872 41.4609 40.7611 41.459C39.876 41.3926 39.2081 40.7544 39.2081 39.9736V39.1085C39.722 38.7704 40.2229 38.4109 40.693 38.0063C43.3779 35.6959 45.0028 32.4971 45.272 29.1135C46.1643 28.8 47.3208 27.9545 47.9486 25.7192C48.3496 24.2915 48.2491 23.1162 47.6498 22.2266C47.4535 21.9349 47.2259 21.7162 46.9999 21.5432C47.4473 20.2374 47.8042 18.2271 47.9622 15.0869C48.1588 11.1704 46.9539 7.95068 44.3797 5.5166C39.4599 0.864746 31.3505 0.811035 31.0079 0.811035C30.6654 0.811035 22.556 0.864746 17.6362 5.5166C15.062 7.95068 13.8571 11.1704 14.0537 15.0869C14.2117 18.2271 14.5686 20.2374 15.016 21.5432C14.79 21.7162 14.5624 21.9349 14.3661 22.2266C13.7668 23.1162 13.6663 24.2915 14.0673 25.7192C14.698 27.9647 15.8625 28.8083 16.7564 29.1183C17.1683 33.2358 19.4586 36.8226 22.8078 39.0704V39.9736C22.8078 40.7544 22.1399 41.3926 21.2543 41.459C8.54392 42.4077 0.647949 48.7979 0.647949 58.1357V65.811C0.647949 66.3633 1.14344 66.811 1.75456 66.811H60.2613C60.8725 66.811 61.368 66.3633 61.368 65.811V58.1357C61.368 48.8181 53.5027 42.4371 40.8379 41.467ZM31.0079 44.6209L24.9855 40.3119C24.9866 40.3014 24.9878 40.291 24.9888 40.2804C26.6176 41.0024 28.4149 41.4402 30.3152 41.5244C30.5481 41.5347 30.7805 41.5396 31.0117 41.5396C33.1211 41.5396 35.1608 41.1027 37.0281 40.29C37.0289 40.2974 37.0297 40.3046 37.0304 40.3119L31.0079 44.6209ZM24.0947 42.2256L29.5582 46.1348L27.3839 49.4053L23.0241 43.0109C23.4343 42.8066 23.7954 42.542 24.0947 42.2256ZM37.9211 42.2257C38.2204 42.5421 38.5814 42.8068 38.9917 43.011L34.632 49.4053L32.4577 46.1348L37.9211 42.2257ZM45.8035 25.2271C45.6627 25.728 45.4967 26.105 45.3275 26.4025V23.8405C45.5017 23.7577 45.6789 23.6412 45.8553 23.486C46.0173 23.9004 46.0081 24.4984 45.8035 25.2271ZM19.228 6.90625C23.4837 2.87305 30.9345 2.81104 31.0069 2.81104C31.0814 2.81104 38.5322 2.87305 42.7879 6.90625C44.9222 8.9292 45.9191 11.6509 45.7511 14.9961C45.5625 18.7422 45.0946 20.5264 44.7336 21.3647C44.2603 18.7969 42.87 13.7861 38.9082 13.9673C36.5199 14.0552 34.2095 14.561 32.6911 14.9702C31.5899 15.2671 30.426 15.2671 29.3248 14.9702C27.807 14.5615 25.496 14.0552 23.1077 13.9673C23.0509 13.9648 22.9958 13.9639 22.9407 13.9639C19.1405 13.9639 17.7491 18.834 17.2828 21.3652C16.9213 20.5269 16.4534 18.7422 16.2648 14.9961C16.0968 11.6509 17.0937 8.9292 19.228 6.90625ZM16.153 23.4791C16.3319 23.6379 16.5117 23.7565 16.6884 23.8405V26.3986C16.518 26.1017 16.3526 25.7259 16.2124 25.2271C15.9844 24.4152 16.0096 23.8512 16.153 23.4791ZM18.9265 28.2709C18.9261 28.2273 18.9429 28.1864 18.9357 28.1421C18.9329 28.1249 18.9213 28.1119 18.9177 28.0951C18.9147 27.9879 18.9017 27.8832 18.9017 27.7754V23.6101C18.9131 23.6009 18.9296 23.5944 18.9406 23.585C19.1362 23.418 19.2572 23.1919 19.2815 22.9497C19.5133 20.6348 20.7361 15.8896 23.0169 15.9653C25.1772 16.0449 27.2953 16.5103 28.6921 16.8867C30.2072 17.2949 31.8087 17.2949 33.3238 16.8867C34.7206 16.5103 36.8387 16.0449 38.999 15.9653C41.2792 15.9146 42.4993 20.6348 42.7344 22.9502C42.7592 23.1919 42.8803 23.418 43.0753 23.585C43.0867 23.5948 43.1023 23.6027 43.1142 23.6124V28.126C43.1142 31.3257 41.6753 34.3989 39.1665 36.5581C36.775 38.6157 33.6761 39.6694 30.4233 39.5264C24.1338 39.2483 19.1853 34.3459 18.9265 28.2709ZM59.1547 64.811H50.2764V57.667C50.2764 57.1147 49.7809 56.667 49.1698 56.667C48.5587 56.667 48.0632 57.1147 48.0632 57.667V64.811H13.9527V57.667C13.9527 57.1147 13.4572 56.667 12.8461 56.667C12.235 56.667 11.7395 57.1147 11.7395 57.667V64.811H2.86118V58.1357C2.86118 50.0962 9.71084 44.5432 20.7718 43.5206L26.4534 51.8535C26.655 52.1494 27.0116 52.3291 27.3958 52.3291C27.3979 52.3291 27.4001 52.3291 27.4017 52.3291C27.7881 52.3271 28.1452 52.1436 28.3441 51.8442L31.0079 47.8378L33.6718 51.8442C33.8707 52.1436 34.2278 52.3271 34.6142 52.3291C34.6158 52.3291 34.618 52.3291 34.6201 52.3291C35.0038 52.3291 35.3609 52.1494 35.5625 51.8535L41.244 43.5207C52.3053 44.5444 59.1547 50.0972 59.1547 58.1357V64.811Z" fill="white"/>
</svg>
