<svg width="62" height="61" viewBox="0 0 62 61" fill="none" xmlns="http://www.w3.org/2000/svg">
<path fill-rule="evenodd" clip-rule="evenodd" d="M44.7127 15.4357L44.21 7.72035C44.2015 7.58609 44.2216 7.45153 44.269 7.32562C44.3164 7.19971 44.3901 7.08533 44.4851 6.99008L51.0338 0.436575C51.1615 0.311466 51.3219 0.224979 51.4966 0.187085C51.6713 0.149191 51.8531 0.161433 52.0211 0.222398C52.1892 0.283363 52.3365 0.39057 52.4463 0.531662C52.556 0.672753 52.6237 0.841984 52.6414 1.01985L53.1156 8.01436C53.2581 8.09366 53.375 8.21215 53.4523 8.35579L60.4468 8.82999C60.6286 8.84219 60.803 8.90649 60.9492 9.0152C61.0954 9.1239 61.2072 9.27242 61.2712 9.44298C61.3352 9.61354 61.3488 9.79894 61.3102 9.97699C61.2717 10.155 61.1826 10.3182 61.0538 10.447L54.5003 17.0005C54.3232 17.1786 54.0828 17.2793 53.8317 17.2803H53.77L46.0547 16.7777L31.6104 31.2219C31.4325 31.3999 31.1911 31.4999 30.9394 31.4999C30.6878 31.4999 30.4464 31.3999 30.2684 31.2219C30.0905 31.044 29.9905 30.8026 29.9905 30.5509C29.9905 30.2993 30.0905 30.0579 30.2684 29.8799L44.7127 15.4357ZM47.8377 14.9852L53.4618 15.355L58.2275 10.5893L52.6035 10.2194L47.8377 14.9852ZM51.2472 8.88216L50.8774 3.25809L46.1353 8.02859L46.4957 13.6527L51.2472 8.88216ZM56.6106 16.9319C56.6928 16.8382 56.7927 16.7617 56.9045 16.7066C57.016 16.6478 57.1382 16.6118 57.2638 16.6007C57.3894 16.5896 57.516 16.6037 57.6361 16.6421C57.7562 16.6805 57.8674 16.7425 57.9633 16.8244C58.0591 16.9063 58.1377 17.0065 58.1944 17.1192C60.2567 21.288 61.3232 25.8786 61.3099 30.5297C61.3099 36.5322 59.5299 42.3999 56.1951 47.3907C52.8603 52.3816 48.1205 56.2715 42.5749 58.5686C37.0293 60.8656 30.9271 61.4666 25.04 60.2956C19.1528 59.1246 13.7451 56.2341 9.50075 51.9897C5.25635 47.7453 2.36588 42.3376 1.19486 36.4505C0.023831 30.5634 0.624844 24.4612 2.92189 18.9156C5.21895 13.37 9.10886 8.63014 14.0997 5.29534C19.0906 1.96054 24.9583 0.1806 30.9608 0.1806C35.5636 0.174991 40.1062 1.22628 44.2385 3.25345C44.4149 3.38679 44.5391 3.57757 44.5898 3.7928C44.6404 4.00803 44.6142 4.23419 44.5158 4.43218C44.4174 4.63017 44.2529 4.78755 44.0507 4.8771C43.8485 4.96666 43.6214 4.98277 43.4087 4.92264C39.5318 3.03419 35.2731 2.06079 30.9608 2.07742C25.3335 2.07742 19.8325 3.74611 15.1536 6.87249C10.4746 9.99887 6.82781 14.4425 4.67433 19.6415C2.52084 24.8404 1.95739 30.5612 3.05523 36.0804C4.15307 41.5996 6.86288 46.6694 10.842 50.6485C14.8211 54.6276 19.8908 57.3374 25.41 58.4353C30.9292 59.5331 36.65 58.9696 41.849 56.8162C47.048 54.6627 51.4916 51.0159 54.618 46.3369C57.7444 41.658 59.4131 36.157 59.4131 30.5297C59.4162 26.1746 58.4099 21.8781 56.473 17.9775C56.4178 17.8657 56.3852 17.7442 56.377 17.6198C56.3688 17.4954 56.3852 17.3706 56.4253 17.2526C56.4654 17.1346 56.5283 17.0256 56.6106 16.9319ZM41.8345 14.7653C41.8878 15.0106 41.8417 15.2671 41.7063 15.4785C41.5696 15.6848 41.3578 15.8295 41.1159 15.8818C40.874 15.934 40.6213 15.8897 40.4117 15.7583C36.7646 13.4219 32.3823 12.5171 28.1081 13.218C23.834 13.9189 19.9701 16.1759 17.2602 19.5547C14.5503 22.9335 13.1859 27.1951 13.4296 31.5195C13.6733 35.8439 15.5078 39.9253 18.5802 42.9782C21.6525 46.0311 25.7455 47.8398 30.0713 48.056C34.3972 48.2723 38.6501 46.8809 42.0116 44.1496C45.3731 41.4183 47.6056 37.5402 48.2793 33.2617C48.9531 28.9832 48.0205 24.6067 45.6611 20.9745C45.5764 20.8719 45.5143 20.7525 45.4787 20.6243C45.4432 20.4961 45.435 20.3618 45.4548 20.2302C45.4745 20.0986 45.5217 19.9726 45.5933 19.8605C45.665 19.7483 45.7594 19.6525 45.8705 19.5792C45.9815 19.506 46.1068 19.4569 46.2381 19.4352C46.3694 19.4135 46.5037 19.4197 46.6325 19.4533C46.7612 19.487 46.8815 19.5473 46.9853 19.6305C47.0892 19.7137 47.1745 19.8177 47.2355 19.936C49.8552 23.958 50.8946 28.807 50.1534 33.5495C49.4122 38.2919 46.9429 42.5925 43.2209 45.6234C39.4988 48.6543 34.7872 50.2013 29.9929 49.9664C25.1987 49.7316 20.6607 47.7315 17.2528 44.3513C13.8448 40.9712 11.8076 36.4498 11.5335 31.6576C11.2594 26.8654 12.7677 22.1412 15.768 18.3945C18.7684 14.6478 23.0486 12.1433 27.7848 11.3633C32.521 10.5834 37.3784 11.5829 41.4217 14.1697C41.6327 14.3057 41.7812 14.5199 41.8345 14.7653ZM30.9608 23.4783C31.8348 23.4765 32.7015 23.6373 33.5167 23.9525C33.7513 24.0437 34.0125 24.038 34.2428 23.9366C34.4731 23.8352 34.6537 23.6465 34.7449 23.4119C34.8361 23.1774 34.8304 22.9162 34.729 22.6859C34.6276 22.4555 34.4389 22.2749 34.2043 22.1837C32.2855 21.4316 30.1661 21.3638 28.2031 21.9917C26.2401 22.6196 24.5535 23.9048 23.4274 25.6309C22.3012 27.357 21.8044 29.4185 22.0206 31.4681C22.2367 33.5177 23.1527 35.4302 24.6141 36.8834C26.0755 38.3366 27.9931 39.2417 30.0439 39.4463C32.0947 39.6509 34.1534 39.1424 35.8731 38.0066C37.5928 36.8707 38.8685 35.1769 39.4853 33.2104C40.1021 31.2439 40.0223 29.1249 39.2594 27.2103C39.2126 27.0948 39.1436 26.9896 39.0563 26.9008C38.9689 26.8119 38.8649 26.7411 38.7502 26.6925C38.6355 26.6438 38.5123 26.6182 38.3877 26.6172C38.2632 26.6161 38.1396 26.6396 38.024 26.6863C37.9085 26.733 37.8033 26.802 37.7145 26.8894C37.6256 26.9767 37.5549 27.0807 37.5062 27.1954C37.4576 27.3102 37.432 27.4333 37.4309 27.5579C37.4299 27.6825 37.4534 27.8061 37.5001 27.9216C38.0638 29.3284 38.1609 30.8791 37.7771 32.3453C37.3933 33.8114 36.5488 35.1156 35.368 36.0657C34.1872 37.0158 32.7325 37.5616 31.2182 37.6228C29.7038 37.6839 28.2099 37.2572 26.9563 36.4054C25.7027 35.5537 24.7558 34.3219 24.255 32.8914C23.7541 31.461 23.7259 29.9076 24.1743 28.4599C24.6228 27.0122 25.5243 25.7467 26.746 24.8499C27.9678 23.9531 29.4452 23.4723 30.9608 23.4783Z" fill="white"/>
</svg>
