<svg width="61" height="71" viewBox="0 0 61 71" fill="none" xmlns="http://www.w3.org/2000/svg">
<path fill-rule="evenodd" clip-rule="evenodd" d="M55.0677 14.7272H42.2231V17.0625H55.0677C56.9991 17.0625 58.5708 18.6343 58.5708 20.5656V31.1344C52.5525 31.5629 47.4357 35.2552 44.9718 40.4549C41.7035 40.6885 38.8449 42.4143 37.0817 44.9622C36.1266 44.501 35.2169 42.7121 35.2169 40.4164C35.2169 39.5219 34.9519 38.694 34.514 37.9829C34.9273 37.8031 35.2169 37.3932 35.2169 36.9133V33.4102H40.7798L45.2042 35.623C45.3688 35.7059 45.5487 35.7456 45.7262 35.7456C46.0006 35.7456 46.275 35.6487 46.491 35.4607C46.8483 35.1501 46.9826 34.6573 46.8331 34.2089L44.4977 27.2028C44.4008 26.9097 44.1895 26.6668 43.9127 26.5279L38.9325 24.0383C39.4393 20.6193 39.8877 16.9609 39.8877 14.7272C39.8877 14.5554 39.863 14.3569 39.8384 14.1585L39.8383 14.1583L39.8383 14.1581L39.8383 14.1578L39.8382 14.1575L39.8382 14.1572C39.8307 14.097 39.8232 14.0369 39.8165 13.9775L41.1465 11.3163L43.9127 9.93377C44.3086 9.73643 44.5585 9.33125 44.5585 8.88869C44.5585 8.44613 44.3086 8.04094 43.9127 7.8436L41.1465 6.46106L39.7639 3.69479C39.3692 2.9031 38.0696 2.9031 37.6749 3.69479L36.6112 5.82467C35.1889 3.50096 32.9796 0.714844 30.5462 0.714844C25.9548 0.714844 21.2046 11.1201 21.2046 14.7272C21.2046 16.9609 21.653 20.6193 22.1586 24.0372L17.1784 26.5267C16.9017 26.6656 16.6903 26.9085 16.5934 27.2016L14.258 34.2078C14.1086 34.6562 14.2428 35.1501 14.6002 35.4595C14.8173 35.6487 15.0918 35.7456 15.3662 35.7456C15.5436 35.7456 15.7235 35.7047 15.8881 35.623L20.3125 33.4102H25.8754V36.9133C25.8754 37.3932 26.165 37.8031 26.5783 37.9829C26.1405 38.6929 25.8754 39.5219 25.8754 40.4164C25.8754 42.7121 24.9658 44.501 24.0094 44.9622C22.2462 42.4143 19.3877 40.6885 16.1193 40.4549C13.6555 35.2552 8.53866 31.5629 2.52037 31.1344V20.5656C2.52037 18.6343 4.09209 17.0625 6.02345 17.0625H18.8681V14.7272H6.02462C2.80529 14.7272 0.186157 17.3463 0.186157 20.5656V53.261C0.186157 56.4803 2.80529 59.0995 6.02462 59.0995H21.2046V63.7702H15.3662C12.1468 63.7702 9.52769 66.3894 9.52769 69.6087C9.52769 70.2544 10.0497 70.7764 10.6954 70.7764H50.3969C51.0427 70.7764 51.5646 70.2544 51.5646 69.6087C51.5646 66.3894 48.9455 63.7702 45.7262 63.7702H39.8877V59.0995H55.0677C58.287 59.0995 60.9062 56.4803 60.9062 53.261V20.5656C60.9062 17.3463 58.287 14.7272 55.0677 14.7272ZM42.4368 28.3997L43.7271 32.2729L41.5773 31.1975C41.4162 31.1169 41.2364 31.0748 41.0554 31.0748H37.7823C37.9773 29.9795 38.2623 28.3308 38.56 26.4625L42.4368 28.3997ZM37.6854 8.37724C37.9108 8.26397 38.0953 8.08065 38.2074 7.85528L38.72 6.82888L39.2315 7.85412C39.3447 8.07948 39.528 8.26397 39.7534 8.37607L40.7798 8.88869L39.7546 9.40014C39.5292 9.5134 39.3447 9.69673 39.2326 9.9221L38.72 10.9485L38.2086 9.92326C38.0953 9.6979 37.912 9.51341 37.6866 9.40131L36.6602 8.88869L37.6854 8.37724ZM30.5462 3.05023C31.3986 3.05023 33.017 4.37906 34.7335 7.24108L33.7737 7.721H26.0821C27.544 5.1801 29.3259 3.05023 30.5462 3.05023ZM20.0369 31.0748C19.8559 31.0748 19.6761 31.1169 19.515 31.1975L17.3652 32.2729L18.6555 28.3997L22.5311 26.4625C22.8289 28.3308 23.1138 29.9807 23.3088 31.0748H20.0369ZM23.54 14.7272C23.54 13.5665 24.0841 11.8336 24.8875 10.0564H33.7725L36.2924 11.3152L37.39 13.5116C37.5161 14.0861 37.5523 14.4819 37.5523 14.7272C37.5523 16.9002 37.0817 20.6275 36.5644 24.0687H27.0431V26.4041H36.2013C35.8848 28.3716 35.5883 30.0753 35.4096 31.0748H25.6827C25.1456 28.0657 23.54 18.7417 23.54 14.7272ZM32.8815 33.4102V35.7456H28.2108V33.4102H32.8815ZM30.5462 38.081C31.8341 38.081 32.8815 39.1284 32.8815 40.4164C32.8815 41.4358 31.6928 43.1967 30.5462 44.5325C29.3995 43.1955 28.2108 41.4358 28.2108 40.4164C28.2108 39.1284 29.2582 38.081 30.5462 38.081ZM27.4389 44.3211C28.4093 45.7411 29.5081 46.8679 29.7206 47.0804C29.9483 47.3081 30.2472 47.4225 30.5462 47.4225C30.8451 47.4225 31.144 47.3081 31.3717 47.0804C31.5842 46.8679 32.6842 45.7422 33.6534 44.3211C34.2022 45.5682 35.0137 46.5176 35.9771 47.0197C35.6303 47.8838 35.3921 48.8004 35.2858 49.7579H25.8065C25.7002 48.8004 25.462 47.8826 25.1152 47.0208C26.0786 46.5176 26.8901 45.5682 27.4389 44.3211ZM15.3662 47.4225H17.7015C17.7015 45.8637 17.4692 44.3597 17.0593 42.9304C20.3814 43.6334 22.9573 46.3623 23.4466 49.7579H2.52154V33.4698C9.70285 34.0665 15.3662 40.0894 15.3662 47.4225ZM12.0628 68.441C12.545 67.0818 13.8435 66.1056 15.3662 66.1056H45.7262C47.2488 66.1056 48.5473 67.0818 49.0296 68.441H12.0628ZM37.5523 63.7702H23.54V59.0995H37.5523V63.7702ZM55.0677 56.7641H6.02462C4.09326 56.7641 2.52154 55.1924 2.52154 53.261V52.0933H51.5646V49.7579H37.6457C38.135 46.3623 40.7109 43.6334 44.033 42.9304C43.6231 44.3597 43.3908 45.8637 43.3908 47.4225H45.7262C45.7262 40.0894 51.3895 34.0665 58.5708 33.4698V53.261C58.5708 55.1924 56.9991 56.7641 55.0677 56.7641ZM30.5462 21.7333C33.1221 21.7333 35.2169 19.6385 35.2169 17.0625C35.2169 14.4866 33.1221 12.3918 30.5462 12.3918C27.9702 12.3918 25.8754 14.4866 25.8754 17.0625C25.8754 19.6385 27.9702 21.7333 30.5462 21.7333ZM30.5462 14.7272C31.8341 14.7272 32.8815 15.7746 32.8815 17.0625C32.8815 18.3505 31.8341 19.3979 30.5462 19.3979C29.2582 19.3979 28.2108 18.3505 28.2108 17.0625C28.2108 15.7746 29.2582 14.7272 30.5462 14.7272ZM9.52769 26.4041H14.1985V28.7395H9.52769V26.4041ZM51.5646 26.4041H46.8939V28.7395H51.5646V26.4041ZM9.52769 21.7333H7.19231V24.0687H4.85693V20.5656C4.85693 19.9199 5.37889 19.3979 6.02462 19.3979H9.52769V21.7333ZM4.85693 26.4041V28.7395H7.19231V26.4041H4.85693ZM11.8631 19.3979H14.1985V21.7333H11.8631V19.3979ZM56.2354 20.5656C56.2354 19.9199 55.7134 19.3979 55.0677 19.3979H51.5646V21.7333H53.9V24.0687H56.2354V20.5656ZM53.9 26.4041H56.2354V28.7395H53.9V26.4041ZM49.2292 19.3979H46.8939V21.7333H49.2292V19.3979ZM53.9 49.7579H56.2354V52.0933H53.9V49.7579Z" fill="white"/>
</svg>
