<svg width="616" height="976" viewBox="0 0 616 976" fill="none" xmlns="http://www.w3.org/2000/svg">
<g opacity="0.5" filter="url(#filter0_f_111_2376)">
<circle cx="512.587" cy="487.922" r="381.373" fill="#1A5F7A"/>
</g>
<ellipse opacity="0.36" cx="235.861" cy="380.497" rx="235.17" ry="233.9" fill="white"/>
<g clip-path="url(#clip0_111_2376)">
<g style="mix-blend-mode:multiply" opacity="0.22">
<path d="M549.205 611.882C549.148 612.154 549.078 612.424 548.994 612.689C548.365 614.68 547.006 616.36 545.19 617.391L253.908 785.562C251.433 786.991 248.625 787.742 245.767 787.74C242.91 787.739 240.103 786.984 237.629 785.553L6.08308 651.452C4.12889 650.338 2.61987 648.583 1.81174 646.484C1.67682 646.144 1.56651 645.795 1.48168 645.439C0.905334 643.325 1.05032 641.08 1.89369 639.058C2.73707 637.036 4.23066 635.353 6.13814 634.275L80.6679 591.79L184.309 532.705L296.457 468.771C298.923 467.366 301.714 466.631 304.553 466.639C307.391 466.647 310.178 467.398 312.636 468.817L545.19 602.872C546.729 603.753 547.948 605.101 548.67 606.721C549.392 608.341 549.579 610.148 549.205 611.882Z" fill="#364084"/>
</g>
<path d="M549.556 538.352V519.094L528.157 521.454L312.822 397.325C310.364 395.908 307.578 395.159 304.74 395.152C301.903 395.145 299.113 395.881 296.648 397.286L22.3945 553.631L0.962769 552.92V574.446L1.65859 573.924C1.98446 575.188 2.56077 576.375 3.3534 577.413C4.14603 578.451 5.13887 579.319 6.27313 579.967L237.816 714.063C240.289 715.496 243.096 716.251 245.954 716.253C248.812 716.255 251.62 715.503 254.096 714.074L545.384 545.899C546.704 545.144 547.792 544.041 548.528 542.71C549.263 541.379 549.619 539.871 549.556 538.352Z" fill="#A6CBF3"/>
<path d="M296.648 379.459L6.33178 544.962C4.81811 545.825 3.55881 547.071 2.68093 548.577C1.80306 550.082 1.33767 551.791 1.33172 553.534C1.32578 555.276 1.77948 556.989 2.64706 558.5C3.51464 560.011 4.7654 561.267 6.27314 562.14L237.816 696.237C240.289 697.669 243.096 698.424 245.954 698.426C248.813 698.428 251.621 697.677 254.096 696.248L545.384 528.072C546.658 527.337 547.716 526.278 548.452 525.004C549.187 523.729 549.574 522.284 549.574 520.812C549.573 519.341 549.185 517.895 548.449 516.621C547.712 515.347 546.654 514.29 545.379 513.555L312.822 379.498C310.364 378.081 307.578 377.332 304.74 377.325C301.903 377.318 299.113 378.054 296.648 379.459Z" fill="white"/>
<path d="M549.205 518.347C549.148 518.619 549.078 518.889 548.994 519.154C548.365 521.145 547.006 522.825 545.19 523.856L253.908 692.027C251.433 693.456 248.625 694.207 245.767 694.205C242.91 694.204 240.103 693.449 237.629 692.018L6.08308 557.917C4.12889 556.804 2.61987 555.048 1.81174 552.949C1.67682 552.609 1.56651 552.26 1.48168 551.904C0.905334 549.791 1.05032 547.545 1.89369 545.523C2.73707 543.501 4.23066 541.818 6.13814 540.74L80.6679 498.255L184.309 439.17L296.457 375.236C298.923 373.831 301.714 373.096 304.553 373.104C307.391 373.112 310.177 373.863 312.636 375.282L545.19 509.337C546.729 510.218 547.948 511.566 548.67 513.186C549.392 514.806 549.579 516.614 549.205 518.347Z" fill="#F3F5F9"/>
<g style="mix-blend-mode:multiply" opacity="0.32">
<path d="M199.461 464.184C199.461 466.017 172.055 511.078 172.055 511.078L119.716 526.514L92.6573 513.571L77.5515 506.348L78.5323 503.809L80.6679 498.255L184.31 439.17C184.979 440.205 185.657 441.278 186.335 442.35C189.214 446.869 192.183 451.59 194.576 455.476C197.436 460.16 199.461 463.652 199.461 464.184Z" fill="#0E1B62"/>
</g>
<g style="mix-blend-mode:multiply" opacity="0.32">
<path d="M352.202 454.262C349.668 454.26 347.139 454.472 344.641 454.897C342.106 447.732 331.271 442.346 318.287 442.346C316.946 442.346 315.628 442.405 314.339 442.516L314.197 246.796L314.267 198.413C314.269 196.773 313.839 195.161 313.02 193.739C312.201 192.318 311.022 191.138 309.601 190.317C308.18 189.497 306.569 189.065 304.928 189.066C303.288 189.067 301.677 189.501 300.257 190.323L181.552 259.053C180.136 259.873 178.96 261.051 178.143 262.469C177.325 263.887 176.895 265.495 176.896 267.132L176.963 533.669C176.963 535.305 177.393 536.912 178.21 538.33C179.027 539.747 180.203 540.925 181.619 541.745C183.034 542.564 184.641 542.998 186.277 543.001C187.913 543.004 189.521 542.577 190.94 541.762L309.667 473.652C309.912 473.511 310.139 473.346 310.368 473.185C315.487 474.091 320.722 474.111 325.848 473.244C328.383 480.41 339.218 485.795 352.202 485.795C367.067 485.795 379.118 478.736 379.118 470.029C379.118 461.321 367.067 454.262 352.202 454.262Z" fill="#0E1B62"/>
</g>
<path d="M301.095 454.592C301.095 461.275 310.342 466.692 321.751 466.692C324.503 466.7 327.246 466.37 329.918 465.708C330.4 465.587 330.871 465.455 331.333 465.312C331.55 465.247 331.764 465.179 331.975 465.106C332.239 465.02 332.497 464.928 332.751 464.835C334.238 464.296 335.662 463.598 336.999 462.753C337.064 462.711 337.127 462.671 337.19 462.629C340.433 460.491 342.405 457.676 342.405 454.592V454.587H342.407V449.162H340.212C339.33 448.159 338.313 447.283 337.19 446.56C337.127 446.515 337.064 446.476 336.999 446.433C335.662 445.59 334.237 444.892 332.751 444.352C332.497 444.258 332.239 444.167 331.975 444.08C331.764 444.007 331.55 443.939 331.333 443.874C330.872 443.731 330.4 443.599 329.918 443.478C327.246 442.816 324.503 442.486 321.751 442.495C313.678 442.495 306.685 445.209 303.288 449.162H301.098V454.444C301.095 454.494 301.095 454.545 301.095 454.592Z" fill="#F0792D"/>
<path d="M329.917 442.022V465.709C330.399 465.587 330.871 465.456 331.333 465.314V442.022H329.917Z" fill="white"/>
<path d="M331.975 444.08V465.107C332.239 465.02 332.497 464.929 332.751 464.835C334.237 464.296 335.662 463.598 336.999 462.753C337.064 462.711 337.127 462.671 337.19 462.629V446.56C337.127 446.515 337.064 446.476 336.999 446.434C335.661 445.59 334.237 444.892 332.751 444.352C332.497 444.258 332.239 444.167 331.975 444.08Z" fill="white"/>
<path d="M321.75 462.788C333.157 462.788 342.404 457.371 342.404 450.689C342.404 444.008 333.157 438.591 321.75 438.591C310.343 438.591 301.096 444.008 301.096 450.689C301.096 457.371 310.343 462.788 321.75 462.788Z" fill="white"/>
<path d="M321.75 462.32C333.157 462.32 342.404 456.903 342.404 450.221C342.404 443.54 333.157 438.123 321.75 438.123C310.343 438.123 301.096 443.54 301.096 450.221C301.096 456.903 310.343 462.32 321.75 462.32Z" fill="#FFB240"/>
<path d="M305.13 450.221C305.13 455.839 312.905 460.393 322.495 460.393C332.085 460.393 339.86 455.839 339.86 450.221C339.86 444.603 332.085 440.049 322.495 440.049C312.905 440.049 305.13 444.603 305.13 450.221ZM309.067 450.239C309.067 445.894 315.079 442.373 322.495 442.373C329.911 442.373 335.923 445.894 335.923 450.239C335.923 454.583 329.911 458.104 322.495 458.104C315.079 458.104 309.067 454.583 309.067 450.239Z" fill="#FFD979"/>
<path d="M314.758 448.255L314.887 448.08C315.325 447.524 315.837 447.031 316.41 446.616L314.811 445.688L316.144 444.914L317.724 445.831C318.479 445.476 319.296 445.271 320.129 445.229C320.244 445.224 320.359 445.221 320.472 445.221C322.285 445.221 323.768 445.913 324.25 446.985C324.392 447.309 324.432 447.668 324.366 448.016C324.3 448.363 324.131 448.683 323.88 448.932C323.141 449.778 322.818 450.521 322.971 451.022C323.037 451.186 323.144 451.33 323.282 451.441C323.42 451.551 323.583 451.625 323.757 451.655C324.118 451.75 324.488 451.799 324.861 451.801C327.228 451.801 328.466 449.648 328.478 449.626L328.508 449.572L328.531 449.506L330.33 450.001L330.289 450.146C330.284 450.163 330.279 450.18 330.273 450.197C330.217 450.686 329.97 451.133 329.586 451.441C329.317 451.675 329.032 451.892 328.734 452.089L330.308 453.003L328.959 453.787L327.315 452.833C326.397 453.201 325.418 453.392 324.429 453.395C322.258 453.395 320.487 452.431 320.309 451.152C320.171 450.152 320.697 449.402 321.119 448.799C321.416 448.376 321.672 448.01 321.602 447.698C321.554 447.482 321.348 447.274 320.973 447.062C320.681 446.896 320.35 446.81 320.014 446.811C318.464 446.811 316.938 448.533 316.798 448.696L316.744 448.81L314.933 448.336L314.947 448.305L314.758 448.255Z" fill="#FFD979"/>
<path d="M298.117 449.487C298.117 456.171 307.363 461.587 318.772 461.587C321.525 461.596 324.267 461.265 326.939 460.604C327.421 460.482 327.893 460.35 328.354 460.208C328.571 460.142 328.785 460.074 328.997 460.002C329.26 459.915 329.518 459.824 329.772 459.73C331.259 459.191 332.683 458.493 334.02 457.648C334.086 457.606 334.148 457.566 334.211 457.524C337.454 455.386 339.426 452.571 339.426 449.487V449.483H339.428V444.057H337.233C336.351 443.054 335.334 442.178 334.211 441.455C334.148 441.411 334.086 441.371 334.02 441.329C332.683 440.485 331.258 439.787 329.772 439.247C329.518 439.153 329.26 439.062 328.997 438.975C328.785 438.903 328.571 438.835 328.354 438.769C327.893 438.626 327.421 438.494 326.939 438.373C324.267 437.711 321.525 437.381 318.772 437.39C310.699 437.39 303.706 440.104 300.309 444.057H298.119V449.34C298.117 449.389 298.117 449.44 298.117 449.487Z" fill="#F0792D"/>
<path d="M326.938 436.917V460.604C327.421 460.482 327.893 460.351 328.355 460.209V436.917H326.938Z" fill="white"/>
<path d="M328.996 438.975V460.001C329.26 459.915 329.518 459.823 329.772 459.73C331.259 459.191 332.683 458.493 334.02 457.648C334.085 457.606 334.148 457.566 334.211 457.524V441.455C334.148 441.41 334.085 441.37 334.02 441.328C332.682 440.484 331.258 439.787 329.772 439.247C329.518 439.153 329.26 439.062 328.996 438.975Z" fill="white"/>
<path d="M318.771 457.683C330.178 457.683 339.425 452.267 339.425 445.585C339.425 438.903 330.178 433.486 318.771 433.486C307.364 433.486 298.117 438.903 298.117 445.585C298.117 452.267 307.364 457.683 318.771 457.683Z" fill="white"/>
<path d="M318.771 457.215C330.178 457.215 339.425 451.798 339.425 445.116C339.425 438.435 330.178 433.018 318.771 433.018C307.364 433.018 298.117 438.435 298.117 445.116C298.117 451.798 307.364 457.215 318.771 457.215Z" fill="#FFB240"/>
<path d="M302.152 445.116C302.152 450.734 309.926 455.288 319.517 455.288C329.107 455.288 336.881 450.734 336.881 445.116C336.881 439.498 329.107 434.944 319.517 434.944C309.926 434.944 302.152 439.498 302.152 445.116ZM306.089 445.134C306.089 440.789 312.101 437.268 319.517 437.268C326.933 437.268 332.945 440.789 332.945 445.134C332.945 449.478 326.933 452.999 319.517 452.999C312.101 452.999 306.089 449.478 306.089 445.134Z" fill="#FFD979"/>
<path d="M311.779 443.15L311.908 442.974C312.346 442.419 312.858 441.926 313.431 441.51L311.832 440.582L313.165 439.809L314.745 440.726C315.5 440.37 316.317 440.166 317.15 440.124C317.265 440.118 317.38 440.116 317.493 440.116C319.306 440.116 320.789 440.808 321.271 441.879C321.413 442.204 321.453 442.563 321.387 442.91C321.321 443.258 321.152 443.577 320.901 443.827C320.162 444.673 319.839 445.416 319.992 445.917C320.058 446.081 320.165 446.225 320.303 446.335C320.441 446.446 320.604 446.52 320.778 446.549C321.139 446.644 321.509 446.694 321.882 446.696C324.249 446.696 325.487 444.543 325.499 444.521L325.529 444.467L325.552 444.401L327.351 444.896L327.31 445.041C327.305 445.057 327.3 445.075 327.294 445.092C327.238 445.581 326.991 446.028 326.607 446.336C326.338 446.57 326.053 446.787 325.755 446.984L327.329 447.898L325.98 448.682L324.336 447.728C323.418 448.096 322.439 448.287 321.45 448.29C319.279 448.29 317.508 447.326 317.33 446.047C317.192 445.047 317.718 444.297 318.14 443.694C318.437 443.271 318.693 442.905 318.623 442.593C318.575 442.377 318.369 442.169 317.994 441.957C317.701 441.791 317.371 441.705 317.035 441.706C315.485 441.706 313.959 443.428 313.819 443.59L313.765 443.704L311.954 443.231L311.968 443.2L311.779 443.15Z" fill="#FFD979"/>
<path d="M302.088 443.05C302.088 449.734 311.335 455.15 322.744 455.15C325.496 455.159 328.239 454.828 330.91 454.167C331.392 454.045 331.864 453.913 332.326 453.771C332.542 453.705 332.756 453.637 332.968 453.565C333.231 453.478 333.49 453.387 333.743 453.293C335.23 452.754 336.655 452.056 337.992 451.211C338.057 451.169 338.12 451.129 338.183 451.087C341.426 448.949 343.397 446.134 343.397 443.05V443.046H343.4V437.62H341.205C340.323 436.617 339.306 435.741 338.183 435.018C338.12 434.974 338.057 434.934 337.992 434.892C336.654 434.048 335.23 433.35 333.743 432.81C333.49 432.716 333.231 432.625 332.968 432.538C332.756 432.466 332.542 432.398 332.326 432.332C331.865 432.189 331.393 432.057 330.91 431.936C328.239 431.274 325.496 430.944 322.744 430.953C314.671 430.953 307.678 433.667 304.281 437.62H302.09V442.903C302.088 442.952 302.088 443.003 302.088 443.05Z" fill="#F0792D"/>
<path d="M330.91 430.48V454.167C331.392 454.046 331.864 453.914 332.326 453.772V430.48H330.91Z" fill="white"/>
<path d="M332.968 432.538V453.565C333.231 453.478 333.49 453.387 333.743 453.293C335.23 452.754 336.655 452.056 337.992 451.211C338.057 451.169 338.12 451.129 338.183 451.087V435.018C338.12 434.973 338.057 434.934 337.992 434.892C336.654 434.048 335.23 433.35 333.743 432.81C333.49 432.716 333.231 432.625 332.968 432.538Z" fill="white"/>
<path d="M322.743 451.247C334.15 451.247 343.397 445.83 343.397 439.148C343.397 432.466 334.15 427.049 322.743 427.049C311.336 427.049 302.089 432.466 302.089 439.148C302.089 445.83 311.336 451.247 322.743 451.247Z" fill="white"/>
<path d="M322.743 450.778C334.15 450.778 343.397 445.361 343.397 438.679C343.397 431.998 334.15 426.581 322.743 426.581C311.336 426.581 302.089 431.998 302.089 438.679C302.089 445.361 311.336 450.778 322.743 450.778Z" fill="#FFB240"/>
<path d="M306.124 438.68C306.124 444.297 313.898 448.851 323.488 448.851C333.079 448.851 340.853 444.297 340.853 438.68C340.853 433.062 333.079 428.508 323.488 428.508C313.898 428.508 306.124 433.062 306.124 438.68ZM310.06 438.697C310.06 434.353 316.072 430.831 323.488 430.831C330.904 430.831 336.916 434.353 336.916 438.697C336.916 443.041 330.904 446.563 323.488 446.563C316.072 446.563 310.06 443.041 310.06 438.697Z" fill="#FFD979"/>
<path d="M315.751 436.713L315.88 436.538C316.317 435.982 316.83 435.489 317.403 435.074L315.804 434.146L317.137 433.372L318.717 434.289C319.472 433.934 320.289 433.729 321.122 433.687C321.237 433.682 321.352 433.679 321.465 433.679C323.278 433.679 324.761 434.371 325.243 435.443C325.385 435.767 325.425 436.126 325.359 436.474C325.293 436.821 325.124 437.141 324.873 437.39C324.134 438.237 323.811 438.979 323.964 439.48C324.03 439.644 324.137 439.788 324.275 439.899C324.412 440.009 324.576 440.083 324.75 440.113C325.11 440.208 325.481 440.257 325.854 440.259C328.221 440.259 329.459 438.106 329.471 438.084L329.501 438.03L329.524 437.964L331.323 438.459L331.282 438.604C331.277 438.621 331.272 438.638 331.266 438.655C331.21 439.144 330.963 439.591 330.579 439.899C330.31 440.133 330.025 440.35 329.727 440.547L331.301 441.461L329.952 442.245L328.308 441.291C327.39 441.659 326.411 441.85 325.422 441.853C323.251 441.853 321.48 440.889 321.302 439.61C321.164 438.61 321.69 437.86 322.112 437.257C322.409 436.834 322.665 436.468 322.595 436.156C322.546 435.94 322.34 435.732 321.965 435.52C321.673 435.354 321.343 435.268 321.007 435.269C319.457 435.269 317.931 436.991 317.791 437.154L317.737 437.268L315.926 436.794L315.94 436.763L315.751 436.713Z" fill="#FFD979"/>
<path d="M297.786 436.614C297.786 443.297 307.032 448.713 318.441 448.713C321.193 448.722 323.936 448.392 326.608 447.73C327.09 447.608 327.562 447.476 328.023 447.334C328.24 447.268 328.454 447.201 328.666 447.128C328.929 447.041 329.187 446.95 329.441 446.856C330.928 446.317 332.352 445.619 333.689 444.775C333.755 444.732 333.817 444.693 333.88 444.65C337.123 442.512 339.095 439.698 339.095 436.614V436.609H339.097V431.183H336.902C336.02 430.18 335.003 429.305 333.88 428.581C333.817 428.537 333.755 428.497 333.689 428.455C332.352 427.611 330.927 426.913 329.441 426.373C329.187 426.279 328.929 426.188 328.666 426.101C328.454 426.029 328.24 425.961 328.023 425.895C327.562 425.753 327.09 425.621 326.608 425.5C323.936 424.838 321.194 424.507 318.441 424.516C310.368 424.516 303.375 427.23 299.978 431.183H297.788V436.466C297.786 436.515 297.786 436.567 297.786 436.614Z" fill="#F0792D"/>
<path d="M326.607 424.043V447.73C327.089 447.609 327.562 447.477 328.023 447.335V424.043H326.607Z" fill="white"/>
<path d="M328.666 426.102V447.128C328.929 447.042 329.187 446.95 329.441 446.857C330.928 446.318 332.352 445.62 333.689 444.775C333.755 444.733 333.817 444.693 333.88 444.651V428.582C333.817 428.537 333.755 428.497 333.689 428.455C332.352 427.611 330.927 426.914 329.441 426.374C329.187 426.28 328.929 426.188 328.666 426.102Z" fill="white"/>
<path d="M318.44 444.81C329.847 444.81 339.094 439.393 339.094 432.711C339.094 426.029 329.847 420.613 318.44 420.613C307.033 420.613 297.786 426.029 297.786 432.711C297.786 439.393 307.033 444.81 318.44 444.81Z" fill="white"/>
<path d="M318.44 444.342C329.847 444.342 339.094 438.925 339.094 432.243C339.094 425.561 329.847 420.144 318.44 420.144C307.033 420.144 297.786 425.561 297.786 432.243C297.786 438.925 307.033 444.342 318.44 444.342Z" fill="#FFB240"/>
<path d="M301.821 432.243C301.821 437.861 309.595 442.415 319.186 442.415C328.776 442.415 336.55 437.861 336.55 432.243C336.55 426.625 328.776 422.071 319.186 422.071C309.595 422.071 301.821 426.625 301.821 432.243ZM305.757 432.26C305.757 427.916 311.769 424.394 319.186 424.394C326.602 424.394 332.614 427.916 332.614 432.26C332.614 436.604 326.602 440.126 319.186 440.126C311.769 440.126 305.757 436.604 305.757 432.26Z" fill="#FFD979"/>
<path d="M311.448 430.277L311.577 430.101C312.015 429.545 312.527 429.053 313.1 428.637L311.501 427.709L312.835 426.935L314.414 427.853C315.169 427.497 315.986 427.292 316.82 427.25C316.934 427.245 317.05 427.242 317.162 427.242C318.976 427.242 320.459 427.935 320.941 429.006C321.082 429.33 321.123 429.69 321.057 430.037C320.991 430.385 320.821 430.704 320.571 430.954C319.831 431.8 319.508 432.542 319.661 433.044C319.727 433.207 319.834 433.351 319.972 433.462C320.11 433.573 320.273 433.646 320.448 433.676C320.808 433.771 321.179 433.82 321.551 433.822C323.919 433.822 325.156 431.669 325.168 431.648L325.198 431.594L325.221 431.528L327.02 432.023L326.979 432.167C326.974 432.184 326.969 432.201 326.963 432.218C326.907 432.707 326.661 433.155 326.277 433.462C326.007 433.697 325.722 433.913 325.424 434.11L326.998 435.025L325.649 435.809L324.006 434.854C323.088 435.223 322.108 435.413 321.119 435.417C318.948 435.417 317.177 434.452 317 433.173C316.861 432.173 317.387 431.423 317.81 430.821C318.106 430.397 318.363 430.032 318.292 429.72C318.244 429.503 318.038 429.295 317.663 429.084C317.371 428.918 317.04 428.831 316.705 428.832C315.155 428.832 313.628 430.555 313.488 430.717L313.434 430.831L311.623 430.357L311.637 430.327L311.448 430.277Z" fill="#FFD979"/>
<path d="M301.757 429.289C301.757 435.972 311.004 441.389 322.413 441.389C325.165 441.397 327.908 441.067 330.579 440.405C331.061 440.284 331.533 440.152 331.995 440.009C332.211 439.944 332.426 439.876 332.637 439.803C332.9 439.717 333.159 439.625 333.413 439.532C334.899 438.993 336.324 438.295 337.661 437.45C337.726 437.408 337.789 437.368 337.852 437.326C341.095 435.188 343.067 432.373 343.067 429.289V429.284H343.069V423.859H340.874C339.992 422.856 338.975 421.98 337.852 421.257C337.789 421.212 337.726 421.173 337.661 421.13C336.323 420.287 334.899 419.589 333.413 419.049C333.159 418.955 332.9 418.864 332.637 418.777C332.426 418.704 332.211 418.636 331.995 418.571C331.534 418.428 331.062 418.296 330.579 418.175C327.908 417.513 325.165 417.183 322.413 417.192C314.34 417.192 307.347 419.906 303.95 423.859H301.76V429.142C301.757 429.191 301.757 429.242 301.757 429.289Z" fill="#F0792D"/>
<path d="M330.579 416.719V440.406C331.061 440.284 331.533 440.153 331.995 440.011V416.719L330.579 416.719Z" fill="white"/>
<path d="M332.637 418.777V439.803C332.901 439.717 333.159 439.625 333.413 439.532C334.9 438.993 336.324 438.295 337.661 437.45C337.726 437.408 337.789 437.368 337.852 437.326V421.257C337.789 421.212 337.726 421.172 337.661 421.13C336.323 420.286 334.899 419.589 333.413 419.049C333.159 418.955 332.901 418.864 332.637 418.777Z" fill="white"/>
<path d="M322.412 437.485C333.818 437.485 343.066 432.068 343.066 425.386C343.066 418.705 333.818 413.288 322.412 413.288C311.005 413.288 301.758 418.705 301.758 425.386C301.758 432.068 311.005 437.485 322.412 437.485Z" fill="white"/>
<path d="M322.412 437.017C333.818 437.017 343.066 431.6 343.066 424.918C343.066 418.237 333.818 412.82 322.412 412.82C311.005 412.82 301.758 418.237 301.758 424.918C301.758 431.6 311.005 437.017 322.412 437.017Z" fill="#FFB240"/>
<path d="M305.792 424.918C305.792 430.536 313.567 435.09 323.157 435.09C332.747 435.09 340.522 430.536 340.522 424.918C340.522 419.3 332.747 414.746 323.157 414.746C313.567 414.746 305.792 419.3 305.792 424.918ZM309.729 424.935C309.729 420.591 315.741 417.069 323.157 417.069C330.573 417.069 336.585 420.591 336.585 424.935C336.585 429.28 330.573 432.801 323.157 432.801C315.741 432.801 309.729 429.28 309.729 424.935Z" fill="#FFD979"/>
<path d="M315.419 422.952L315.548 422.777C315.986 422.221 316.499 421.728 317.072 421.313L315.472 420.385L316.806 419.611L318.385 420.528C319.14 420.173 319.958 419.968 320.791 419.926C320.906 419.921 321.021 419.918 321.134 419.918C322.947 419.918 324.43 420.61 324.912 421.682C325.054 422.006 325.094 422.365 325.028 422.713C324.962 423.06 324.793 423.38 324.542 423.629C323.803 424.476 323.48 425.218 323.632 425.719C323.699 425.883 323.806 426.027 323.944 426.138C324.081 426.248 324.245 426.322 324.419 426.352C324.779 426.447 325.15 426.496 325.523 426.498C327.89 426.498 329.127 424.345 329.139 424.323L329.17 424.269L329.193 424.203L330.992 424.699L330.95 424.843C330.946 424.86 330.94 424.877 330.935 424.894C330.879 425.383 330.632 425.83 330.248 426.138C329.979 426.372 329.694 426.589 329.396 426.786L330.97 427.7L329.62 428.484L327.977 427.53C327.059 427.898 326.08 428.089 325.091 428.092C322.92 428.092 321.149 427.128 320.971 425.849C320.832 424.849 321.358 424.099 321.781 423.496C322.078 423.073 322.334 422.707 322.264 422.395C322.215 422.179 322.009 421.971 321.634 421.759C321.342 421.593 321.012 421.507 320.676 421.508C319.126 421.508 317.6 423.23 317.459 423.393L317.406 423.507L315.595 423.033L315.608 423.002L315.419 422.952Z" fill="#FFD979"/>
<path d="M298.779 424.184C298.779 430.867 308.025 436.284 319.434 436.284C322.187 436.293 324.929 435.962 327.601 435.3C328.083 435.179 328.555 435.047 329.016 434.905C329.233 434.839 329.447 434.771 329.659 434.698C329.922 434.612 330.18 434.521 330.434 434.427C331.921 433.888 333.345 433.19 334.682 432.345C334.748 432.303 334.81 432.263 334.873 432.221C338.116 430.083 340.088 427.268 340.088 424.184V424.179H340.09V418.754H337.895C337.013 417.751 335.996 416.875 334.873 416.152C334.81 416.107 334.748 416.068 334.682 416.025C333.345 415.182 331.92 414.484 330.434 413.944C330.18 413.85 329.922 413.759 329.659 413.672C329.447 413.599 329.233 413.531 329.016 413.466C328.555 413.323 328.083 413.191 327.601 413.07C324.929 412.408 322.187 412.078 319.434 412.087C311.361 412.087 304.368 414.801 300.971 418.754H298.781V424.037C298.779 424.086 298.779 424.137 298.779 424.184Z" fill="#F0792D"/>
<path d="M327.6 411.614V435.301C328.082 435.179 328.554 435.048 329.016 434.906V411.614H327.6Z" fill="white"/>
<path d="M329.659 413.672V434.698C329.922 434.612 330.18 434.52 330.434 434.427C331.921 433.888 333.345 433.19 334.682 432.345C334.748 432.303 334.81 432.263 334.873 432.221V416.152C334.81 416.107 334.748 416.067 334.682 416.025C333.345 415.182 331.92 414.484 330.434 413.944C330.18 413.85 329.922 413.759 329.659 413.672Z" fill="white"/>
<path d="M319.433 432.38C330.84 432.38 340.087 426.964 340.087 420.282C340.087 413.6 330.84 408.183 319.433 408.183C308.026 408.183 298.779 413.6 298.779 420.282C298.779 426.964 308.026 432.38 319.433 432.38Z" fill="white"/>
<path d="M319.433 431.912C330.84 431.912 340.087 426.495 340.087 419.813C340.087 413.131 330.84 407.714 319.433 407.714C308.026 407.714 298.779 413.131 298.779 419.813C298.779 426.495 308.026 431.912 319.433 431.912Z" fill="#FFB240"/>
<path d="M302.814 419.813C302.814 425.431 310.588 429.985 320.178 429.985C329.769 429.985 337.543 425.431 337.543 419.813C337.543 414.196 329.769 409.641 320.178 409.641C310.588 409.641 302.814 414.195 302.814 419.813ZM306.75 419.831C306.75 415.486 312.762 411.965 320.178 411.965C327.595 411.965 333.606 415.486 333.606 419.831C333.606 424.175 327.595 427.696 320.178 427.696C312.762 427.696 306.75 424.175 306.75 419.831Z" fill="#FFD979"/>
<path d="M312.441 417.847L312.57 417.671C313.008 417.116 313.52 416.623 314.093 416.208L312.494 415.279L313.827 414.506L315.407 415.423C316.162 415.067 316.979 414.863 317.812 414.821C317.927 414.816 318.042 414.813 318.155 414.813C319.968 414.813 321.451 415.505 321.933 416.576C322.075 416.901 322.115 417.26 322.049 417.607C321.983 417.955 321.814 418.274 321.563 418.524C320.824 419.37 320.501 420.113 320.654 420.614C320.72 420.778 320.827 420.922 320.965 421.032C321.103 421.143 321.266 421.217 321.44 421.246C321.801 421.341 322.171 421.391 322.544 421.393C324.911 421.393 326.149 419.24 326.161 419.218L326.191 419.164L326.214 419.098L328.013 419.593L327.972 419.738C327.967 419.754 327.962 419.772 327.956 419.789C327.9 420.278 327.653 420.725 327.269 421.033C327 421.267 326.715 421.484 326.417 421.681L327.991 422.595L326.642 423.379L324.998 422.425C324.08 422.793 323.101 422.984 322.112 422.987C319.941 422.987 318.17 422.023 317.992 420.744C317.854 419.744 318.38 418.994 318.802 418.391C319.099 417.968 319.355 417.602 319.285 417.29C319.236 417.074 319.031 416.866 318.655 416.654C318.363 416.488 318.033 416.402 317.697 416.403C316.147 416.403 314.621 418.125 314.481 418.287L314.427 418.401L312.616 417.928L312.63 417.897L312.441 417.847Z" fill="#FFD979"/>
<path d="M341.436 478.201C341.436 484.885 350.683 490.301 362.092 490.301C364.844 490.31 367.587 489.979 370.258 489.317C370.74 489.196 371.212 489.064 371.674 488.922C371.89 488.856 372.104 488.788 372.316 488.716C372.579 488.629 372.838 488.538 373.091 488.444C374.578 487.905 376.003 487.207 377.34 486.362C377.405 486.32 377.468 486.28 377.531 486.238C380.774 484.1 382.745 481.285 382.745 478.201V478.196H382.748V472.771H380.552C379.67 471.768 378.654 470.892 377.531 470.169C377.468 470.124 377.405 470.085 377.34 470.043C376.002 469.199 374.578 468.501 373.091 467.961C372.838 467.867 372.579 467.776 372.316 467.689C372.104 467.616 371.89 467.549 371.674 467.483C371.213 467.34 370.741 467.208 370.258 467.087C367.587 466.425 364.844 466.095 362.092 466.104C354.019 466.104 347.025 468.818 343.629 472.771H341.438V478.054C341.436 478.103 341.436 478.154 341.436 478.201Z" fill="#F0792D"/>
<path d="M370.258 465.631V489.318C370.74 489.196 371.212 489.064 371.674 488.922V465.631H370.258Z" fill="white"/>
<path d="M372.316 467.689V488.716C372.579 488.629 372.837 488.538 373.091 488.444C374.578 487.905 376.002 487.207 377.34 486.362C377.405 486.32 377.468 486.28 377.531 486.238V470.169C377.468 470.124 377.405 470.085 377.34 470.042C376.002 469.199 374.578 468.501 373.091 467.961C372.837 467.867 372.579 467.776 372.316 467.689Z" fill="white"/>
<path d="M362.09 486.397C373.497 486.397 382.744 480.98 382.744 474.299C382.744 467.617 373.497 462.2 362.09 462.2C350.683 462.2 341.436 467.617 341.436 474.299C341.436 480.98 350.683 486.397 362.09 486.397Z" fill="white"/>
<path d="M362.09 485.929C373.497 485.929 382.744 480.512 382.744 473.83C382.744 467.148 373.497 461.731 362.09 461.731C350.683 461.731 341.436 467.148 341.436 473.83C341.436 480.512 350.683 485.929 362.09 485.929Z" fill="#FFB240"/>
<path d="M345.471 473.83C345.471 479.448 353.245 484.002 362.835 484.002C372.426 484.002 380.2 479.448 380.2 473.83C380.2 468.212 372.426 463.658 362.835 463.658C353.245 463.658 345.471 468.212 345.471 473.83ZM349.407 473.847C349.407 469.503 355.419 465.981 362.835 465.981C370.252 465.981 376.263 469.503 376.263 473.847C376.263 478.191 370.252 481.713 362.835 481.713C355.419 481.713 349.407 478.191 349.407 473.847Z" fill="#FFD979"/>
<path d="M355.098 471.864L355.227 471.688C355.665 471.132 356.178 470.64 356.75 470.224L355.151 469.296L356.485 468.522L358.064 469.44C358.819 469.084 359.636 468.879 360.47 468.837C360.584 468.832 360.7 468.829 360.813 468.829C362.626 468.829 364.109 469.522 364.591 470.593C364.732 470.917 364.773 471.277 364.707 471.624C364.641 471.972 364.471 472.291 364.221 472.541C363.481 473.387 363.158 474.129 363.311 474.631C363.378 474.794 363.485 474.938 363.622 475.049C363.76 475.16 363.924 475.233 364.098 475.263C364.458 475.358 364.829 475.407 365.201 475.409C367.569 475.409 368.806 473.256 368.818 473.235L368.848 473.181L368.871 473.115L370.67 473.61L370.629 473.754C370.624 473.771 370.619 473.788 370.613 473.805C370.558 474.294 370.311 474.741 369.927 475.049C369.657 475.284 369.373 475.5 369.075 475.697L370.648 476.612L369.299 477.395L367.656 476.441C366.738 476.809 365.758 477 364.769 477.004C362.598 477.004 360.827 476.039 360.65 474.76C360.511 473.76 361.037 473.01 361.46 472.407C361.757 471.984 362.013 471.619 361.942 471.306C361.894 471.09 361.688 470.882 361.313 470.671C361.021 470.505 360.691 470.418 360.355 470.419C358.805 470.419 357.278 472.141 357.138 472.304L357.084 472.418L355.273 471.944L355.287 471.914L355.098 471.864Z" fill="#FFD979"/>
<path d="M337.133 471.764C337.133 478.448 346.38 483.864 357.789 483.864C360.541 483.873 363.284 483.542 365.956 482.881C366.437 482.759 366.909 482.627 367.371 482.485C367.587 482.419 367.802 482.351 368.013 482.279C368.277 482.192 368.535 482.101 368.789 482.007C370.276 481.468 371.7 480.77 373.037 479.925C373.102 479.883 373.165 479.843 373.228 479.801C376.471 477.663 378.443 474.848 378.443 471.764V471.76H378.445V466.334H376.25C375.368 465.331 374.351 464.455 373.228 463.732C373.165 463.688 373.102 463.648 373.037 463.606C371.699 462.762 370.275 462.064 368.789 461.524C368.535 461.43 368.277 461.339 368.013 461.252C367.802 461.18 367.587 461.112 367.371 461.046C366.91 460.903 366.438 460.771 365.956 460.65C363.284 459.988 360.541 459.658 357.789 459.667C349.716 459.667 342.723 462.381 339.326 466.334H337.136V471.617C337.133 471.666 337.133 471.718 337.133 471.764Z" fill="#F0792D"/>
<path d="M365.955 459.194V482.881C366.437 482.76 366.909 482.628 367.371 482.486V459.194H365.955Z" fill="white"/>
<path d="M368.013 461.252V482.279C368.276 482.192 368.535 482.101 368.789 482.007C370.275 481.468 371.7 480.77 373.037 479.925C373.102 479.883 373.165 479.843 373.228 479.801V463.732C373.165 463.688 373.102 463.648 373.037 463.606C371.699 462.762 370.275 462.064 368.789 461.524C368.535 461.43 368.276 461.339 368.013 461.252Z" fill="white"/>
<path d="M357.788 479.96C369.195 479.96 378.442 474.544 378.442 467.862C378.442 461.18 369.195 455.763 357.788 455.763C346.381 455.763 337.134 461.18 337.134 467.862C337.134 474.544 346.381 479.96 357.788 479.96Z" fill="white"/>
<path d="M357.788 479.492C369.195 479.492 378.442 474.075 378.442 467.393C378.442 460.711 369.195 455.294 357.788 455.294C346.381 455.294 337.134 460.711 337.134 467.393C337.134 474.075 346.381 479.492 357.788 479.492Z" fill="#FFB240"/>
<path d="M341.168 467.393C341.168 473.011 348.943 477.565 358.533 477.565C368.123 477.565 375.898 473.011 375.898 467.393C375.898 461.776 368.123 457.221 358.533 457.221C348.943 457.221 341.168 461.776 341.168 467.393ZM345.105 467.411C345.105 463.066 351.117 459.545 358.533 459.545C365.949 459.545 371.961 463.066 371.961 467.411C371.961 471.755 365.949 475.277 358.533 475.277C351.117 475.277 345.105 471.755 345.105 467.411Z" fill="#FFD979"/>
<path d="M350.796 465.427L350.924 465.252C351.362 464.696 351.875 464.203 352.448 463.788L350.849 462.859L352.182 462.086L353.762 463.003C354.516 462.647 355.334 462.443 356.167 462.401C356.282 462.396 356.397 462.393 356.51 462.393C358.323 462.393 359.806 463.085 360.288 464.157C360.43 464.481 360.47 464.84 360.404 465.188C360.338 465.535 360.169 465.855 359.918 466.104C359.179 466.95 358.856 467.693 359.009 468.194C359.075 468.358 359.182 468.502 359.32 468.613C359.457 468.723 359.621 468.797 359.795 468.826C360.155 468.922 360.526 468.971 360.899 468.973C363.266 468.973 364.503 466.82 364.516 466.798L364.546 466.744L364.569 466.678L366.368 467.173L366.326 467.318C366.322 467.335 366.316 467.352 366.311 467.369C366.255 467.858 366.008 468.305 365.624 468.613C365.355 468.847 365.07 469.064 364.772 469.261L366.346 470.175L364.996 470.959L363.353 470.005C362.435 470.373 361.456 470.564 360.467 470.567C358.296 470.567 356.525 469.603 356.347 468.324C356.209 467.324 356.735 466.574 357.157 465.971C357.454 465.548 357.71 465.182 357.64 464.87C357.591 464.654 357.385 464.446 357.01 464.234C356.718 464.068 356.388 463.982 356.052 463.983C354.502 463.983 352.976 465.705 352.835 465.867L352.782 465.981L350.971 465.508L350.984 465.477L350.796 465.427Z" fill="#FFD979"/>
<path d="M341.105 464.44C341.105 471.123 350.352 476.54 361.761 476.54C364.513 476.548 367.256 476.218 369.927 475.556C370.409 475.434 370.881 475.303 371.342 475.16C371.559 475.095 371.773 475.027 371.985 474.954C372.248 474.868 372.506 474.776 372.76 474.683C374.247 474.144 375.672 473.446 377.009 472.601C377.074 472.559 377.137 472.519 377.2 472.477C380.442 470.339 382.414 467.524 382.414 464.44V464.435H382.416V459.009H380.221C379.339 458.007 378.322 457.131 377.2 456.408C377.137 456.363 377.074 456.323 377.009 456.281C375.671 455.438 374.247 454.74 372.76 454.2C372.506 454.106 372.248 454.015 371.985 453.928C371.773 453.855 371.559 453.787 371.342 453.722C370.882 453.579 370.41 453.447 369.927 453.326C367.256 452.664 364.513 452.334 361.761 452.342C353.687 452.342 346.694 455.057 343.298 459.009H341.107V464.292C341.105 464.342 341.105 464.393 341.105 464.44Z" fill="#F0792D"/>
<path d="M369.927 451.869V475.556C370.409 475.435 370.881 475.303 371.343 475.161V451.869H369.927Z" fill="white"/>
<path d="M371.985 453.927V474.954C372.248 474.867 372.506 474.776 372.76 474.682C374.247 474.143 375.671 473.445 377.009 472.601C377.074 472.558 377.137 472.519 377.2 472.476V456.407C377.137 456.363 377.074 456.323 377.009 456.281C375.671 455.437 374.247 454.739 372.76 454.199C372.506 454.105 372.248 454.014 371.985 453.927Z" fill="white"/>
<path d="M361.759 472.635C373.166 472.635 382.413 467.219 382.413 460.537C382.413 453.855 373.166 448.438 361.759 448.438C350.352 448.438 341.105 453.855 341.105 460.537C341.105 467.219 350.352 472.635 361.759 472.635Z" fill="white"/>
<path d="M361.759 472.167C373.166 472.167 382.413 466.751 382.413 460.069C382.413 453.387 373.166 447.97 361.759 447.97C350.352 447.97 341.105 453.387 341.105 460.069C341.105 466.751 350.352 472.167 361.759 472.167Z" fill="#FFB240"/>
<path d="M345.14 460.069C345.14 465.687 352.915 470.241 362.505 470.241C372.095 470.241 379.87 465.687 379.87 460.069C379.87 454.451 372.095 449.897 362.505 449.897C352.915 449.897 345.14 454.451 345.14 460.069ZM349.077 460.086C349.077 455.742 355.089 452.22 362.505 452.22C369.921 452.22 375.933 455.742 375.933 460.086C375.933 464.43 369.921 467.952 362.505 467.952C355.089 467.952 349.077 464.43 349.077 460.086Z" fill="#FFD979"/>
<path d="M354.767 458.102L354.896 457.927C355.334 457.371 355.847 456.878 356.42 456.463L354.82 455.535L356.154 454.761L357.733 455.679C358.488 455.323 359.305 455.118 360.139 455.076C360.254 455.071 360.369 455.068 360.482 455.068C362.295 455.068 363.778 455.76 364.26 456.832C364.401 457.156 364.442 457.515 364.376 457.863C364.31 458.21 364.14 458.53 363.89 458.779C363.151 459.626 362.828 460.368 362.98 460.869C363.047 461.033 363.154 461.177 363.291 461.288C363.429 461.398 363.593 461.472 363.767 461.502C364.127 461.597 364.498 461.646 364.871 461.648C367.238 461.648 368.475 459.495 368.487 459.473L368.518 459.419L368.541 459.354L370.34 459.849L370.298 459.993C370.294 460.01 370.288 460.027 370.283 460.044C370.227 460.533 369.98 460.98 369.596 461.288C369.326 461.523 369.042 461.739 368.744 461.936L370.318 462.85L368.968 463.634L367.325 462.68C366.407 463.048 365.428 463.239 364.438 463.243C362.267 463.243 360.496 462.278 360.319 460.999C360.18 459.999 360.706 459.249 361.129 458.646C361.426 458.223 361.682 457.858 361.612 457.545C361.563 457.329 361.357 457.121 360.982 456.909C360.69 456.744 360.36 456.657 360.024 456.658C358.474 456.658 356.948 458.38 356.807 458.543L356.753 458.657L354.943 458.183L354.956 458.153L354.767 458.102Z" fill="#FFD979"/>
<path d="M338.126 459.335C338.126 466.018 347.373 471.434 358.782 471.434C361.534 471.443 364.277 471.113 366.948 470.451C367.43 470.329 367.902 470.197 368.364 470.055C368.58 469.99 368.794 469.922 369.006 469.849C369.269 469.762 369.528 469.671 369.781 469.578C371.268 469.038 372.693 468.34 374.03 467.496C374.095 467.454 374.158 467.414 374.221 467.372C377.463 465.234 379.435 462.419 379.435 459.335V459.33H379.438V453.904H377.242C376.36 452.901 375.343 452.026 374.221 451.303C374.158 451.258 374.095 451.218 374.03 451.176C372.692 450.332 371.268 449.634 369.781 449.094C369.528 449.001 369.269 448.909 369.006 448.823C368.794 448.75 368.58 448.682 368.364 448.617C367.903 448.474 367.431 448.342 366.948 448.221C364.277 447.559 361.534 447.228 358.782 447.237C350.709 447.237 343.715 449.951 340.319 453.904H338.128V459.187C338.126 459.236 338.126 459.288 338.126 459.335Z" fill="#F0792D"/>
<path d="M366.948 446.764V470.451C367.43 470.33 367.902 470.198 368.364 470.056V446.764H366.948Z" fill="white"/>
<path d="M369.006 448.823V469.849C369.269 469.762 369.528 469.671 369.781 469.577C371.268 469.038 372.693 468.34 374.03 467.496C374.095 467.453 374.158 467.414 374.221 467.371V451.302C374.158 451.258 374.095 451.218 374.03 451.176C372.692 450.332 371.268 449.634 369.781 449.094C369.528 449.001 369.269 448.909 369.006 448.823Z" fill="white"/>
<path d="M358.781 467.531C370.187 467.531 379.435 462.114 379.435 455.432C379.435 448.75 370.187 443.333 358.781 443.333C347.374 443.333 338.127 448.75 338.127 455.432C338.127 462.114 347.374 467.531 358.781 467.531Z" fill="white"/>
<path d="M358.781 467.062C370.187 467.062 379.435 461.645 379.435 454.964C379.435 448.282 370.187 442.865 358.781 442.865C347.374 442.865 338.127 448.282 338.127 454.964C338.127 461.645 347.374 467.062 358.781 467.062Z" fill="#FFB240"/>
<path d="M342.161 454.963C342.161 460.581 349.936 465.135 359.526 465.135C369.116 465.135 376.891 460.581 376.891 454.963C376.891 449.346 369.116 444.792 359.526 444.792C349.936 444.792 342.161 449.346 342.161 454.963ZM346.098 454.981C346.098 450.637 352.11 447.115 359.526 447.115C366.942 447.115 372.954 450.637 372.954 454.981C372.954 459.325 366.942 462.847 359.526 462.847C352.11 462.847 346.098 459.325 346.098 454.981Z" fill="#FFD979"/>
<path d="M351.789 452.998L351.917 452.822C352.355 452.266 352.868 451.774 353.441 451.358L351.842 450.43L353.175 449.656L354.755 450.574C355.509 450.218 356.327 450.013 357.16 449.971C357.275 449.966 357.39 449.963 357.503 449.963C359.316 449.963 360.799 450.656 361.281 451.727C361.423 452.051 361.463 452.411 361.397 452.758C361.331 453.106 361.162 453.425 360.911 453.675C360.172 454.521 359.849 455.263 360.002 455.765C360.068 455.928 360.175 456.072 360.313 456.183C360.45 456.294 360.614 456.367 360.788 456.397C361.148 456.492 361.519 456.541 361.892 456.543C364.259 456.543 365.496 454.39 365.509 454.369L365.539 454.315L365.562 454.249L367.361 454.744L367.319 454.888C367.315 454.905 367.309 454.922 367.304 454.939C367.248 455.428 367.001 455.875 366.617 456.183C366.348 456.418 366.063 456.634 365.765 456.831L367.339 457.746L365.99 458.529L364.346 457.575C363.428 457.944 362.449 458.134 361.46 458.138C359.289 458.138 357.518 457.173 357.34 455.894C357.202 454.894 357.728 454.144 358.15 453.541C358.447 453.118 358.703 452.753 358.633 452.441C358.584 452.224 358.378 452.016 358.003 451.805C357.711 451.639 357.381 451.552 357.045 451.553C355.495 451.553 353.969 453.275 353.828 453.438L353.775 453.552L351.964 453.078L351.977 453.048L351.789 452.998Z" fill="#FFD979"/>
<path d="M372.55 256.106L322.923 289.191L332.336 294.569L272.509 398.684L302.442 416.802L363.295 312.26L372.55 317.549V256.106Z" fill="black"/>
<path d="M242.575 346.694L273.296 399.472L303.23 417.59L273.296 364.812L242.575 346.694Z" fill="#E15355"/>
<path d="M181.92 452.25L242.575 346.694L273.296 364.812L211.854 470.367L181.92 452.25Z" fill="#469D50"/>
<path d="M181.92 417.59L211.854 470.367L181.92 452.25L151.199 399.472L181.92 417.59Z" fill="#E15355"/>
<path d="M89.7561 505.027L120.478 523.145L181.92 417.59L151.199 399.472L89.7561 505.027Z" fill="#081636"/>
<g style="mix-blend-mode:multiply" opacity="0.32">
<path d="M338.452 609.919C365.775 609.919 387.925 596.944 387.925 580.939C387.925 564.934 365.775 551.959 338.452 551.959C311.13 551.959 288.98 564.934 288.98 580.939C288.98 596.944 311.13 609.919 338.452 609.919Z" fill="#0E1B62"/>
</g>
<path d="M311.895 573.076C311.895 589.085 334.043 602.059 361.371 602.059C367.964 602.08 374.533 601.288 380.932 599.703C382.087 599.411 383.217 599.095 384.323 598.755C384.841 598.598 385.354 598.435 385.862 598.262C386.492 598.054 387.111 597.835 387.718 597.611C391.28 596.32 394.692 594.648 397.895 592.624C398.051 592.523 398.202 592.428 398.352 592.327C406.12 587.206 410.843 580.464 410.843 573.076V573.065H410.848V560.069H405.59C403.477 557.667 401.041 555.569 398.352 553.837C398.202 553.73 398.051 553.635 397.895 553.534C394.691 551.513 391.279 549.841 387.718 548.547C387.111 548.323 386.492 548.104 385.862 547.897C385.354 547.723 384.841 547.56 384.323 547.403C383.219 547.061 382.088 546.745 380.932 546.455C374.534 544.87 367.964 544.078 361.371 544.099C342.034 544.099 325.283 550.6 317.147 560.069H311.9V572.723C311.895 572.841 311.895 572.964 311.895 573.076Z" fill="#F0792D"/>
<path d="M380.931 542.967V599.704C382.086 599.413 383.217 599.098 384.323 598.758V542.967H380.931Z" fill="white"/>
<path d="M385.861 547.896V598.261C386.492 598.054 387.111 597.835 387.718 597.611C391.28 596.319 394.692 594.647 397.895 592.624C398.051 592.523 398.201 592.428 398.352 592.327V553.837C398.201 553.73 398.051 553.635 397.895 553.534C394.69 551.513 391.279 549.841 387.718 548.547C387.111 548.323 386.492 548.104 385.861 547.896Z" fill="white"/>
<path d="M361.368 592.709C388.691 592.709 410.84 579.734 410.84 563.729C410.84 547.724 388.691 534.749 361.368 534.749C334.045 534.749 311.896 547.724 311.896 563.729C311.896 579.734 334.045 592.709 361.368 592.709Z" fill="#FFB240"/>
<path d="M321.56 562.607C321.56 576.063 340.182 586.971 363.154 586.971C386.125 586.971 404.747 576.063 404.747 562.607C404.747 549.15 386.125 538.242 363.154 538.242C340.182 538.242 321.56 549.15 321.56 562.607ZM330.989 562.648C330.989 552.243 345.39 543.807 363.154 543.807C380.917 543.807 395.318 552.243 395.318 562.648C395.318 573.054 380.917 581.489 363.154 581.489C345.39 581.489 330.989 573.054 330.989 562.648Z" fill="#FFD979"/>
<path d="M344.62 557.897L344.928 557.477C345.977 556.146 347.205 554.966 348.577 553.971L344.747 551.747L347.941 549.894L351.724 552.092C353.532 551.24 355.49 550.749 357.486 550.649C357.761 550.636 358.037 550.63 358.307 550.63C362.651 550.63 366.203 552.288 367.357 554.854C368.056 556.408 367.741 558.065 366.471 559.52C364.7 561.546 363.927 563.324 364.292 564.526C364.572 565.442 365.472 565.855 366.176 566.04C367.039 566.268 367.927 566.386 368.82 566.39C374.491 566.39 377.454 561.233 377.483 561.182L377.556 561.052L377.611 560.895L381.92 562.081L381.821 562.426C381.809 562.467 381.797 562.507 381.783 562.549C381.65 563.72 381.059 564.791 380.139 565.528C379.493 566.09 378.811 566.608 378.098 567.08L381.867 569.271L378.635 571.148L374.699 568.863C372.5 569.745 370.154 570.202 367.785 570.21C362.585 570.21 358.343 567.9 357.918 564.836C357.585 562.441 358.845 560.644 359.858 559.2C360.569 558.187 361.182 557.311 361.014 556.563C360.897 556.045 360.404 555.547 359.506 555.04C358.806 554.643 358.015 554.435 357.211 554.438C353.498 554.438 349.842 558.563 349.506 558.952L349.377 559.225L345.04 558.091L345.072 558.018L344.62 557.897Z" fill="#FFD979"/>
<path d="M165.17 258.733L165.226 521.551C165.233 523.593 165.775 525.599 166.799 527.367C167.822 529.134 169.292 530.603 171.06 531.625L181.755 538.163L302.624 460.863L302.468 240.852V236.695L309.26 186.308L295.423 180.643C293.928 180.121 292.338 179.929 290.762 180.079C289.186 180.23 287.662 180.721 286.293 181.517L171.286 248.109C169.575 249.096 168.129 250.484 167.072 252.153C167.044 252.209 167.002 252.252 166.974 252.308C165.787 254.24 165.162 256.466 165.17 258.733Z" fill="#0F1F64"/>
<path d="M166.974 252.308L201.355 267.399L302.468 240.852V236.695L309.26 186.308L295.423 180.643C293.928 180.121 292.338 179.929 290.762 180.079C289.186 180.23 287.662 180.721 286.293 181.517L171.286 248.109C169.575 249.096 168.129 250.484 167.072 252.153C167.044 252.209 167.002 252.252 166.974 252.308Z" fill="#334EBE"/>
<path d="M190.94 538.096L309.666 469.985C311.092 469.167 312.277 467.987 313.1 466.565C313.924 465.142 314.357 463.527 314.355 461.883L314.197 243.13L314.267 194.747C314.269 193.106 313.839 191.494 313.02 190.073C312.201 188.652 311.022 187.471 309.601 186.651C308.18 185.83 306.569 185.399 304.928 185.4C303.288 185.401 301.676 185.834 300.257 186.656L181.552 255.386C180.136 256.206 178.96 257.385 178.143 258.803C177.325 260.221 176.895 261.829 176.896 263.466L176.963 530.002C176.963 531.638 177.393 533.246 178.21 534.663C179.027 536.081 180.203 537.258 181.619 538.078C183.034 538.898 184.641 539.331 186.277 539.334C187.913 539.337 189.521 538.91 190.94 538.096Z" fill="#A6CBF3"/>
<path d="M219.616 256.5L275.949 224.183C276.626 223.795 277.188 223.235 277.579 222.56C277.969 221.885 278.175 221.119 278.174 220.339L278.132 218.052C278.133 217.274 277.929 216.509 277.54 215.834C277.152 215.16 276.592 214.6 275.918 214.211C275.244 213.821 274.479 213.617 273.701 213.617C272.923 213.618 272.158 213.823 271.485 214.213L215.162 246.824C214.489 247.214 213.931 247.773 213.544 248.445C213.156 249.118 212.952 249.881 212.952 250.658L212.984 252.66C212.984 253.436 213.188 254.199 213.576 254.871C213.963 255.544 214.521 256.103 215.193 256.492C215.865 256.881 216.627 257.086 217.403 257.088C218.18 257.089 218.943 256.887 219.616 256.5Z" fill="white"/>
<path d="M308.686 438.716L308.665 438.726L305.591 440.489L304.877 440.898L300.024 443.678L293.854 447.22L293.561 447.388L200.9 500.543L194.462 504.242L182.632 511.031V507.72L182.616 452.76L182.611 439.193V431.79L182.606 418.223L182.595 373.498L182.59 359.946L182.579 323.364V315.893L182.569 286.598L243.883 251.101L250.32 247.376L293.854 222.162L308.623 213.61L308.586 243.242L308.57 250.723L308.539 269.211V269.39L308.534 272.884L308.586 327.467V329.397L308.602 348.452V348.531L308.607 349.816L308.686 438.716Z" fill="#081636"/>
<path d="M308.649 348.452L308.644 348.62V348.63L308.607 349.816L308.586 350.383L305.973 428.936L305.591 440.489L304.877 440.898L300.024 443.678L293.854 447.22L293.561 447.388L200.9 500.543L194.462 504.242L182.632 511.031V507.72L182.616 452.76L182.611 452.776L182.595 452.812L182.59 439.25L182.606 439.209L182.611 439.193L185.261 432.986H191.031L194.709 441.915L196.251 437.923L207.311 409.362H213.087L225.684 432.986L228.49 429.162L231.465 425.112H237.236L239.864 432.986L241.019 428.663L254.564 377.858H260.346L272.418 393.088L274.186 389.667L280.293 377.858H286.069L286.593 382.58L288.115 379.39L302.862 348.441L308.586 348.452H308.649Z" fill="#1A5F7A"/>
<path d="M308.665 438.726L305.591 440.489L304.877 440.898L300.024 443.678L293.855 447.22L293.561 447.388L200.9 500.543L194.462 504.242L182.632 511.031V507.72L182.616 452.76L191.031 432.986L196.251 437.923L200.48 441.915L213.087 409.362L228.49 429.162L231.465 432.986L237.236 425.112L241.019 428.663L245.641 432.986L260.346 377.858L274.186 389.667L278.189 393.088L286.069 377.858L288.115 379.39L292.375 382.58L308.586 348.567L308.602 348.531L308.639 348.452L308.644 348.441V348.63L308.607 349.816L308.586 350.383L308.665 438.726Z" fill="#193B6E"/>
<g style="mix-blend-mode:multiply" opacity="0.56">
<path d="M301.636 413.123V430.847C301.636 430.984 301.6 431.118 301.531 431.237C301.463 431.356 301.365 431.454 301.246 431.523L276.798 445.643C276.649 445.73 276.476 445.764 276.306 445.742C276.135 445.72 275.977 445.641 275.856 445.52C275.783 445.447 275.725 445.361 275.686 445.267C275.647 445.172 275.627 445.07 275.628 444.968V426.822C275.628 426.683 275.665 426.547 275.735 426.428C275.805 426.308 275.906 426.209 276.027 426.141L300.474 412.442C300.593 412.376 300.727 412.341 300.863 412.343C300.999 412.344 301.133 412.381 301.25 412.45C301.368 412.518 301.465 412.617 301.533 412.735C301.6 412.853 301.636 412.987 301.636 413.123Z" fill="#354594"/>
</g>
<g style="mix-blend-mode:multiply" opacity="0.56">
<path d="M270.022 431.284V449.008C270.022 449.145 269.986 449.279 269.918 449.398C269.849 449.517 269.751 449.615 269.632 449.684L245.185 463.804C245.066 463.873 244.931 463.909 244.794 463.909C244.657 463.909 244.523 463.873 244.404 463.804C244.286 463.736 244.187 463.637 244.119 463.519C244.05 463.4 244.014 463.266 244.014 463.129V444.983C244.014 444.844 244.051 444.708 244.121 444.588C244.191 444.469 244.292 444.37 244.413 444.302L268.861 430.603C268.979 430.536 269.113 430.502 269.25 430.503C269.386 430.505 269.519 430.542 269.637 430.61C269.754 430.679 269.851 430.778 269.919 430.896C269.987 431.014 270.022 431.148 270.022 431.284Z" fill="#354594"/>
</g>
<path d="M303.955 414.572V432.297C303.955 432.434 303.919 432.568 303.851 432.687C303.783 432.805 303.684 432.904 303.565 432.972L279.118 447.093C278.969 447.179 278.796 447.214 278.625 447.192C278.455 447.169 278.296 447.091 278.175 446.969C278.102 446.897 278.045 446.811 278.005 446.716C277.966 446.622 277.946 446.52 277.947 446.417V428.272C277.947 428.133 277.984 427.997 278.054 427.877C278.124 427.758 278.225 427.659 278.346 427.591L302.794 413.892C302.913 413.825 303.047 413.791 303.183 413.792C303.319 413.794 303.452 413.83 303.57 413.899C303.687 413.968 303.785 414.066 303.852 414.185C303.92 414.303 303.955 414.436 303.955 414.572Z" fill="#2460ED"/>
<path d="M272.342 432.733V450.458C272.342 450.595 272.306 450.729 272.238 450.848C272.169 450.966 272.071 451.065 271.952 451.133L247.504 465.254C247.386 465.323 247.251 465.359 247.114 465.359C246.977 465.359 246.843 465.323 246.724 465.254C246.605 465.186 246.507 465.087 246.438 464.969C246.37 464.85 246.334 464.715 246.334 464.578V446.433C246.334 446.294 246.371 446.158 246.441 446.038C246.511 445.919 246.612 445.82 246.733 445.752L271.18 432.053C271.299 431.986 271.433 431.952 271.569 431.953C271.706 431.954 271.839 431.991 271.956 432.06C272.074 432.129 272.171 432.227 272.239 432.345C272.307 432.464 272.342 432.597 272.342 432.733Z" fill="#081636"/>
<g style="mix-blend-mode:multiply">
<path d="M186.501 355.429L189.815 353.56V370.069L191.299 369.232V352.723L194.788 350.755V340.343L191.299 342.222V332.057L189.815 332.855V343.021L186.501 344.805V355.429Z" fill="#354594"/>
<path d="M221.339 332.285L224.653 330.416V340.764L226.137 339.926V329.579L229.626 327.611V321.661L226.137 323.54V313.375L224.653 314.174V324.339L221.339 326.123V332.285Z" fill="#354594"/>
<path d="M198.114 375.239L201.428 373.369V377.13L202.911 376.293V372.532L206.4 370.564V340.817L202.911 342.696V336.993L201.428 337.791V343.495L198.114 345.279V375.239Z" fill="#354594"/>
<path d="M209.726 343.065L213.128 341.146V353.243L214.611 352.406V340.309L218.013 338.39V312.893L214.611 314.724V313.105L213.128 313.904V315.523L209.726 317.355V343.065Z" fill="#354594"/>
<path d="M244.565 316.529L247.966 314.61V320.333L249.45 319.496V313.773L252.851 311.855V286.357L249.45 288.189V273.821L247.966 274.62V288.988L244.565 290.819V316.529Z" fill="#354594"/>
<path d="M232.952 336.388L236.353 334.469V336.579L237.837 335.742V333.632L241.238 331.713V287.518L237.837 289.349V281.568L236.353 282.367V290.148L232.952 291.98V336.388Z" fill="#354594"/>
<path d="M291.016 320.289L294.33 318.419V328.767L295.814 327.93V317.582L299.303 315.614V309.665L295.814 311.543V301.378L294.33 302.177V312.343L291.016 314.127V320.289Z" fill="#354594"/>
<path d="M256.177 291.784L259.579 289.865V304.086L261.063 303.249V289.028L264.464 287.109V268.198L261.063 270.03V266.073L259.579 266.873V270.829L256.177 272.661V291.784Z" fill="#354594"/>
<path d="M282.717 322.082L284.201 321.245V313.235L287.69 311.267V300.855L284.201 302.734V284.069L282.717 284.868V303.533L279.403 305.317V315.941L282.717 314.072V322.082Z" fill="#354594"/>
<path d="M271.104 311.147L272.588 310.31V306.55L276.077 304.582V274.835L272.588 276.713V271.01L271.104 271.809V277.512L267.79 279.296V309.256L271.104 307.387V311.147Z" fill="#354594"/>
</g>
<path d="M192.037 355.825L195.351 353.956V370.465L196.834 369.629V353.119L200.323 351.151V340.739L196.834 342.618V332.453L195.351 333.252V343.417L192.037 345.202V355.825Z" fill="#0199F9"/>
<path d="M226.875 332.681L230.189 330.812V341.159L231.673 340.323V329.975L235.162 328.007V322.057L231.673 323.936V313.771L230.189 314.569V324.735L226.875 326.519V332.681Z" fill="#469B4F"/>
<path d="M203.65 375.635L206.963 373.766V377.526L208.447 376.689V372.929L211.936 370.96V341.213L208.447 343.092V337.389L206.963 338.188V343.891L203.65 345.675V375.635Z" fill="#469B4F"/>
<path d="M215.262 343.46L218.664 341.542V353.639L220.147 352.801V340.705L223.549 338.786V313.289L220.147 315.12V313.501L218.664 314.3V315.919L215.262 317.75V343.46Z" fill="#0199F9"/>
<path d="M250.101 316.925L253.502 315.007V320.729L254.986 319.892V314.17L258.387 312.251V286.753L254.986 288.585V274.217L253.502 275.016V289.384L250.101 291.215V316.925Z" fill="#469B4F"/>
<path d="M238.488 336.784L241.889 334.865V336.976L243.373 336.139V334.028L246.774 332.109V287.914L243.373 289.746V281.965L241.889 282.763V290.544L238.488 292.376V336.784Z" fill="#469B4F"/>
<path d="M296.552 320.685L299.866 318.815V329.163L301.349 328.326V317.978L304.838 316.01V310.061L301.349 311.939V301.774L299.866 302.573V312.738L296.552 314.523V320.685Z" fill="#469B4F"/>
<path d="M261.713 292.18L265.115 290.261V304.483L266.599 303.645V289.424L270 287.505V268.594L266.599 270.426V266.47L265.115 267.269V271.225L261.713 273.056V292.18Z" fill="#0199F9"/>
<path d="M288.253 322.478L289.737 321.641V313.63L293.226 311.662V301.251L289.737 303.129V284.465L288.253 285.264V303.928L284.939 305.713V316.337L288.253 314.467V322.478Z" fill="#0199F9"/>
<path d="M276.64 311.543L278.124 310.706V306.946L281.613 304.977V275.23L278.124 277.109V271.406L276.64 272.205V277.908L273.326 279.693V294.672V309.652L276.64 307.783V311.543Z" fill="#0199F9"/>
<g style="mix-blend-mode:multiply" opacity="0.32">
<path d="M245.292 580.595L191.636 573.861L176.546 584.261L89.4676 551.263L129.442 528.392L221.508 544.387L245.292 580.595Z" fill="#0E1B62"/>
</g>
<path d="M184.685 546.025L190.174 549.18L239.693 577.644L245.129 580.77L250.596 577.612L270.999 565.826L276.475 562.662L276.541 545.629L221.508 531.065L216.031 527.917L210.605 531.053L184.619 529.138L184.685 546.025Z" fill="#1D794A"/>
<path d="M184.685 529.228L190.174 532.384L239.693 560.848L245.129 563.974L250.596 560.815L270.999 549.03L276.475 545.866L271.009 542.723L221.508 514.269L216.031 511.121L210.605 514.257L190.184 526.052L184.685 529.228Z" fill="#0F1F64"/>
<path d="M216.033 512.555L273.985 545.87L245.128 562.541L187.176 529.225L216.033 512.555Z" fill="#469D50"/>
<path d="M229.513 544.76C237.65 544.76 244.247 540.918 244.247 536.179C244.247 531.441 237.65 527.599 229.513 527.599C221.375 527.599 214.779 531.441 214.779 536.179C214.779 540.918 221.375 544.76 229.513 544.76Z" fill="#1D794A"/>
<path d="M217.126 536.179C217.126 540.164 222.672 543.394 229.513 543.394C229.643 543.394 229.77 543.394 229.899 543.389C236.561 543.272 241.901 540.089 241.901 536.179C241.901 532.195 236.355 528.965 229.513 528.965C222.779 528.965 217.3 532.096 217.131 535.993C217.128 536.055 217.126 536.117 217.126 536.179Z" fill="#F6F6F6"/>
<path d="M217.126 536.179C217.126 540.164 222.672 543.394 229.513 543.394C229.643 543.394 229.77 543.394 229.899 543.389C230.608 542.698 231.021 541.758 231.05 540.768C231.032 540.252 230.912 539.745 230.696 539.276C230.48 538.807 230.172 538.386 229.792 538.037C229.889 538.04 229.983 538.045 230.083 538.045C232.677 538.045 234.781 536.821 234.781 535.309C234.781 533.797 232.677 532.573 230.083 532.573C227.489 532.573 225.385 533.797 225.385 535.309C225.386 535.467 225.411 535.623 225.457 535.774C224.221 535.461 222.951 535.305 221.677 535.309C220.135 535.3 218.601 535.531 217.131 535.993C217.128 536.055 217.126 536.117 217.126 536.179Z" fill="#758461"/>
<path d="M269.596 543.349C270.042 543.089 270.516 542.879 271.009 542.723L276.475 545.866L270.999 549.03C270.509 548.876 270.039 548.667 269.596 548.408C268.494 547.759 267.815 546.863 267.815 545.879C267.815 544.894 268.494 543.998 269.596 543.349Z" fill="#0F1F64"/>
<path d="M240.74 560.017C242.098 559.311 243.605 558.94 245.136 558.935C246.667 558.931 248.176 559.293 249.538 559.992C249.929 560.214 250.285 560.491 250.595 560.815L245.129 563.974L239.693 560.848C239.998 560.52 240.351 560.24 240.74 560.017Z" fill="#0F1F64"/>
<path d="M221.508 514.269C221.198 514.596 220.842 514.875 220.451 515.097C219.09 515.797 217.581 516.161 216.05 516.159C214.519 516.157 213.011 515.789 211.652 515.085C211.264 514.862 210.911 514.583 210.605 514.257L216.031 511.121L221.508 514.269Z" fill="#0F1F64"/>
<path d="M193.847 531.482L193.726 531.413L193.809 531.3C194.268 530.702 194.519 529.97 194.524 529.216C194.512 528.463 194.259 527.734 193.802 527.135L193.72 527.024L211.96 516.487L212.017 516.51C214.609 517.531 217.492 517.534 220.086 516.519L220.143 516.495L267.482 543.709L267.401 543.821C266.944 544.41 266.696 545.133 266.696 545.878C266.696 546.623 266.944 547.347 267.401 547.935L267.482 548.047L249.279 558.563L249.226 558.594L249.169 558.57C246.574 557.558 243.691 557.565 241.101 558.591L241.044 558.615L193.847 531.482ZM249.207 558.317L267.121 547.969C266.683 547.36 266.448 546.629 266.448 545.879C266.448 545.129 266.683 544.398 267.12 543.788L220.125 516.772C217.503 517.782 214.598 517.779 211.978 516.763L194.083 527.101C194.522 527.72 194.763 528.457 194.772 529.216C194.77 529.976 194.531 530.716 194.09 531.335L241.062 558.338C243.68 557.318 246.584 557.311 249.207 558.317Z" fill="#0F1F64"/>
<path d="M190.184 526.052C190.676 526.205 191.15 526.412 191.597 526.669C192.713 527.321 193.405 528.224 193.405 529.216C193.405 530.211 192.711 531.111 191.594 531.763C191.145 532.022 190.669 532.23 190.174 532.384L184.685 529.228L190.184 526.052Z" fill="#0F1F64"/>
<path d="M213.323 528.47C213.323 528.951 213.993 529.34 214.818 529.34C215.644 529.34 216.313 528.951 216.313 528.47C216.313 527.989 215.644 527.599 214.818 527.599C213.993 527.599 213.323 527.989 213.323 528.47Z" fill="#1D794A"/>
<path d="M242.919 544.386C242.919 544.867 243.588 545.257 244.413 545.257C245.239 545.257 245.908 544.867 245.908 544.386C245.908 543.906 245.239 543.516 244.413 543.516C243.588 543.516 242.919 543.906 242.919 544.386Z" fill="#1D794A"/>
<path d="M256.221 561.996L256.691 562.12L256.691 562.266L256.221 561.996Z" fill="#EAE7DE"/>
<path d="M254.694 561.08L255.164 561.204L255.164 561.35L254.694 561.08Z" fill="#EAE7DE"/>
<path d="M245.086 563.953V580.75L276.541 562.426V545.935L245.086 563.953Z" fill="#469D50"/>
<path d="M245.144 566.836L245.201 566.804L276.532 549.13L276.419 548.93L245.145 566.573L184.676 531.584L184.562 531.782L245.144 566.836Z" fill="#0F1F64"/>
<path d="M245.144 570.348L245.201 570.316L276.532 552.641L276.419 552.442L245.145 570.085L184.676 535.096L184.562 535.294L245.144 570.348Z" fill="#0F1F64"/>
<path d="M245.144 573.86L245.201 573.828L276.532 556.153L276.419 555.954L245.145 573.596L184.676 538.608L184.562 538.806L245.144 573.86Z" fill="#0F1F64"/>
<path d="M245.144 577.372L245.201 577.34L276.532 559.665L276.419 559.466L245.145 577.109L184.676 542.121L184.562 542.318L245.144 577.372Z" fill="#0F1F64"/>
<path d="M245.144 580.884L245.201 580.851L276.532 562.871L276.418 562.673L245.144 580.62L184.676 545.632L184.562 545.83L245.144 580.884Z" fill="#0F1F64"/>
<path d="M207.72 542.285L213.088 539.184L233.509 527.388L238.936 524.252L244.412 527.401L250.735 531.035L245.419 534.107L224.999 545.903L219.63 549.003L219.434 548.989L219.5 565.875L213.079 562.312L207.59 559.156L207.523 542.27L207.72 542.285Z" fill="#F6F6F6"/>
<path d="M218.103 548.087L223.472 544.986L243.892 533.191L249.174 530.138L250.735 531.035L245.419 534.107L224.999 545.903L219.63 549.003L219.434 548.989L219.5 565.875L217.973 564.959L217.907 548.073L218.103 548.087Z" fill="#E15355"/>
<path d="M207.72 542.285L213.088 539.184L233.509 527.388L238.936 524.252L240.463 525.168L235.036 528.304L214.615 540.1L209.247 543.201L209.05 543.186L209.117 560.034L207.59 559.156L207.523 542.27L207.72 542.285Z" fill="#E15355"/>
<path d="M115.958 549.173L121.447 552.328L170.965 580.792L176.402 583.918L181.868 580.76L202.272 568.974L207.748 565.81L207.815 548.777L152.78 534.213L147.304 531.065L141.878 534.201L115.892 532.286L115.958 549.173Z" fill="#1D794A"/>
<path d="M115.958 532.376L121.447 535.532L170.965 563.996L176.402 567.122L181.868 563.964L202.272 552.178L207.748 549.014L202.282 545.871L152.78 517.417L147.304 514.268L141.878 517.405L121.457 529.2L115.958 532.376Z" fill="#0F1F64"/>
<path d="M147.305 515.702L205.258 549.018L176.401 565.688L118.448 532.373L147.305 515.702Z" fill="#469D50"/>
<path d="M160.786 547.908C168.923 547.908 175.52 544.066 175.52 539.328C175.52 534.589 168.923 530.748 160.786 530.748C152.648 530.748 146.052 534.589 146.052 539.328C146.052 544.066 152.648 547.908 160.786 547.908Z" fill="#1D794A"/>
<path d="M148.399 539.328C148.399 543.312 153.945 546.542 160.786 546.542C160.916 546.542 161.042 546.542 161.172 546.537C167.834 546.42 173.174 543.237 173.174 539.328C173.174 535.343 167.628 532.113 160.786 532.113C154.051 532.113 148.573 535.244 148.404 539.141C148.401 539.203 148.399 539.265 148.399 539.328Z" fill="#F6F6F6"/>
<path d="M148.399 539.327C148.399 543.311 153.945 546.542 160.786 546.542C160.916 546.542 161.042 546.542 161.172 546.537C161.881 545.845 162.293 544.906 162.323 543.916C162.305 543.4 162.185 542.892 161.969 542.424C161.753 541.955 161.445 541.534 161.065 541.185C161.162 541.187 161.256 541.192 161.356 541.192C163.95 541.192 166.054 539.969 166.054 538.457C166.054 536.945 163.95 535.721 161.356 535.721C158.762 535.721 156.658 536.945 156.658 538.457C156.659 538.614 156.684 538.771 156.73 538.922C155.494 538.609 154.224 538.452 152.95 538.457C151.408 538.448 149.874 538.678 148.404 539.141C148.401 539.203 148.399 539.265 148.399 539.327Z" fill="#758461"/>
<path d="M200.869 546.497C201.315 546.236 201.789 546.026 202.282 545.87L207.748 549.014L202.272 552.177C201.782 552.023 201.312 551.815 200.869 551.555C199.767 550.906 199.088 550.011 199.088 549.026C199.088 548.041 199.767 547.146 200.869 546.497Z" fill="#0F1F64"/>
<path d="M172.012 563.165C173.371 562.459 174.878 562.088 176.409 562.084C177.94 562.079 179.449 562.442 180.811 563.14C181.202 563.362 181.558 563.639 181.868 563.964L176.402 567.122L170.965 563.996C171.271 563.668 171.624 563.388 172.012 563.165Z" fill="#0F1F64"/>
<path d="M152.781 517.417C152.471 517.743 152.115 518.022 151.724 518.245C150.362 518.945 148.853 519.309 147.323 519.307C145.792 519.305 144.284 518.936 142.925 518.233C142.537 518.01 142.184 517.731 141.878 517.404L147.304 514.268L152.781 517.417Z" fill="#0F1F64"/>
<path d="M125.12 534.63L124.999 534.561L125.082 534.448C125.541 533.85 125.792 533.118 125.797 532.364C125.785 531.611 125.532 530.882 125.075 530.283L124.993 530.172L143.233 519.635L143.29 519.658C145.882 520.679 148.765 520.682 151.359 519.667L151.416 519.643L198.755 546.857L198.674 546.969C198.217 547.558 197.969 548.281 197.969 549.026C197.969 549.771 198.217 550.495 198.674 551.083L198.755 551.195L180.552 561.711L180.499 561.741L180.442 561.718C177.847 560.706 174.964 560.713 172.374 561.739L172.317 561.763L125.12 534.63ZM180.48 561.465L198.394 551.117C197.956 550.507 197.721 549.776 197.721 549.026C197.721 548.277 197.956 547.545 198.393 546.936L151.398 519.92C148.776 520.93 145.871 520.927 143.251 519.911L125.356 530.249C125.795 530.867 126.036 531.605 126.045 532.364C126.043 533.124 125.804 533.864 125.363 534.483L172.335 561.486C174.953 560.466 177.857 560.459 180.48 561.465Z" fill="#0F1F64"/>
<path d="M121.457 529.2C121.949 529.353 122.423 529.56 122.87 529.817C123.986 530.469 124.678 531.371 124.678 532.364C124.678 533.358 123.984 534.259 122.867 534.91C122.418 535.17 121.942 535.378 121.447 535.532L115.958 532.376L121.457 529.2Z" fill="#0F1F64"/>
<path d="M144.596 531.618C144.596 532.099 145.265 532.488 146.091 532.488C146.916 532.488 147.586 532.099 147.586 531.618C147.586 531.137 146.917 530.748 146.091 530.748C145.265 530.748 144.596 531.137 144.596 531.618Z" fill="#1D794A"/>
<path d="M174.191 547.534C174.191 548.015 174.861 548.404 175.686 548.404C176.512 548.404 177.181 548.015 177.181 547.534C177.181 547.053 176.512 546.664 175.686 546.664C174.861 546.664 174.191 547.053 174.191 547.534Z" fill="#1D794A"/>
<path d="M187.494 565.144L187.964 565.269L187.963 565.414L187.494 565.144Z" fill="#EAE7DE"/>
<path d="M185.967 564.228L186.437 564.352L186.436 564.498L185.967 564.228Z" fill="#EAE7DE"/>
<path d="M176.359 567.101V583.897L207.815 565.574V549.083L176.359 567.101Z" fill="#469D50"/>
<path d="M176.417 569.984L176.473 569.952L207.805 552.277L207.692 552.078L176.418 569.721L115.949 534.732L115.835 534.93L176.417 569.984Z" fill="#0F1F64"/>
<path d="M176.417 573.496L176.473 573.464L207.805 555.789L207.692 555.59L176.418 573.232L115.949 538.244L115.835 538.442L176.417 573.496Z" fill="#0F1F64"/>
<path d="M176.417 577.008L176.473 576.976L207.805 559.301L207.692 559.102L176.418 576.745L115.949 541.756L115.835 541.954L176.417 577.008Z" fill="#0F1F64"/>
<path d="M176.417 580.521L176.473 580.488L207.805 562.813L207.692 562.614L176.418 580.257L115.949 545.268L115.835 545.467L176.417 580.521Z" fill="#0F1F64"/>
<path d="M176.417 584.033L176.474 584L207.805 566.02L207.691 565.821L176.417 583.768L115.949 548.781L115.835 548.978L176.417 584.033Z" fill="#0F1F64"/>
<path d="M138.993 545.432L144.361 542.332L164.782 530.536L170.209 527.4L175.685 530.548L182.008 534.183L176.692 537.254L156.271 549.05L150.903 552.151L150.706 552.136L150.773 569.023L144.351 565.46L138.862 562.304L138.796 545.418L138.993 545.432Z" fill="#F6F6F6"/>
<path d="M149.376 551.235L154.744 548.134L175.165 536.339L180.447 533.286L182.008 534.183L176.692 537.255L156.271 549.05L150.903 552.151L150.706 552.137L150.773 569.023L149.246 568.107L149.179 551.22L149.376 551.235Z" fill="#E15355"/>
<path d="M138.993 545.432L144.361 542.332L164.782 530.536L170.209 527.4L171.736 528.316L166.309 531.452L145.888 543.248L140.52 546.349L140.323 546.334L140.389 563.182L138.862 562.304L138.796 545.418L138.993 545.432Z" fill="#E15355"/>
<path d="M119.631 526.613L125.12 529.769L174.638 558.233L180.074 561.359L185.541 558.201L205.944 546.415L211.421 543.251L211.487 526.218L156.453 511.654L150.977 508.506L145.55 511.642L119.564 509.727L119.631 526.613Z" fill="#1D794A"/>
<path d="M119.631 509.817L125.12 512.972L174.638 541.436L180.074 544.562L185.541 541.404L205.944 529.618L211.421 526.454L205.954 523.311L156.453 494.857L150.977 491.709L145.55 494.845L125.13 506.641L119.631 509.817Z" fill="#0F1F64"/>
<path d="M150.978 493.143L208.93 526.459L180.073 543.129L122.121 509.813L150.978 493.143Z" fill="#469D50"/>
<path d="M164.458 525.348C172.596 525.348 179.192 521.507 179.192 516.768C179.192 512.029 172.596 508.188 164.458 508.188C156.321 508.188 149.724 512.029 149.724 516.768C149.724 521.507 156.321 525.348 164.458 525.348Z" fill="#1D794A"/>
<path d="M152.071 516.768C152.071 520.752 157.617 523.983 164.459 523.983C164.588 523.983 164.715 523.983 164.844 523.978C171.507 523.861 176.846 520.677 176.846 516.768C176.846 512.784 171.3 509.553 164.459 509.553C157.724 509.553 152.245 512.684 152.076 516.581C152.074 516.643 152.071 516.706 152.071 516.768Z" fill="#F6F6F6"/>
<path d="M152.071 516.768C152.071 520.752 157.617 523.983 164.459 523.983C164.588 523.983 164.715 523.983 164.844 523.978C165.553 523.286 165.966 522.346 165.996 521.357C165.978 520.841 165.857 520.333 165.641 519.865C165.425 519.396 165.118 518.975 164.737 518.626C164.834 518.628 164.929 518.633 165.028 518.633C167.622 518.633 169.726 517.41 169.726 515.898C169.726 514.385 167.622 513.162 165.028 513.162C162.434 513.162 160.33 514.385 160.33 515.898C160.332 516.055 160.356 516.212 160.402 516.363C159.167 516.05 157.897 515.893 156.622 515.898C155.081 515.889 153.547 516.119 152.076 516.581C152.074 516.644 152.071 516.706 152.071 516.768Z" fill="#758461"/>
<path d="M204.541 523.938C204.988 523.678 205.462 523.468 205.954 523.312L211.421 526.455L205.944 529.619C205.455 529.465 204.984 529.256 204.541 528.997C203.44 528.348 202.761 527.452 202.761 526.467C202.761 525.483 203.44 524.587 204.541 523.938Z" fill="#0F1F64"/>
<path d="M175.685 540.606C177.043 539.899 178.551 539.529 180.082 539.524C181.612 539.52 183.122 539.882 184.484 540.581C184.874 540.803 185.231 541.08 185.541 541.404L180.075 544.563L174.638 541.437C174.943 541.109 175.296 540.829 175.685 540.606Z" fill="#0F1F64"/>
<path d="M156.453 494.857C156.143 495.184 155.787 495.463 155.396 495.685C154.035 496.385 152.526 496.75 150.995 496.747C149.464 496.745 147.956 496.377 146.597 495.673C146.209 495.45 145.856 495.171 145.55 494.845L150.977 491.709L156.453 494.857Z" fill="#0F1F64"/>
<path d="M128.792 512.071L128.671 512.001L128.754 511.889C129.213 511.291 129.464 510.559 129.469 509.804C129.457 509.051 129.204 508.322 128.747 507.724L128.665 507.612L146.906 497.075L146.962 497.099C149.555 498.12 152.437 498.123 155.031 497.107L155.088 497.084L202.428 524.298L202.346 524.41C201.89 524.998 201.642 525.722 201.642 526.467C201.642 527.212 201.889 527.935 202.346 528.524L202.427 528.636L184.224 539.151L184.171 539.182L184.114 539.158C181.519 538.146 178.637 538.154 176.046 539.179L175.99 539.203L128.792 512.071ZM184.153 538.905L202.066 528.557C201.628 527.948 201.393 527.217 201.393 526.467C201.393 525.717 201.628 524.986 202.066 524.377L155.07 497.36C152.448 498.37 149.544 498.367 146.923 497.352L129.028 507.69C129.468 508.308 129.708 509.046 129.718 509.804C129.715 510.564 129.476 511.305 129.035 511.923L176.007 538.926C178.625 537.907 181.529 537.899 184.153 538.905Z" fill="#0F1F64"/>
<path d="M125.129 506.641C125.622 506.794 126.095 507.001 126.542 507.258C127.659 507.909 128.35 508.812 128.35 509.805C128.35 510.799 127.656 511.7 126.54 512.351C126.091 512.61 125.615 512.819 125.12 512.973L119.631 509.817L125.129 506.641Z" fill="#0F1F64"/>
<path d="M148.269 509.058C148.269 509.539 148.938 509.929 149.763 509.929C150.589 509.929 151.258 509.539 151.258 509.058C151.258 508.578 150.589 508.188 149.763 508.188C148.938 508.188 148.269 508.578 148.269 509.058Z" fill="#1D794A"/>
<path d="M177.864 524.975C177.864 525.456 178.533 525.845 179.359 525.845C180.184 525.845 180.854 525.456 180.854 524.975C180.854 524.494 180.184 524.104 179.359 524.104C178.533 524.104 177.864 524.494 177.864 524.975Z" fill="#1D794A"/>
<path d="M191.167 542.584L191.636 542.709L191.636 542.854L191.167 542.584Z" fill="#EAE7DE"/>
<path d="M189.639 541.668L190.109 541.793L190.109 541.938L189.639 541.668Z" fill="#EAE7DE"/>
<path d="M180.031 544.542V561.338L211.487 543.015V526.523L180.031 544.542Z" fill="#469D50"/>
<path d="M180.089 547.425L180.146 547.393L211.477 529.718L211.364 529.519L180.09 547.161L119.622 512.173L119.507 512.371L180.089 547.425Z" fill="#0F1F64"/>
<path d="M180.089 550.937L180.146 550.905L211.477 533.23L211.364 533.031L180.09 550.673L119.622 515.685L119.507 515.883L180.089 550.937Z" fill="#0F1F64"/>
<path d="M180.089 554.449L180.146 554.417L211.477 536.742L211.364 536.542L180.09 554.185L119.622 519.197L119.507 519.395L180.089 554.449Z" fill="#0F1F64"/>
<path d="M180.089 557.961L180.146 557.929L211.477 540.254L211.364 540.055L180.09 557.697L119.622 522.709L119.507 522.907L180.089 557.961Z" fill="#0F1F64"/>
<path d="M180.089 561.473L180.146 561.44L211.478 543.46L211.364 543.262L180.09 561.209L119.622 526.221L119.507 526.419L180.089 561.473Z" fill="#0F1F64"/>
<path d="M142.665 522.873L148.034 519.772L168.454 507.977L173.881 504.84L179.357 507.989L185.68 511.623L180.365 514.695L159.944 526.491L154.576 529.591L154.379 529.577L154.445 546.463L148.024 542.901L142.535 539.745L142.469 522.859L142.665 522.873Z" fill="#F6F6F6"/>
<path d="M153.049 528.676L158.417 525.575L178.837 513.78L184.12 510.727L185.68 511.624L180.364 514.696L159.944 526.491L154.576 529.592L154.379 529.578L154.445 546.464L152.918 545.548L152.852 528.661L153.049 528.676Z" fill="#E15355"/>
<path d="M142.665 522.873L148.034 519.772L168.454 507.977L173.881 504.84L175.408 505.757L169.981 508.893L149.561 520.689L144.192 523.789L143.996 523.775L144.062 540.623L142.535 539.745L142.469 522.859L142.665 522.873Z" fill="#E15355"/>
<path d="M411.787 445.422C411.787 445.422 414.2 444.195 415.545 444.846C416.89 445.498 414.891 446.891 414.891 446.891C418.141 449.849 416.541 450.964 416.541 450.964C414.381 453.831 413.036 453.18 413.036 453.18C411.09 452.946 408.215 448.82 408.215 448.82L411.787 445.422Z" fill="#E2796F"/>
<path d="M378.172 414.328C375.544 416.159 374.217 418.839 377.979 424.236C381.741 429.634 389.641 437.912 389.641 437.912L407.974 449.445L412.479 444.916L396.345 431.234L387.656 417.24C387.656 417.24 383.428 410.664 378.172 414.328Z" fill="#0D1D63"/>
<path d="M359.63 554.538C360.274 552.284 370.254 551.641 370.254 551.641L379.59 555.826C379.268 560.977 378.302 562.264 376.048 562.264C361.24 560.655 359.63 557.757 359.63 557.757C359.63 557.757 358.986 556.791 359.63 554.538Z" fill="#172A98"/>
<path d="M358.664 476.631L364.459 519.448L369.288 554.216C369.288 554.216 371.541 556.791 380.556 555.504L378.306 516.55L379.356 469.866L358.664 476.631Z" fill="#0E1B62"/>
<path d="M337.739 565.161C338.383 562.908 348.363 562.264 348.363 562.264L357.698 566.449C357.377 571.6 356.411 572.888 354.157 572.888C339.348 571.278 337.739 568.381 337.739 568.381C337.739 568.381 337.095 567.415 337.739 565.161Z" fill="#172A98"/>
<path d="M346.753 481.782L345.143 521.701L346.753 565.805C346.753 565.805 349.006 568.381 358.02 567.093L359.96 529.106L370.426 470.782L346.753 481.782Z" fill="#0E1B62"/>
<path d="M387.591 419.905L382.118 458.816L381.41 477.522C379.963 480.138 378.04 482.46 375.738 484.368C363.207 494.617 344.115 487.122 344.115 487.122L350.059 431.721L350.325 429.251C350.548 427.148 351.441 425.172 352.874 423.615C353.847 422.561 355.036 421.729 356.361 421.176L376.949 412.634C378.407 412.029 380.02 411.902 381.555 412.271C383.086 412.641 384.454 413.5 385.454 414.717C386.662 416.197 387.405 418.002 387.591 419.905Z" fill="#0D1D63"/>
<path d="M375.738 484.368C363.207 494.617 344.115 487.122 344.115 487.122L350.059 431.721L362.862 426.237C361.234 447.412 330.869 482.225 375.738 484.368Z" fill="#050D3F"/>
<path d="M316.419 469.469C316.419 469.469 313.679 468.216 311.938 469.301C310.196 470.386 312.407 471.927 312.407 471.927C307.979 476.394 309.748 477.626 309.748 477.626C311.918 481.109 313.659 480.024 313.659 480.024C316.064 479.401 320.223 473.434 320.223 473.434L316.419 469.469Z" fill="#E2796F"/>
<path d="M362.299 422.584C365.204 424.609 366.391 427.974 360.949 435.781C355.508 443.588 344.57 455.902 344.57 455.902L320.416 474.229L315.658 468.903L337.479 448.06L350.291 427.99C350.291 427.99 356.489 418.535 362.299 422.584Z" fill="#0D1D63"/>
<path d="M375.173 414.021L368.502 416.139L363.474 418.225C372.236 422.953 379.37 420.317 375.173 414.021Z" fill="#F6F6F4"/>
<path d="M366.744 407.47L364.685 417.61C364.685 417.61 371.807 420.641 375.385 417.463L376.347 408.5L366.744 407.47Z" fill="#E2796F"/>
<path d="M358.783 389.627C358.783 389.627 353.899 414.034 363.742 412.823C373.585 411.612 377.382 400.364 377.382 400.364L371.587 391L358.783 389.627Z" fill="#E2796F"/>
<path d="M363.549 399.527C359.491 398.121 361.503 394.451 361.503 394.451C361.503 394.451 356.302 391.627 356.782 387.146C357.263 382.665 361.733 380.23 361.733 380.23L363.802 382.071C363.802 382.071 376.389 382.449 379.44 390.224C382.492 397.998 375.963 410.572 375.963 410.572L370.535 409.99L366.544 401.791L363.549 399.527Z" fill="#010D40"/>
<path d="M367.104 404.005C368.668 402.744 368.914 400.454 367.652 398.89C366.391 397.325 364.101 397.08 362.537 398.341C360.973 399.602 360.727 401.892 361.988 403.456C363.249 405.02 365.54 405.266 367.104 404.005Z" fill="#E2796F"/>
<path d="M363.27 510.663L367.303 493.765L365.853 528.391L363.27 510.663Z" fill="#050D3F"/>
<path d="M193.857 628.517V649.137L229.07 628.807V607.736L193.857 628.517Z" fill="#79B7EB"/>
<path d="M159.097 607.736V628.356L193.857 649.137V628.065L159.097 607.736Z" fill="#A6CBF3"/>
<path d="M159.097 607.736L193.857 587.406L229.07 607.736L194.309 628.517L159.097 607.736Z" fill="#CEE2F5"/>
<path d="M159.097 537.037V607.637L193.857 628.419L229.07 608.089V537.037H159.097Z" fill="url(#paint0_linear_111_2376)"/>
<g style="mix-blend-mode:multiply" opacity="0.46">
<path d="M480.53 533.124C496.147 533.124 508.806 525.752 508.806 516.658C508.806 507.564 496.147 500.192 480.53 500.192C464.914 500.192 452.255 507.564 452.255 516.658C452.255 525.752 464.914 533.124 480.53 533.124Z" fill="#354594"/>
</g>
<path d="M490.775 509.234V534.66L510.114 523.502C511.815 522.521 513.227 521.109 514.209 519.409C515.191 517.709 515.708 515.78 515.708 513.816V494.529L490.775 509.234Z" fill="#79B7EB"/>
<path d="M466.16 494.529V509.381C466.16 512.605 466.997 515.774 468.588 518.578C470.179 521.382 472.47 523.725 475.238 525.378L490.775 534.66V508.914L466.16 494.529Z" fill="#4390CD"/>
<path d="M466.16 494.529L490.775 480.145L515.708 494.529L491.094 509.234L466.16 494.529Z" fill="#CEE2F5"/>
<path d="M473.416 494.576L490.822 484.404L508.453 494.576L491.047 504.974L473.416 494.576Z" fill="#0E1B62"/>
<path d="M494.955 466.5H486.946V494.298H494.955V466.5Z" fill="#0E1B62"/>
<path d="M512.858 457.078C512.859 461.458 511.561 465.741 509.127 469.384C506.694 473.027 503.235 475.866 499.188 477.543C495.141 479.22 490.687 479.659 486.391 478.804C482.094 477.95 478.147 475.84 475.05 472.743C471.952 469.645 469.842 465.698 468.988 461.402C468.134 457.105 468.573 452.651 470.249 448.604C471.926 444.557 474.766 441.098 478.408 438.665C482.051 436.232 486.334 434.933 490.715 434.934C493.627 434.92 496.512 435.483 499.205 436.591C501.898 437.699 504.345 439.329 506.404 441.388C508.463 443.447 510.093 445.894 511.201 448.587C512.309 451.28 512.872 454.166 512.858 457.078Z" fill="#469B4F"/>
<g style="mix-blend-mode:multiply" opacity="0.54">
<path d="M510.554 466.92C509.111 469.828 507.045 472.384 504.503 474.405C501.962 476.427 499.007 477.865 495.848 478.617C492.689 479.369 489.404 479.418 486.224 478.759C483.044 478.1 480.049 476.75 477.449 474.804C474.849 472.859 472.709 470.365 471.18 467.5C469.651 464.636 468.771 461.47 468.601 458.227C468.432 454.984 468.978 451.744 470.201 448.735C471.424 445.727 473.293 443.024 475.676 440.819C472.915 460.974 491.162 468.319 510.554 466.92Z" fill="#469B4F"/>
</g>
<path d="M522.045 470.506C522.046 473.162 521.259 475.759 519.783 477.968C518.308 480.177 516.21 481.899 513.756 482.916C511.302 483.932 508.601 484.199 505.996 483.68C503.391 483.162 500.997 481.883 499.119 480.005C497.24 478.126 495.961 475.733 495.443 473.128C494.925 470.522 495.191 467.822 496.208 465.368C497.225 462.914 498.947 460.816 501.156 459.341C503.365 457.865 505.962 457.078 508.618 457.078C510.384 457.07 512.134 457.411 513.766 458.083C515.399 458.755 516.883 459.744 518.132 460.992C519.38 462.241 520.369 463.724 521.041 465.357C521.712 466.99 522.054 468.74 522.045 470.506Z" fill="#469B4F"/>
<g style="mix-blend-mode:multiply" opacity="0.3">
<path d="M520.648 476.473C519.773 478.237 518.52 479.787 516.979 481.013C515.438 482.238 513.646 483.11 511.731 483.566C509.815 484.023 507.823 484.052 505.895 483.652C503.967 483.253 502.15 482.434 500.573 481.254C498.997 480.075 497.699 478.563 496.772 476.825C495.845 475.088 495.311 473.169 495.209 471.202C495.106 469.236 495.437 467.271 496.179 465.447C496.92 463.622 498.053 461.984 499.499 460.646C497.824 472.868 508.889 477.322 520.648 476.473Z" fill="#469B4F"/>
</g>
<path d="M480.35 474.038L489.301 480.163V482.99L479.054 476.041L480.35 474.038Z" fill="#0E1B62"/>
<path d="M483.412 474.274C483.412 475.812 482.956 477.316 482.102 478.595C481.248 479.874 480.034 480.87 478.613 481.459C477.192 482.048 475.629 482.202 474.12 481.902C472.612 481.602 471.226 480.861 470.139 479.774C469.051 478.686 468.311 477.301 468.011 475.792C467.711 474.284 467.865 472.721 468.453 471.3C469.042 469.879 470.039 468.665 471.318 467.81C472.597 466.956 474.1 466.5 475.638 466.501C476.66 466.496 477.674 466.693 478.619 467.082C479.564 467.471 480.423 468.044 481.146 468.766C481.869 469.489 482.441 470.348 482.83 471.294C483.219 472.239 483.417 473.252 483.412 474.274Z" fill="#469B4F"/>
<g style="mix-blend-mode:multiply" opacity="0.3">
<path d="M482.603 477.73C482.096 478.751 481.371 479.648 480.479 480.357C479.587 481.067 478.55 481.572 477.441 481.836C476.332 482.1 475.178 482.117 474.062 481.886C472.946 481.654 471.894 481.18 470.981 480.497C470.068 479.814 469.317 478.939 468.78 477.933C468.244 476.928 467.935 475.816 467.875 474.678C467.816 473.539 468.008 472.402 468.437 471.346C468.866 470.289 469.522 469.341 470.359 468.566C469.39 475.642 475.795 478.221 482.603 477.73Z" fill="#469B4F"/>
</g>
<path d="M245.98 660.647V681.267L281.192 660.937V639.866L245.98 660.647Z" fill="#79B7EB"/>
<path d="M211.219 639.866V660.486L245.98 681.267V660.195L211.219 639.866Z" fill="#A6CBF3"/>
<path d="M211.219 639.866L245.98 619.537L281.192 639.866L246.431 660.647L211.219 639.866Z" fill="#CEE2F5"/>
<path d="M211.219 569.168V639.768L245.98 660.549L281.192 640.22V569.168H211.219Z" fill="url(#paint1_linear_111_2376)"/>
<path d="M88.0676 509.132V552.032L102.093 543.94V500.861L88.0676 509.132Z" fill="#0052B4"/>
<path d="M74.2218 500.861V543.76L88.0675 552.032V508.952L74.2218 500.861Z" fill="#0F1F64"/>
<path d="M74.2218 500.861L88.0675 492.769L102.093 500.861L88.2472 509.132L74.2218 500.861Z" fill="#2460ED"/>
<path d="M40.2022 509.063V564.884L58.452 554.355V498.3L40.2022 509.063Z" fill="#0F1F64"/>
<path d="M22.186 498.3V554.121L40.2022 564.884V508.829L22.186 498.3Z" fill="#1C4BBA"/>
<path d="M22.186 498.3L40.2022 487.771L58.452 498.3L40.4362 509.063L22.186 498.3Z" fill="#2460ED"/>
<path d="M73.7602 530.483V586.304L92.0104 575.775V519.72L73.7602 530.483Z" fill="#80A5FF"/>
<path d="M55.7444 519.72V575.541L73.7602 586.304V530.249L55.7444 519.72Z" fill="#1C4BBA"/>
<path d="M55.7444 519.72L73.7602 509.191L92.0104 519.72L73.9942 530.483L55.7444 519.72Z" fill="#2460ED"/>
<path d="M165.676 303.074V434.848C165.676 435.404 165.526 435.95 165.241 436.428C164.955 436.906 164.546 437.297 164.056 437.561L91.3586 476.742C90.8891 476.996 90.3619 477.122 89.8286 477.111C89.2954 477.099 88.7743 476.949 88.3163 476.676C87.8583 476.402 87.4791 476.015 87.2158 475.551C86.9525 475.087 86.814 474.563 86.814 474.029V342.255C86.814 341.699 86.9646 341.153 87.2498 340.675C87.535 340.197 87.9442 339.806 88.434 339.542L161.132 300.36C161.601 300.107 162.129 299.98 162.662 299.991C163.195 300.003 163.716 300.153 164.175 300.426C164.633 300.7 165.012 301.088 165.275 301.552C165.538 302.016 165.677 302.54 165.676 303.074Z" fill="#334EBE"/>
<path d="M169.261 305.122V436.896C169.261 437.453 169.11 437.999 168.825 438.476C168.54 438.954 168.131 439.346 167.641 439.61L94.9434 478.791C94.4738 479.044 93.9466 479.171 93.4133 479.159C92.8801 479.147 92.359 478.997 91.901 478.724C91.443 478.451 91.0638 478.063 90.8005 477.599C90.5372 477.135 90.3987 476.611 90.3987 476.078V344.303C90.3987 343.747 90.5493 343.201 90.8345 342.723C91.1197 342.245 91.5289 341.854 92.0186 341.59L164.716 302.409C165.186 302.155 165.713 302.028 166.247 302.04C166.78 302.051 167.301 302.201 167.759 302.475C168.217 302.748 168.597 303.136 168.86 303.6C169.123 304.064 169.261 304.588 169.261 305.122Z" fill="#F6F6F4"/>
<path d="M146.512 332.034C136.746 326.89 121.666 336.315 112.83 353.088C109.489 359.431 107.52 365.915 106.888 371.805C105.851 381.496 108.441 389.577 114.514 392.776C118.704 394.983 123.868 394.511 129.099 391.928C136.066 388.488 143.153 381.302 148.201 371.721C149.338 369.567 150.338 367.344 151.196 365.064C151.2 365.049 151.208 365.032 151.212 365.016C154.209 357.036 155.051 349.236 153.81 343.085L153.805 343.069C152.782 338.005 150.339 334.05 146.512 332.034Z" fill="#A6CAF7"/>
<path d="M112.83 353.088C121.666 336.315 136.746 326.89 146.512 332.034C150.342 334.052 152.787 338.012 153.81 343.085L106.888 371.805C107.52 365.915 109.489 359.431 112.83 353.088Z" fill="#5E9FE9"/>
<path d="M153.805 343.07L153.675 343.067L127.458 359.215L151.196 365.065C154.205 357.069 155.053 349.251 153.809 343.086L153.805 343.07Z" fill="#334EBE"/>
<path d="M151.212 365.017L127.721 359.131L129.099 391.928C136.066 388.488 143.153 381.302 148.201 371.721C149.338 369.568 150.338 367.344 151.196 365.065C151.199 365.049 151.208 365.032 151.212 365.017Z" fill="#FFB240"/>
<path d="M99.3814 415.54V423.815L106.695 419.582V411.306L99.3814 415.54Z" fill="#334EBE"/>
<path d="M99.4206 429.584V437.859L106.734 433.625V425.349L99.4206 429.584Z" fill="#5E9FE9"/>
<path d="M99.4597 443.627V451.902L106.773 447.668V439.393L99.4597 443.627Z" fill="#A6CAF7"/>
<path d="M99.4991 457.67V465.946L106.812 461.711V453.436L99.4991 457.67Z" fill="#FFB240"/>
<path d="M112.852 409.606V411.767L144.613 393.289V391.128L112.852 409.606Z" fill="#0F1F64"/>
<path d="M112.852 416.35L130.912 405.843V403.682L112.852 414.189V416.35Z" fill="#0F1F64"/>
<path d="M112.852 423.172V425.333L144.613 406.856V404.695L112.852 423.172Z" fill="#0F1F64"/>
<path d="M112.852 429.916L130.912 419.409V417.248L112.852 427.755V429.916Z" fill="#0F1F64"/>
<path d="M112.852 437.452V439.613L144.613 421.136V418.975L112.852 437.452Z" fill="#0F1F64"/>
<path d="M112.852 444.196L130.912 433.69V431.528L112.852 442.035V444.196Z" fill="#0F1F64"/>
<path d="M112.852 451.732V453.893L144.613 435.416V433.255L112.852 451.732Z" fill="#0F1F64"/>
<path d="M112.852 458.476L130.912 447.969V445.808L112.852 456.315V458.476Z" fill="#0F1F64"/>
<g style="mix-blend-mode:multiply" opacity="0.32">
<path d="M39.8576 564.883L8.44122 549.175L22.1859 541.131L22.0073 554.173L39.8576 564.883Z" fill="#0E1B62"/>
</g>
<g style="mix-blend-mode:multiply" opacity="0.32">
<path d="M73.9517 586.304L42.5353 570.596L56.28 562.552L56.1015 575.594L73.9517 586.304Z" fill="#0E1B62"/>
</g>
</g>
<defs>
<filter id="filter0_f_111_2376" x="25.3881" y="0.722893" width="974.398" height="974.397" filterUnits="userSpaceOnUse" color-interpolation-filters="sRGB">
<feFlood flood-opacity="0" result="BackgroundImageFix"/>
<feBlend mode="normal" in="SourceGraphic" in2="BackgroundImageFix" result="shape"/>
<feGaussianBlur stdDeviation="52.913" result="effect1_foregroundBlur_111_2376"/>
</filter>
<linearGradient id="paint0_linear_111_2376" x1="194.083" y1="537.037" x2="194.083" y2="628.419" gradientUnits="userSpaceOnUse">
<stop stop-color="#F2F2F2"/>
<stop offset="1" stop-color="#CEE2F5"/>
</linearGradient>
<linearGradient id="paint1_linear_111_2376" x1="246.206" y1="569.168" x2="246.206" y2="660.549" gradientUnits="userSpaceOnUse">
<stop stop-color="#F2F2F2"/>
<stop offset="1" stop-color="#CEE2F5"/>
</linearGradient>
<clipPath id="clip0_111_2376">
<rect width="548.611" height="607.706" fill="white" transform="translate(0.96283 180.034)"/>
</clipPath>
</defs>
</svg>
