<svg width="592" height="496" viewBox="0 0 592 496" fill="none" xmlns="http://www.w3.org/2000/svg">
<g filter="url(#filter0_f_44_127)">
<path d="M31.5208 347.801C31.5208 350.747 33.9086 353.135 36.8541 353.135C39.7996 353.135 42.1875 350.747 42.1875 347.801C42.1875 344.856 39.7996 342.468 36.8541 342.468C33.9086 342.468 31.5208 344.856 31.5208 347.801ZM123.449 180.353L124.257 179.765C124.053 179.484 123.718 179.33 123.373 179.356C123.027 179.383 122.72 179.586 122.56 179.894L123.449 180.353ZM266.293 376.444L265.484 377.033C265.705 377.335 266.076 377.489 266.446 377.432C266.816 377.374 267.123 377.115 267.242 376.76L266.293 376.444ZM350.667 123.069L351.563 122.625C351.384 122.262 351.002 122.043 350.598 122.071C350.194 122.099 349.846 122.368 349.718 122.753L350.667 123.069ZM488.33 401.414L487.434 401.857C487.619 402.232 488.018 402.452 488.434 402.409C488.85 402.365 489.195 402.068 489.299 401.663L488.33 401.414ZM574.032 47.4231C574.032 50.3686 576.42 52.7564 579.366 52.7564C582.311 52.7564 584.699 50.3686 584.699 47.4231C584.699 44.4776 582.311 42.0898 579.366 42.0898C576.42 42.0898 574.032 44.4776 574.032 47.4231ZM37.7424 348.261L124.337 180.813L122.56 179.894L35.9659 347.342L37.7424 348.261ZM122.64 180.942L265.484 377.033L267.101 375.855L124.257 179.765L122.64 180.942ZM267.242 376.76L351.616 123.384L349.718 122.753L265.344 376.128L267.242 376.76ZM349.771 123.512L487.434 401.857L489.227 400.971L351.563 122.625L349.771 123.512ZM489.299 401.663L580.334 47.6722L578.397 47.174L487.362 401.165L489.299 401.663Z" fill="#E4E4E4"/>
</g>
<g filter="url(#filter1_f_44_127)">
<path d="M-342.955 287.078C-343.801 289.899 -342.199 292.872 -339.378 293.718C-336.556 294.563 -333.583 292.961 -332.738 290.14C-331.892 287.318 -333.494 284.346 -336.315 283.5C-339.137 282.654 -342.11 284.256 -342.955 287.078ZM-206.826 153.069L-205.882 152.737C-205.997 152.41 -206.273 152.166 -206.612 152.092C-206.951 152.018 -207.304 152.125 -207.545 152.374L-206.826 153.069ZM-126.289 381.913L-127.232 382.245C-127.108 382.599 -126.796 382.853 -126.425 382.904C-126.054 382.955 -125.686 382.795 -125.471 382.489L-126.289 381.913ZM27.2736 163.426L28.2595 163.259C28.1917 162.859 27.8894 162.54 27.4941 162.451C27.0987 162.362 26.6886 162.52 26.4555 162.851L27.2736 163.426ZM79.2336 469.576L78.2477 469.743C78.3177 470.155 78.6366 470.481 79.0473 470.558C79.4581 470.636 79.8739 470.45 80.0898 470.093L79.2336 469.576ZM262.953 155.09C262.107 157.911 263.709 160.884 266.531 161.73C269.352 162.575 272.325 160.973 273.171 158.152C274.016 155.33 272.414 152.358 269.593 151.512C266.771 150.666 263.799 152.268 262.953 155.09ZM-337.128 289.304L-206.107 153.764L-207.545 152.374L-338.566 287.914L-337.128 289.304ZM-207.769 153.401L-127.232 382.245L-125.345 381.582L-205.882 152.737L-207.769 153.401ZM-125.471 382.489L28.0918 164.001L26.4555 162.851L-127.107 381.338L-125.471 382.489ZM26.2877 163.594L78.2477 469.743L80.2195 469.409L28.2595 163.259L26.2877 163.594ZM80.0898 470.093L268.918 157.137L267.206 156.104L78.3774 469.059L80.0898 470.093Z" fill="#E4E4E4"/>
</g>
<defs>
<filter id="filter0_f_44_127" x="24.5208" y="35.0898" width="567.178" height="374.324" filterUnits="userSpaceOnUse" color-interpolation-filters="sRGB">
<feFlood flood-opacity="0" result="BackgroundImageFix"/>
<feBlend mode="normal" in="SourceGraphic" in2="BackgroundImageFix" result="shape"/>
<feGaussianBlur stdDeviation="3.5" result="effect1_foregroundBlur_44_127"/>
</filter>
<filter id="filter1_f_44_127" x="-350.181" y="144.286" width="630.578" height="333.29" filterUnits="userSpaceOnUse" color-interpolation-filters="sRGB">
<feFlood flood-opacity="0" result="BackgroundImageFix"/>
<feBlend mode="normal" in="SourceGraphic" in2="BackgroundImageFix" result="shape"/>
<feGaussianBlur stdDeviation="3.5" result="effect1_foregroundBlur_44_127"/>
</filter>
</defs>
</svg>
