<svg width="77" height="77" viewBox="0 0 77 77" fill="none" xmlns="http://www.w3.org/2000/svg">
<path d="M6.94887 0.671387C3.31075 0.671387 0.345459 3.63668 0.345459 7.2748V70.1869C0.345459 73.825 3.31075 76.7903 6.94887 76.7903H38.4049C38.6152 76.7903 38.8169 76.7068 38.9656 76.5581C39.1143 76.4094 39.1978 76.2077 39.1978 75.9974V1.46429C39.1978 1.25401 39.1143 1.05234 38.9656 0.903647C38.8169 0.754953 38.6152 0.671408 38.4049 0.671387H6.94887ZM6.94887 2.2572H37.612V75.2045H6.94887C4.16764 75.2045 1.93127 72.9681 1.93127 70.1869V7.2748C1.93127 4.49357 4.16764 2.2572 6.94887 2.2572Z" fill="#193B6E"/>
<path d="M38.4049 0.671387C38.1946 0.671408 37.993 0.754953 37.8443 0.903647C37.6956 1.05234 37.612 1.25401 37.612 1.46429V75.9974C37.612 76.2077 37.6956 76.4094 37.8443 76.5581C37.993 76.7068 38.1946 76.7903 38.4049 76.7903H69.861C73.4991 76.7903 76.4644 73.825 76.4644 70.1869V7.2748C76.4644 3.63668 73.4991 0.671387 69.861 0.671387H38.4049ZM39.1978 2.2572H69.861C72.6422 2.2572 74.8786 4.49357 74.8786 7.2748V70.1869C74.8786 72.9681 72.6422 75.2045 69.861 75.2045H39.1978V2.2572Z" fill="#193B6E"/>
<path d="M45.5411 39.1509C45.3308 39.1509 45.1292 39.2344 44.9805 39.3831C44.8318 39.5318 44.7482 39.7335 44.7482 39.9438V68.8616C44.7482 69.0719 44.8318 69.2736 44.9805 69.4223C45.1292 69.5709 45.3308 69.6545 45.5411 69.6545H68.5354C68.7457 69.6545 68.9473 69.5709 69.096 69.4223C69.2447 69.2736 69.3283 69.0719 69.3283 68.8616V39.9438C69.3283 39.7335 69.2447 39.5318 69.096 39.3831C68.9473 39.2344 68.7457 39.1509 68.5354 39.1509H45.5411ZM46.334 40.7367H67.7425V68.0687H46.334V40.7367Z" fill="#193B6E"/>
<path d="M45.5411 7.80762C45.3308 7.80764 45.1292 7.89118 44.9805 8.03988C44.8318 8.18857 44.7482 8.39024 44.7482 8.60052V33.6034C44.7482 33.8137 44.8318 34.0153 44.9805 34.164C45.1292 34.3127 45.3308 34.3963 45.5411 34.3963H68.5354C68.7457 34.3963 68.9473 34.3127 69.096 34.164C69.2447 34.0153 69.3283 33.8137 69.3283 33.6034V8.60052C69.3283 8.39024 69.2447 8.18857 69.096 8.03988C68.9473 7.89118 68.7457 7.80764 68.5354 7.80762H45.5411ZM46.334 9.39343H67.7425V32.8105H46.334V9.39343Z" fill="#193B6E"/>
<path d="M13.354 12.9058C11.4888 12.9058 9.96097 14.436 9.96097 16.3004V16.8594C9.96097 18.7247 11.4896 20.2525 13.354 20.2525C14.3622 20.2525 15.1613 21.0539 15.1613 22.0613V22.6204C15.1613 23.6286 14.3615 24.4292 13.354 24.4292H10.7539C10.5436 24.4292 10.3419 24.5128 10.1932 24.6615C10.0445 24.8102 9.96097 25.0118 9.96097 25.2221C9.96097 25.4324 10.0445 25.6341 10.1932 25.7828C10.3419 25.9315 10.5436 26.015 10.7539 26.015H13.354C15.2185 26.015 16.7471 24.4857 16.7471 22.6204V22.0613C16.7471 20.1969 15.2193 18.6667 13.354 18.6667C12.3466 18.6667 11.5468 17.8676 11.5468 16.8594V16.3004C11.5468 15.2929 12.3458 14.4916 13.354 14.4916H15.9542C16.1645 14.4916 16.3662 14.408 16.5149 14.2593C16.6636 14.1106 16.7471 13.909 16.7471 13.6987C16.7471 13.4884 16.6636 13.2867 16.5149 13.138C16.3662 12.9893 16.1645 12.9058 15.9542 12.9058H13.354Z" fill="#193B6E"/>
<path d="M13.3541 24.4292C13.1438 24.4292 12.9421 24.5127 12.7934 24.6614C12.6447 24.8101 12.5612 25.0118 12.5612 25.2221V26.842C12.5612 27.0523 12.6447 27.254 12.7934 27.4027C12.9421 27.5514 13.1438 27.6349 13.3541 27.6349C13.5644 27.6349 13.766 27.5514 13.9147 27.4027C14.0634 27.254 14.147 27.0523 14.147 26.842V25.2221C14.147 25.0118 14.0634 24.8101 13.9147 24.6614C13.766 24.5127 13.5644 24.4292 13.3541 24.4292Z" fill="#193B6E"/>
<path d="M13.3541 11.2856C13.1438 11.2856 12.9421 11.3692 12.7934 11.5179C12.6447 11.6666 12.5612 11.8683 12.5612 12.0785V13.7C12.5612 13.9103 12.6447 14.112 12.7934 14.2606C12.9421 14.4093 13.1438 14.4929 13.3541 14.4929C13.5644 14.4929 13.766 14.4093 13.9147 14.2606C14.0634 14.112 14.147 13.9103 14.147 13.7V12.0785C14.147 11.8683 14.0634 11.6666 13.9147 11.5179C13.766 11.3692 13.5644 11.2856 13.3541 11.2856Z" fill="#193B6E"/>
<path d="M25.1284 12.9058C23.2631 12.9058 21.7338 14.436 21.7338 16.3004V16.8594C21.7338 18.7247 23.264 20.2525 25.1284 20.2525C26.1366 20.2525 26.9357 21.0539 26.9357 22.0613V22.6204C26.9357 23.6286 26.1359 24.4292 25.1284 24.4292H22.5267C22.3164 24.4292 22.1147 24.5128 21.966 24.6615C21.8173 24.8102 21.7338 25.0118 21.7338 25.2221C21.7338 25.4324 21.8173 25.6341 21.966 25.7828C22.1147 25.9315 22.3164 26.015 22.5267 26.015H25.1284C26.9928 26.015 28.5215 24.4857 28.5215 22.6204V22.0613C28.5215 20.1969 26.9937 18.6667 25.1284 18.6667C24.1209 18.6667 23.3196 17.8676 23.3196 16.8594V16.3004C23.3196 15.2929 24.1202 14.4916 25.1284 14.4916H27.7286C27.9389 14.4916 28.1405 14.408 28.2892 14.2593C28.4379 14.1106 28.5215 13.909 28.5215 13.6987C28.5215 13.4884 28.4379 13.2867 28.2892 13.138C28.1405 12.9893 27.9389 12.9058 27.7286 12.9058H25.1284Z" fill="#193B6E"/>
<path d="M25.1284 24.4292C24.9181 24.4292 24.7164 24.5127 24.5677 24.6614C24.419 24.8101 24.3354 25.0118 24.3354 25.2221V26.842C24.3354 27.0523 24.419 27.254 24.5677 27.4027C24.7164 27.5514 24.9181 27.6349 25.1284 27.6349C25.3386 27.6349 25.5403 27.5514 25.689 27.4027C25.8377 27.254 25.9213 27.0523 25.9213 26.842V25.2221C25.9213 25.0118 25.8377 24.8101 25.689 24.6614C25.5403 24.5127 25.3386 24.4292 25.1284 24.4292Z" fill="#193B6E"/>
<path d="M25.1284 11.2856C24.9181 11.2856 24.7164 11.3692 24.5677 11.5179C24.419 11.6666 24.3354 11.8683 24.3354 12.0785V13.7C24.3354 13.9103 24.419 14.112 24.5677 14.2606C24.7164 14.4093 24.9181 14.4929 25.1284 14.4929C25.3386 14.4929 25.5403 14.4093 25.689 14.2606C25.8377 14.112 25.9213 13.9103 25.9213 13.7V12.0785C25.9213 11.8683 25.8377 11.6666 25.689 11.5179C25.5403 11.3692 25.3386 11.2856 25.1284 11.2856Z" fill="#193B6E"/>
<path d="M10.7539 36.1465C10.5436 36.1465 10.3419 36.23 10.1932 36.3787C10.0445 36.5274 9.96097 36.7291 9.96097 36.9394C9.96097 37.1497 10.0445 37.3514 10.1932 37.5001C10.3419 37.6488 10.5436 37.7323 10.7539 37.7323H28.7894C28.9997 37.7323 29.2013 37.6488 29.35 37.5001C29.4987 37.3514 29.5823 37.1497 29.5823 36.9394C29.5823 36.7291 29.4987 36.5274 29.35 36.3787C29.2013 36.23 28.9997 36.1465 28.7894 36.1465H10.7539Z" fill="#193B6E"/>
<path d="M10.7539 43.2573C10.5436 43.2573 10.3419 43.3409 10.1932 43.4896C10.0445 43.6383 9.96097 43.8399 9.96097 44.0502C9.96097 44.2605 10.0445 44.4622 10.1932 44.6109C10.3419 44.7596 10.5436 44.8431 10.7539 44.8431H28.7894C28.9997 44.8431 29.2013 44.7596 29.35 44.6109C29.4987 44.4622 29.5823 44.2605 29.5823 44.0502C29.5823 43.8399 29.4987 43.6383 29.35 43.4896C29.2013 43.3409 28.9997 43.2573 28.7894 43.2573H10.7539Z" fill="#193B6E"/>
<path d="M10.7539 50.3687C10.5436 50.3687 10.3419 50.4522 10.1932 50.6009C10.0445 50.7496 9.96097 50.9513 9.96097 51.1616C9.96097 51.3718 10.0445 51.5735 10.1932 51.7222C10.3419 51.8709 10.5436 51.9545 10.7539 51.9545H28.7894C28.9997 51.9545 29.2013 51.8709 29.35 51.7222C29.4987 51.5735 29.5823 51.3718 29.5823 51.1616C29.5823 50.9513 29.4987 50.7496 29.35 50.6009C29.2013 50.4522 28.9997 50.3687 28.7894 50.3687H10.7539Z" fill="#193B6E"/>
<path d="M10.7539 57.479C10.5436 57.479 10.3419 57.5625 10.1932 57.7112C10.0445 57.8599 9.96097 58.0616 9.96097 58.2719C9.96097 58.4822 10.0445 58.6839 10.1932 58.8326C10.3419 58.9813 10.5436 59.0648 10.7539 59.0648H28.7894C28.9997 59.0648 29.2013 58.9813 29.35 58.8326C29.4987 58.6839 29.5823 58.4822 29.5823 58.2719C29.5823 58.0616 29.4987 57.8599 29.35 57.7112C29.2013 57.5625 28.9997 57.479 28.7894 57.479H10.7539Z" fill="#193B6E"/>
<path d="M15.4556 64.5903C15.2453 64.5903 15.0436 64.6739 14.8949 64.8226C14.7462 64.9713 14.6627 65.1729 14.6627 65.3832C14.6627 65.5935 14.7462 65.7952 14.8949 65.9439C15.0436 66.0926 15.2453 66.1761 15.4556 66.1761H24.0877C24.298 66.1761 24.4997 66.0926 24.6484 65.9439C24.7971 65.7952 24.8806 65.5935 24.8806 65.3832C24.8806 65.1729 24.7971 64.9713 24.6484 64.8226C24.4997 64.6739 24.298 64.5903 24.0877 64.5903H15.4556Z" fill="#193B6E"/>
<path d="M65.4891 14.3585C65.3332 14.2175 65.1277 14.1441 64.9177 14.1546C64.7078 14.165 64.5106 14.2584 64.3695 14.4142L63.0686 15.8529L61.4874 14.3678C61.3407 14.23 61.147 14.1531 60.9457 14.1528C60.7444 14.1525 60.5505 14.2288 60.4034 14.3662L56.1477 18.3323L53.865 16.3825C53.7214 16.26 53.5389 16.1926 53.3501 16.1926C53.1613 16.1926 52.9787 16.26 52.8352 16.3825L48.6043 19.9847C48.4445 20.121 48.3453 20.3151 48.3284 20.5244C48.3116 20.7338 48.3785 20.9412 48.5144 21.1013C48.5819 21.1806 48.6644 21.2459 48.7571 21.2934C48.8499 21.3408 48.9511 21.3695 49.0549 21.3779C49.1587 21.3862 49.2632 21.374 49.3623 21.342C49.4614 21.3099 49.5533 21.2587 49.6326 21.1911L53.3493 18.0272L55.6552 19.9971C55.8033 20.1232 55.9925 20.1906 56.187 20.1863C56.3814 20.182 56.5675 20.1064 56.7099 19.9739L60.9423 16.0326L62.5699 17.5626C62.6467 17.635 62.7371 17.6914 62.8359 17.7284C62.9348 17.7654 63.04 17.7823 63.1454 17.7781C63.2508 17.7739 63.3544 17.7487 63.4499 17.704C63.5455 17.6593 63.6312 17.596 63.702 17.5177L65.5464 15.4782C65.6873 15.3221 65.7603 15.1164 65.7496 14.9065C65.7389 14.6965 65.6452 14.4994 65.4891 14.3585Z" fill="#193B6E"/>
<path d="M49.1185 24.0044C48.9082 24.0044 48.7065 24.0879 48.5578 24.2366C48.4091 24.3853 48.3256 24.587 48.3256 24.7973V27.2581C48.3256 27.4684 48.4091 27.6701 48.5578 27.8188C48.7065 27.9675 48.9082 28.051 49.1185 28.051C49.3288 28.051 49.5304 27.9675 49.6791 27.8188C49.8278 27.6701 49.9114 27.4684 49.9114 27.2581V24.7973C49.9114 24.587 49.8278 24.3853 49.6791 24.2366C49.5304 24.0879 49.3288 24.0044 49.1185 24.0044Z" fill="#193B6E"/>
<path d="M53.004 20.8203C52.7937 20.8203 52.592 20.9038 52.4433 21.0525C52.2946 21.2012 52.2111 21.4029 52.2111 21.6132V27.258C52.2111 27.4683 52.2946 27.67 52.4433 27.8187C52.592 27.9674 52.7937 28.0509 53.004 28.0509C53.2143 28.0509 53.4159 27.9674 53.5646 27.8187C53.7133 27.67 53.7969 27.4683 53.7969 27.258V21.6132C53.7969 21.4029 53.7133 21.2012 53.5646 21.0525C53.4159 20.9038 53.2143 20.8203 53.004 20.8203Z" fill="#193B6E"/>
<path d="M56.8911 24.0044C56.6808 24.0044 56.4791 24.0879 56.3304 24.2366C56.1817 24.3853 56.0982 24.587 56.0982 24.7973V27.2581C56.0982 27.4684 56.1817 27.6701 56.3304 27.8188C56.4791 27.9675 56.6808 28.051 56.8911 28.051C57.1014 28.051 57.3031 27.9675 57.4518 27.8188C57.6004 27.6701 57.684 27.4684 57.684 27.2581V24.7973C57.684 24.587 57.6004 24.3853 57.4518 24.2366C57.3031 24.0879 57.1014 24.0044 56.8911 24.0044Z" fill="#193B6E"/>
<path d="M60.7782 19.7939C60.5679 19.7939 60.3662 19.8775 60.2175 20.0262C60.0688 20.1749 59.9853 20.3766 59.9853 20.5869V27.2584C59.9853 27.4687 60.0688 27.6704 60.2175 27.8191C60.3662 27.9678 60.5679 28.0513 60.7782 28.0513C60.9885 28.0513 61.1901 27.9678 61.3388 27.8191C61.4875 27.6704 61.5711 27.4687 61.5711 27.2584V20.5869C61.5711 20.3766 61.4875 20.1749 61.3388 20.0262C61.1901 19.8775 60.9885 19.7939 60.7782 19.7939Z" fill="#193B6E"/>
<path d="M64.6638 18.7163C64.4535 18.7163 64.2518 18.7998 64.1031 18.9485C63.9544 19.0972 63.8708 19.2989 63.8708 19.5092V27.2586C63.8708 27.4689 63.9544 27.6706 64.1031 27.8193C64.2518 27.968 64.4535 28.0515 64.6638 28.0515C64.874 28.0515 65.0757 27.968 65.2244 27.8193C65.3731 27.6706 65.4567 27.4689 65.4567 27.2586V19.5092C65.4567 19.2989 65.3731 19.0972 65.2244 18.9485C65.0757 18.7998 64.874 18.7163 64.6638 18.7163Z" fill="#193B6E"/>
<path d="M50.2923 43.9844C50.082 43.9844 49.8803 44.0679 49.7316 44.2166C49.5829 44.3653 49.4994 44.567 49.4994 44.7773C49.4994 44.9876 49.5829 45.1893 49.7316 45.3379C49.8803 45.4866 50.082 45.5702 50.2923 45.5702H57.9519C58.1621 45.5702 58.3638 45.4866 58.5125 45.3379C58.6612 45.1893 58.7448 44.9876 58.7448 44.7773C58.7448 44.567 58.6612 44.3653 58.5125 44.2166C58.3638 44.0679 58.1621 43.9844 57.9519 43.9844H50.2923Z" fill="#193B6E"/>
<path d="M62.1828 43.9844C61.9725 43.9844 61.7709 44.0679 61.6222 44.2166C61.4735 44.3653 61.3899 44.567 61.3899 44.7773C61.3899 44.9876 61.4735 45.1893 61.6222 45.3379C61.7709 45.4866 61.9725 45.5702 62.1828 45.5702H63.7841C63.9944 45.5702 64.1961 45.4866 64.3448 45.3379C64.4935 45.1893 64.577 44.9876 64.577 44.7773C64.577 44.567 64.4935 44.3653 64.3448 44.2166C64.1961 44.0679 63.9944 43.9844 63.7841 43.9844H62.1828Z" fill="#193B6E"/>
<path d="M56.1245 48.7964C55.9142 48.7964 55.7125 48.8799 55.5638 49.0286C55.4151 49.1773 55.3316 49.379 55.3316 49.5893C55.3316 49.7996 55.4151 50.0013 55.5638 50.15C55.7125 50.2987 55.9142 50.3822 56.1245 50.3822H63.7841C63.9944 50.3822 64.1961 50.2987 64.3448 50.15C64.4935 50.0013 64.577 49.7996 64.577 49.5893C64.577 49.379 64.4935 49.1773 64.3448 49.0286C64.1961 48.8799 63.9944 48.7964 63.7841 48.7964H56.1245Z" fill="#193B6E"/>
<path d="M50.2923 48.7964C50.082 48.7964 49.8803 48.8799 49.7316 49.0286C49.5829 49.1773 49.4994 49.379 49.4994 49.5893C49.4994 49.7996 49.5829 50.0013 49.7316 50.15C49.8803 50.2987 50.082 50.3822 50.2923 50.3822H51.8936C52.1039 50.3822 52.3055 50.2987 52.4542 50.15C52.6029 50.0013 52.6865 49.7996 52.6865 49.5893C52.6865 49.379 52.6029 49.1773 52.4542 49.0286C52.3055 48.8799 52.1039 48.7964 51.8936 48.7964H50.2923Z" fill="#193B6E"/>
<path d="M50.2923 53.6094C50.082 53.6094 49.8803 53.6929 49.7316 53.8416C49.5829 53.9903 49.4994 54.192 49.4994 54.4023C49.4994 54.6126 49.5829 54.8143 49.7316 54.9629C49.8803 55.1116 50.082 55.1952 50.2923 55.1952H57.9519C58.1621 55.1952 58.3638 55.1116 58.5125 54.9629C58.6612 54.8143 58.7448 54.6126 58.7448 54.4023C58.7448 54.192 58.6612 53.9903 58.5125 53.8416C58.3638 53.6929 58.1621 53.6094 57.9519 53.6094H50.2923Z" fill="#193B6E"/>
<path d="M62.1828 53.6094C61.9725 53.6094 61.7709 53.6929 61.6222 53.8416C61.4735 53.9903 61.3899 54.192 61.3899 54.4023C61.3899 54.6126 61.4735 54.8143 61.6222 54.9629C61.7709 55.1116 61.9725 55.1952 62.1828 55.1952H63.7841C63.9944 55.1952 64.1961 55.1116 64.3448 54.9629C64.4935 54.8143 64.577 54.6126 64.577 54.4023C64.577 54.192 64.4935 53.9903 64.3448 53.8416C64.1961 53.6929 63.9944 53.6094 63.7841 53.6094H62.1828Z" fill="#193B6E"/>
<path d="M56.1245 58.4229C55.9142 58.4229 55.7125 58.5064 55.5638 58.6551C55.4151 58.8038 55.3316 59.0055 55.3316 59.2158C55.3316 59.426 55.4151 59.6277 55.5638 59.7764C55.7125 59.9251 55.9142 60.0087 56.1245 60.0087H63.7841C63.9944 60.0087 64.1961 59.9251 64.3448 59.7764C64.4935 59.6277 64.577 59.426 64.577 59.2158C64.577 59.0055 64.4935 58.8038 64.3448 58.6551C64.1961 58.5064 63.9944 58.4229 63.7841 58.4229H56.1245Z" fill="#193B6E"/>
<path d="M50.2923 58.4229C50.082 58.4229 49.8803 58.5064 49.7316 58.6551C49.5829 58.8038 49.4994 59.0055 49.4994 59.2158C49.4994 59.426 49.5829 59.6277 49.7316 59.7764C49.8803 59.9251 50.082 60.0087 50.2923 60.0087H51.8936C52.1039 60.0087 52.3055 59.9251 52.4542 59.7764C52.6029 59.6277 52.6865 59.426 52.6865 59.2158C52.6865 59.0055 52.6029 58.8038 52.4542 58.6551C52.3055 58.5064 52.1039 58.4229 51.8936 58.4229H50.2923Z" fill="#193B6E"/>
<path d="M50.2923 63.2349C50.082 63.2349 49.8803 63.3184 49.7316 63.4671C49.5829 63.6158 49.4994 63.8175 49.4994 64.0278C49.4994 64.2381 49.5829 64.4397 49.7316 64.5884C49.8803 64.7371 50.082 64.8207 50.2923 64.8207H57.9519C58.1621 64.8207 58.3638 64.7371 58.5125 64.5884C58.6612 64.4397 58.7448 64.2381 58.7448 64.0278C58.7448 63.8175 58.6612 63.6158 58.5125 63.4671C58.3638 63.3184 58.1621 63.2349 57.9519 63.2349H50.2923Z" fill="#193B6E"/>
<path d="M62.1828 63.2349C61.9725 63.2349 61.7709 63.3184 61.6222 63.4671C61.4735 63.6158 61.3899 63.8175 61.3899 64.0278C61.3899 64.2381 61.4735 64.4397 61.6222 64.5884C61.7709 64.7371 61.9725 64.8207 62.1828 64.8207H63.7841C63.9944 64.8207 64.1961 64.7371 64.3448 64.5884C64.4935 64.4397 64.577 64.2381 64.577 64.0278C64.577 63.8175 64.4935 63.6158 64.3448 63.4671C64.1961 63.3184 63.9944 63.2349 63.7841 63.2349H62.1828Z" fill="#193B6E"/>
</svg>
