<svg width="77" height="72" viewBox="0 0 77 72" fill="none" xmlns="http://www.w3.org/2000/svg">
<path d="M30.5798 14.6437V4.59262C30.5798 3.1195 29.3856 1.92529 27.9125 1.92529H10.6367C9.16355 1.92529 7.96936 3.1195 7.96936 4.59262V14.6437" stroke="#193B6E" stroke-width="2.11973"/>
<path d="M68.7351 14.6437V4.59262C68.7351 3.1195 67.5409 1.92529 66.0678 1.92529H48.792C47.3188 1.92529 46.1246 3.1195 46.1246 4.59262V14.6437" stroke="#193B6E" stroke-width="2.11973"/>
<path d="M24.2207 16.0566V6.87109" stroke="#193B6E" stroke-width="2.11973" stroke-linecap="round"/>
<path d="M62.3757 16.0566V6.87109" stroke="#193B6E" stroke-width="2.11973" stroke-linecap="round"/>
<path d="M73.8401 15.7041H2.86442C1.97664 15.7041 1.25696 16.4238 1.25696 17.3116V69.2096C1.25696 70.0974 1.97664 70.8171 2.86442 70.8171H73.8401C74.7279 70.8171 75.4475 70.0974 75.4475 69.2096V17.3116C75.4475 16.4238 74.7279 15.7041 73.8401 15.7041Z" stroke="#193B6E" stroke-width="2.11973"/>
<path d="M47.4367 60.5715H52.4837C54.7136 60.5715 56.5213 58.8492 56.5213 56.7247V51.9161M56.5213 52.8778V50.7121C57.1666 50.8703 57.843 50.9545 58.5401 50.9545C62.9999 50.9545 66.6153 47.5099 66.6153 43.2608C66.6153 39.0118 62.9999 35.5672 58.5401 35.5672C57.843 35.5672 57.1666 35.6514 56.5213 35.8096V29.797C56.5213 27.6724 54.7136 25.9501 52.4837 25.9501L45.418 25.9492C46.0611 27.0535 46.4274 28.3244 46.4274 29.6768C46.4274 33.9258 42.812 37.3704 38.3522 37.3704C33.8924 37.3704 30.277 33.9258 30.277 29.6768C30.277 28.3244 30.6433 27.0535 31.2864 25.9492L24.2206 25.9501C21.9908 25.9501 20.1831 27.6724 20.1831 29.797V35.8096C19.5378 35.6514 18.8613 35.5672 18.1643 35.5672C13.7045 35.5672 10.0891 39.0118 10.0891 43.2608C10.0891 47.5099 13.7045 50.9545 18.1643 50.9545C18.8613 50.9545 19.5378 50.8703 20.1831 50.7121V56.7247C20.1831 58.8492 21.9908 60.5715 24.2206 60.5715H31.3574C30.6703 59.4398 30.277 58.126 30.277 56.7247C30.277 52.4756 33.8924 49.031 38.3522 49.031C42.812 49.031 46.4274 52.4756 46.4274 56.7247C46.4274 58.126 46.0341 59.4398 45.347 60.5715H49.4556" stroke="#193B6E" stroke-width="2.11973"/>
</svg>
