<svg width="79" height="79" viewBox="0 0 79 79" fill="none" xmlns="http://www.w3.org/2000/svg">
<path d="M47.2323 1.92529H75.0969C76.4559 1.92529 77.5577 3.02703 77.5577 4.38609V32.7451C77.5577 34.1041 76.4559 35.2058 75.0969 35.2058H68.2108C66.6815 35.2058 65.2535 35.9708 64.4062 37.2439L61.9535 40.9295C61.5361 41.5566 60.6149 41.5566 60.1975 40.9295L57.7447 37.2439C56.8974 35.9708 55.4695 35.2058 53.9402 35.2058H47.2323C45.8733 35.2058 44.7715 34.1041 44.7715 32.745V4.38609C44.7715 3.02703 45.8733 1.92529 47.2323 1.92529Z" stroke="#193B6E" stroke-width="1.96034"/>
<path d="M71.2454 21.635L70.0056 20.4462C69.4524 19.9158 69.1396 19.1826 69.1396 18.4161V16.9414C69.137 15.0931 68.4198 13.3114 67.1265 11.9407C66.1516 10.9076 65.3047 10.1632 64.1252 9.77924C63.3781 9.53598 62.7129 9.01759 62.5105 8.2584L62.3382 7.61207C62.22 7.16879 61.8186 6.86035 61.3599 6.86035C60.9011 6.86035 60.4997 7.16879 60.3815 7.61207L60.2092 8.2584C60.0068 9.01759 59.3416 9.53598 58.5945 9.77924C57.4151 10.1632 56.5681 10.9076 55.5932 11.9407C54.2999 13.3114 53.5826 15.0931 53.5802 16.9414V18.4161C53.5802 19.1826 53.2674 19.9158 52.7141 20.4462L51.4741 21.635C51.3283 21.7749 51.2463 21.9645 51.2462 22.1623V24.3999C51.2462 24.5977 51.3282 24.7874 51.4741 24.9273C51.62 25.0672 51.8179 25.1457 52.0242 25.1457H56.8906C57.2106 25.1457 57.47 25.4052 57.47 25.7251C57.4531 26.6713 57.8011 27.5901 58.4471 28.3057C59.0931 29.0211 59.9917 29.4829 60.9709 29.6026C61.5117 29.654 62.0577 29.5964 62.5739 29.4333C63.09 29.2704 63.565 29.0055 63.968 28.656C64.371 28.3065 64.6932 27.8799 64.914 27.4038C65.1347 26.9278 65.2491 26.4126 65.2497 25.8916C65.2497 25.4797 65.5837 25.1457 65.9955 25.1457H70.6956C70.9016 25.1457 71.0999 25.0672 71.2454 24.9273C71.3916 24.7874 71.4732 24.5977 71.4732 24.3999V22.1623C71.4732 21.9645 71.3916 21.7749 71.2454 21.635Z" stroke="#193B6E" stroke-width="1.96034"/>
<path d="M52.0943 24.8291H70.51" stroke="#193B6E" stroke-width="1.96034" stroke-linecap="round"/>
<path d="M73.6563 42.5506V65.738C73.6563 66.5146 73.0263 67.1442 72.2501 67.1442H2.84599C2.06938 67.1442 1.43982 66.5146 1.43982 65.738V17.5414C1.43982 16.7649 2.06939 16.1353 2.84599 16.1353H38.9348" stroke="#193B6E" stroke-width="1.96034" stroke-linecap="round"/>
<path d="M1.79413 57.9971H73.3026" stroke="#193B6E" stroke-width="1.96034" stroke-linecap="round"/>
<path d="M32.3089 67.3267V77.289" stroke="#193B6E" stroke-width="1.96034" stroke-linecap="round"/>
<path d="M42.7523 67.3267V77.289" stroke="#193B6E" stroke-width="1.96034" stroke-linecap="round"/>
<path d="M20.0634 77.5371H54.9594" stroke="#193B6E" stroke-width="1.96034" stroke-linecap="round"/>
<path d="M14.1916 48.0151C14.1916 49.5744 12.9712 50.7862 11.5293 50.7862C10.0873 50.7862 8.86688 49.5744 8.86688 48.0151C8.86688 46.4559 10.0873 45.2441 11.5293 45.2441C12.9712 45.2441 14.1916 46.4559 14.1916 48.0151Z" stroke="#193B6E" stroke-width="1.96034"/>
<path d="M24.8113 32.7125C24.8113 34.2717 23.5909 35.4835 22.1489 35.4835C20.707 35.4835 19.4866 34.2717 19.4866 32.7125C19.4866 31.1532 20.707 29.9414 22.1489 29.9414C23.5909 29.9414 24.8113 31.1532 24.8113 32.7125Z" stroke="#193B6E" stroke-width="1.96034"/>
<path d="M42.8656 48.0151C42.8656 49.5744 41.6452 50.7862 40.2033 50.7862C38.7613 50.7862 37.5409 49.5744 37.5409 48.0151C37.5409 46.4559 38.7613 45.2441 40.2033 45.2441C41.6452 45.2441 42.8656 46.4559 42.8656 48.0151Z" stroke="#193B6E" stroke-width="1.96034"/>
<path d="M13.4759 45.2832L20.202 35.4458" stroke="#193B6E" stroke-width="1.96034" stroke-linecap="round"/>
<path d="M42.3753 45.074L45.7306 41.6206" stroke="#193B6E" stroke-width="1.96034" stroke-linecap="round"/>
<path d="M37.5484 45.6482L24.4504 35.082" stroke="#193B6E" stroke-width="1.96034" stroke-linecap="round"/>
<path d="M36.3351 62.3413H39.355" stroke="#193B6E" stroke-width="1.96034" stroke-linecap="round"/>
</svg>
