<svg width="16" height="16" viewBox="0 0 16 16" fill="none" xmlns="http://www.w3.org/2000/svg">
<path d="M12.8175 8.59298C11.9514 7.75656 10.8877 7.15293 9.72556 6.83831C10.4188 6.42785 10.958 5.80098 11.2602 5.05414C11.5624 4.30729 11.6108 3.48185 11.398 2.70479C11.1852 1.92774 10.723 1.24212 10.0825 0.753416C9.44201 0.264713 8.65867 0 7.85301 0C7.04734 0 6.264 0.264713 5.62348 0.753416C4.98296 1.24212 4.52076 1.92774 4.30798 2.70479C4.09519 3.48185 4.14362 4.30729 4.4458 5.05414C4.74799 5.80098 5.28719 6.42785 5.98045 6.83831C4.4567 7.24895 3.11041 8.14959 2.1493 9.40127C1.18819 10.653 0.665658 12.1861 0.662327 13.7642C0.660445 13.9618 0.670771 14.1593 0.693246 14.3556C0.703755 14.4505 0.749069 14.5382 0.820443 14.6018C0.891817 14.6653 0.984192 14.7001 1.07974 14.6995H9.91494C10.5307 15.2008 11.3008 15.4739 12.0948 15.4725C12.9532 15.4709 13.7808 15.1519 14.4183 14.5769C15.0557 14.0018 15.458 13.2113 15.5477 12.3575C15.6374 11.5037 15.4082 10.6469 14.9041 9.95196C14.4001 9.25699 13.6569 8.77295 12.8175 8.59298ZM4.94465 3.68453C4.94465 3.11123 5.11466 2.5508 5.43317 2.07411C5.75168 1.59742 6.2044 1.22589 6.73406 1.0065C7.26373 0.7871 7.84656 0.729697 8.40885 0.841543C8.97114 0.95339 9.48764 1.22946 9.89302 1.63485C10.2984 2.04024 10.5745 2.55674 10.6863 3.11903C10.7982 3.68132 10.7408 4.26415 10.5214 4.79381C10.302 5.32348 9.93045 5.77619 9.45377 6.0947C8.97708 6.41322 8.41665 6.58322 7.84334 6.58322C7.07456 6.58322 6.33727 6.27782 5.79366 5.73422C5.25005 5.19061 4.94465 4.45331 4.94465 3.68453ZM1.43531 13.7642C1.43393 12.5862 1.75769 11.4307 2.37093 10.4249C2.98418 9.41908 3.86312 8.60203 4.91095 8.06373C5.95877 7.52543 7.13484 7.28676 8.30962 7.374C9.48439 7.46124 10.6123 7.87102 11.5691 8.55819C10.9912 8.64701 10.445 8.88008 9.98095 9.23586C9.51693 9.59165 9.15009 10.0587 8.91433 10.5938C8.67857 11.1288 8.5815 11.7147 8.63209 12.2972C8.68269 12.8798 8.87931 13.4401 9.20379 13.9266H1.43918C1.43531 13.8725 1.43531 13.8183 1.43531 13.7642ZM12.0948 14.6995C11.5597 14.6995 11.0366 14.5409 10.5917 14.2436C10.1468 13.9463 9.80002 13.5238 9.59525 13.0294C9.39048 12.5351 9.3369 11.9911 9.44129 11.4663C9.54568 10.9415 9.80335 10.4594 10.1817 10.0811C10.5601 9.70271 11.0421 9.44504 11.5669 9.34065C12.0917 9.23626 12.6357 9.28983 13.1301 9.4946C13.6244 9.69937 14.047 10.0461 14.3442 10.491C14.6415 10.9359 14.8002 11.459 14.8002 11.9941C14.8002 12.7116 14.5152 13.3998 14.0078 13.9071C13.5004 14.4145 12.8123 14.6995 12.0948 14.6995Z" fill="#8D99B5"/>
<path d="M12.9605 12.632C12.9245 12.6682 12.8818 12.6969 12.8347 12.7166C12.7876 12.7362 12.7371 12.7463 12.686 12.7463C12.635 12.7463 12.5845 12.7362 12.5374 12.7166C12.4903 12.6969 12.4476 12.6682 12.4116 12.632L11.457 11.6773C11.4208 11.6414 11.392 11.5987 11.3724 11.5516C11.3528 11.5045 11.3427 11.4539 11.3427 11.4029C11.3427 11.3519 11.3528 11.3014 11.3724 11.2543C11.392 11.2072 11.4208 11.1644 11.457 11.1285C11.529 11.0561 11.5694 10.9581 11.5694 10.856C11.5694 10.7539 11.529 10.656 11.457 10.5836C11.4211 10.5473 11.3783 10.5186 11.3312 10.499C11.2841 10.4793 11.2336 10.4692 11.1826 10.4692C11.1316 10.4692 11.0811 10.4793 11.034 10.499C10.9869 10.5186 10.9441 10.5473 10.9082 10.5836C10.6911 10.801 10.5691 11.0957 10.5691 11.4029C10.5691 11.7102 10.6911 12.0049 10.9082 12.2223L11.8667 13.1808C12.0841 13.3979 12.3788 13.5199 12.686 13.5199C12.9933 13.5199 13.288 13.3979 13.5054 13.1808C13.5416 13.1449 13.5704 13.1021 13.59 13.055C13.6096 13.0079 13.6197 12.9574 13.6197 12.9064C13.6197 12.8554 13.6096 12.8048 13.59 12.7577C13.5704 12.7106 13.5416 12.6679 13.5054 12.632C13.433 12.56 13.335 12.5196 13.2329 12.5196C13.1308 12.5196 13.0329 12.56 12.9605 12.632Z" fill="#8D99B5"/>
</svg>
