<svg width="69" height="61" viewBox="0 0 69 61" fill="none" xmlns="http://www.w3.org/2000/svg">
<path d="M64.6278 29.6125C64.2606 29.6125 49.5194 29.6125 49.8867 29.6125C50.6735 28.8781 51.1457 27.8813 51.1457 26.7272V4.16958C51.1457 2.01874 49.4145 0.235107 47.2112 0.235107C46.6866 0.235107 21.2961 0.235107 21.8207 0.235107C19.6699 0.235107 17.8863 1.96628 17.8863 4.16958V26.7272C17.8863 27.8813 18.3584 28.8781 19.1453 29.6125C18.883 29.6125 3.82708 29.6125 4.24676 29.6125C2.09591 29.6125 0.364746 31.3437 0.364746 33.547V56.1046C0.364746 58.2555 2.09591 60.0391 4.29922 60.0391H29.6897C31.8405 60.0391 33.6242 58.3079 33.6242 56.1046V33.547C33.6242 32.3929 33.152 31.3961 32.3651 30.6617H36.6144C35.8275 31.3961 35.3553 32.3929 35.3553 33.547V56.1046C35.3553 58.2555 37.0865 60.0391 39.2898 60.0391H64.6803C66.8311 60.0391 68.6147 58.3079 68.6147 56.1046V33.547C68.5623 31.3437 66.8311 29.6125 64.6278 29.6125ZM49.0998 30.6617H54.608V33.0748H49.0998V30.6617ZM37.1914 3.7499H31.6832V1.33676H37.1914V3.7499ZM19.6174 33.0748H14.1092V30.6617H19.565V33.0748H19.6174ZM32.5225 33.547V56.1046C32.5225 57.6784 31.2635 58.9899 29.6372 58.9899H4.29922C2.72543 58.9899 1.41394 57.7309 1.41394 56.1046V33.547C1.41394 31.9732 2.67297 30.6617 4.29922 30.6617H13.1124V33.5994C13.1124 33.9142 13.3223 34.124 13.637 34.124H20.1945C20.5092 34.124 20.7191 33.9142 20.7191 33.5994V30.6617C20.8765 30.6617 29.8995 30.6617 29.7421 30.6617C31.2635 30.6617 32.5225 31.9207 32.5225 33.547ZM21.8207 29.6125C20.247 29.6125 18.9355 28.3535 18.9355 26.7272V4.16958C18.9355 2.59579 20.1945 1.2843 21.8207 1.2843H30.634V4.22204C30.634 4.5368 30.8438 4.74664 31.1586 4.74664H37.716C38.0308 4.74664 38.2406 4.5368 38.2406 4.22204V1.2843H47.2637C48.8375 1.2843 50.1489 2.54333 50.1489 4.16958V26.7272C50.1489 28.301 48.8899 29.6125 47.2637 29.6125C46.3194 29.6125 21.4535 29.6125 21.8207 29.6125ZM67.5131 56.0522C67.5131 57.626 66.2541 58.9375 64.6278 58.9375H39.2373C37.6636 58.9375 36.3521 57.6784 36.3521 56.0522V33.4945C36.3521 31.9207 37.6111 30.6092 39.2373 30.6092C42.6997 30.6092 44.4833 30.6092 48.0506 30.6092V33.547C48.0506 33.8617 48.2604 34.0716 48.5752 34.0716H55.1326C55.4474 34.0716 55.6572 33.8617 55.6572 33.547V30.6617H64.6803C66.2541 30.6617 67.5656 31.9207 67.5656 33.547V56.0522H67.5131Z" fill="#193B6E"/>
</svg>
