<svg width="69" height="69" viewBox="0 0 69 69" fill="none" xmlns="http://www.w3.org/2000/svg">
<path d="M6.19117 61.4524C6.19117 61.9259 6.57431 62.309 7.0478 62.309H14.2798C19.9042 66.3923 26.8131 68.8091 34.2795 68.8091C53.0963 68.8091 68.4045 53.5009 68.4045 34.6841C68.4045 24.1154 63.5747 14.6544 56.0071 8.39013H60.9717C61.4452 8.39013 61.8283 8.00699 61.8283 7.53349C61.8283 7.06 61.4452 6.67685 60.9717 6.67685H53.7421C48.2173 2.82585 41.5099 0.559082 34.2795 0.559082C15.4628 0.559082 0.154541 15.8673 0.154541 34.6841C0.154541 45.0433 4.80033 54.3321 12.1108 60.5957H7.0478C6.57431 60.5957 6.19117 60.9789 6.19117 61.4524ZM1.86782 34.6841C1.86782 16.8118 16.4072 2.27236 34.2795 2.27236C41.1106 2.27236 47.4507 4.40167 52.6822 8.02398V14.9672C52.6822 15.4407 53.0654 15.8238 53.5388 15.8238C54.0123 15.8238 54.3955 15.4407 54.3955 14.9672V9.29811C61.8788 15.2404 66.6913 24.4079 66.6913 34.6841C66.6913 52.5564 52.1518 67.0958 34.2795 67.0958C27.2118 67.0958 20.6704 64.8153 15.3381 60.9608V54.0195C15.3381 53.546 14.955 53.1629 14.4815 53.1629C14.008 53.1629 13.6248 53.546 13.6248 54.0195V59.6425C6.44768 53.6926 1.86782 44.7137 1.86782 34.6841Z" fill="#193B6E"/>
<path d="M34.2779 35.5407H34.4234C35.9251 35.5407 37.1473 36.7579 37.1473 38.2545C37.1473 39.7511 35.9251 40.9683 34.4234 40.9683C32.9218 40.9683 31.6996 39.7511 31.6996 38.2545C31.6996 37.781 31.3165 37.3979 30.843 37.3979C30.3695 37.3979 29.9863 37.781 29.9863 38.2545C29.9863 40.3505 31.4575 42.1018 33.4212 42.5577V43.3785C33.4212 43.8519 33.8044 44.2351 34.2779 44.2351C34.7514 44.2351 35.1345 43.8519 35.1345 43.3785V42.6099C37.2424 42.2676 38.8606 40.4527 38.8606 38.2545C38.8606 35.8134 36.8704 33.8274 34.4234 33.8274H34.2779C32.7763 33.8274 31.554 32.6102 31.554 31.1136C31.554 29.617 32.7763 28.3998 34.2779 28.3998C35.7795 28.3998 37.0017 29.617 37.0017 31.1136C37.0017 31.5871 37.3849 31.9703 37.8584 31.9703C38.3319 31.9703 38.715 31.5871 38.715 31.1136C38.715 28.9652 37.1723 27.1727 35.1345 26.7729V25.9897C35.1345 25.5162 34.7514 25.1331 34.2779 25.1331C33.8044 25.1331 33.4212 25.5162 33.4212 25.9897V26.7729C31.3835 27.1727 29.8408 28.9652 29.8408 31.1136C29.8408 33.5547 31.8309 35.5407 34.2779 35.5407Z" fill="#193B6E"/>
<path d="M34.3507 48.4038C41.9098 48.4038 48.0602 42.2492 48.0602 34.6842C48.0602 27.1192 41.9098 20.9646 34.3507 20.9646C26.7915 20.9646 20.6411 27.1192 20.6411 34.6842C20.6411 42.2492 26.7915 48.4038 34.3507 48.4038ZM34.3507 22.6779C40.9654 22.6779 46.347 28.0637 46.347 34.6842C46.347 41.3047 40.9654 46.6905 34.3507 46.6905C27.736 46.6905 22.3544 41.3047 22.3544 34.6842C22.3544 28.0637 27.736 22.6779 34.3507 22.6779Z" fill="#193B6E"/>
<path d="M34.3507 53.6749C44.8152 53.6749 53.3281 45.1554 53.3281 34.6841C53.3281 24.2129 44.8152 15.6934 34.3507 15.6934C23.8861 15.6934 15.3733 24.2129 15.3733 34.6841C15.3733 45.1554 23.8861 53.6749 34.3507 53.6749ZM34.3507 17.4066C43.8699 17.4066 51.6148 25.1574 51.6148 34.6841C51.6148 44.2109 43.8699 51.9616 34.3507 51.9616C24.8315 51.9616 17.0866 44.2109 17.0866 34.6841C17.0866 25.1574 24.8315 17.4066 34.3507 17.4066Z" fill="#193B6E"/>
</svg>
