<svg width="69" height="69" viewBox="0 0 69 69" fill="none" xmlns="http://www.w3.org/2000/svg">
<path d="M5.79083 68.9433C5.50045 68.9433 5.26384 68.7067 5.26384 68.4163V0.639534C5.25309 0.349155 5.48969 0.112549 5.79083 0.112549C6.08121 0.112549 6.31781 0.349155 6.31781 0.639534V68.4163C6.31781 68.7067 6.08121 68.9433 5.79083 68.9433Z" fill="#193B6E"/>
<path d="M68.0397 63.9851H0.843636C0.553256 63.9851 0.31665 63.7485 0.31665 63.4581C0.31665 63.1678 0.553256 62.9312 0.843636 62.9312H68.0397C68.33 62.9312 68.5667 63.1678 68.5667 63.4581C68.5667 63.7485 68.33 63.9851 68.0397 63.9851Z" fill="#193B6E"/>
<path d="M17.5566 36.195H11.2865C10.9962 36.195 10.7596 35.9584 10.7596 35.668V17.4279C10.7596 17.1375 10.9962 16.9009 11.2865 16.9009H17.5566C17.847 16.9009 18.0836 17.1375 18.0836 17.4279V35.668C18.0836 35.9584 17.847 36.195 17.5566 36.195ZM11.8135 35.141H17.0189V17.9549H11.8135V35.141Z" fill="#193B6E"/>
<path d="M14.4269 45.498C14.1366 45.498 13.9 45.2614 13.9 44.971V35.6788C13.9 35.3885 14.1366 35.1519 14.4269 35.1519C14.7173 35.1519 14.9539 35.3885 14.9539 35.6788V44.971C14.9539 45.2614 14.7173 45.498 14.4269 45.498Z" fill="#193B6E"/>
<path d="M41.0881 48.6274H34.8181C34.5277 48.6274 34.2911 48.3908 34.2911 48.1004V33.1942C34.2911 32.9038 34.5277 32.6672 34.8181 32.6672H41.0881C41.3785 32.6672 41.6151 32.9038 41.6151 33.1942V48.1004C41.6259 48.3908 41.3892 48.6274 41.0881 48.6274ZM35.3558 47.5626H40.5611V33.7212H35.3558V47.5626Z" fill="#193B6E"/>
<path d="M37.9585 57.9194C37.6681 57.9194 37.4315 57.6828 37.4315 57.3924V48.1002C37.4315 47.8098 37.6681 47.5732 37.9585 47.5732C38.2489 47.5732 38.4855 47.8098 38.4855 48.1002V57.3924C38.4855 57.6828 38.2489 57.9194 37.9585 57.9194Z" fill="#193B6E"/>
<path d="M29.3546 52.5424H23.0846C22.7942 52.5424 22.5576 52.3058 22.5576 52.0154V35.8724C22.5576 35.5821 22.7942 35.3455 23.0846 35.3455H29.3546C29.645 35.3455 29.8816 35.5821 29.8816 35.8724V52.0154C29.8924 52.3058 29.6558 52.5424 29.3546 52.5424ZM23.6223 51.4884H28.8276V36.4102H23.6223V51.4884Z" fill="#193B6E"/>
<path d="M26.225 57.9197C25.9346 57.9197 25.698 57.683 25.698 57.3927V52.0153C25.698 51.7249 25.9346 51.4883 26.225 51.4883C26.5154 51.4883 26.752 51.7249 26.752 52.0153V57.3927C26.752 57.683 26.5154 57.9197 26.225 57.9197Z" fill="#193B6E"/>
<path d="M26.225 36.4101C25.9346 36.4101 25.698 36.1735 25.698 35.8832V29.4518C25.698 29.1614 25.9346 28.9248 26.225 28.9248C26.5154 28.9248 26.752 29.1614 26.752 29.4518V35.8832C26.752 36.1735 26.5154 36.4101 26.225 36.4101Z" fill="#193B6E"/>
<path d="M52.9614 46.9175H46.7667C46.4763 46.9175 46.2397 46.6808 46.2397 46.3905V39.5612C46.2397 39.2708 46.4763 39.0342 46.7667 39.0342H52.9614C53.2518 39.0342 53.4884 39.2708 53.4884 39.5612V46.3905C53.4884 46.6808 53.2518 46.9175 52.9614 46.9175ZM47.2937 45.8635H52.4345V40.0989H47.2937V45.8635Z" fill="#193B6E"/>
<path d="M49.864 56.1129C49.5736 56.1129 49.337 55.8763 49.337 55.5859V46.3905C49.337 46.1001 49.5736 45.8635 49.864 45.8635C50.1544 45.8635 50.391 46.1001 50.391 46.3905V55.5859C50.391 55.8763 50.1544 56.1129 49.864 56.1129Z" fill="#193B6E"/>
<path d="M49.864 40.0989C49.5736 40.0989 49.337 39.8623 49.337 39.572V30.3766C49.337 30.0862 49.5736 29.8496 49.864 29.8496C50.1544 29.8496 50.391 30.0862 50.391 30.3766V39.572C50.391 39.8623 50.1544 40.0989 49.864 40.0989Z" fill="#193B6E"/>
<path d="M64.9423 50.3376H58.7475C58.4571 50.3376 58.2205 50.101 58.2205 49.8106V42.9813C58.2205 42.691 58.4571 42.4543 58.7475 42.4543H64.9423C65.2327 42.4543 65.4693 42.691 65.4693 42.9813V49.8106C65.4693 50.101 65.2327 50.3376 64.9423 50.3376ZM59.2745 49.2729H64.4153V43.5083H59.2745V49.2729Z" fill="#193B6E"/>
<path d="M61.8449 59.522C61.5545 59.522 61.3179 59.2854 61.3179 58.9951V49.7997C61.3179 49.5093 61.5545 49.2727 61.8449 49.2727C62.1353 49.2727 62.3719 49.5093 62.3719 49.7997V58.9951C62.3719 59.2854 62.1353 59.522 61.8449 59.522Z" fill="#193B6E"/>
<path d="M61.8449 43.5084C61.5545 43.5084 61.3179 43.2718 61.3179 42.9814V33.786C61.3179 33.4956 61.5545 33.259 61.8449 33.259C62.1353 33.259 62.3719 33.4956 62.3719 33.786V42.9814C62.3719 43.2718 62.1353 43.5084 61.8449 43.5084Z" fill="#193B6E"/>
<path d="M5.79084 4.96291H2.19874C1.90836 4.96291 1.67175 4.7263 1.67175 4.43592C1.67175 4.14554 1.90836 3.90894 2.19874 3.90894H5.78009C6.07047 3.90894 6.30708 4.14554 6.30708 4.43592C6.31783 4.7263 6.08122 4.96291 5.79084 4.96291Z" fill="#193B6E"/>
<path d="M5.79084 10.405H2.19874C1.90836 10.405 1.67175 10.1684 1.67175 9.87806C1.67175 9.58768 1.90836 9.35107 2.19874 9.35107H5.78009C6.07047 9.35107 6.30708 9.58768 6.30708 9.87806C6.31783 10.1684 6.08122 10.405 5.79084 10.405Z" fill="#193B6E"/>
<path d="M5.79084 15.8362H2.19874C1.90836 15.8362 1.67175 15.5996 1.67175 15.3092C1.67175 15.0188 1.90836 14.7822 2.19874 14.7822H5.78009C6.07047 14.7822 6.30708 15.0188 6.30708 15.3092C6.31783 15.5996 6.08122 15.8362 5.79084 15.8362Z" fill="#193B6E"/>
<path d="M5.79084 21.2671H2.19874C1.90836 21.2671 1.67175 21.0305 1.67175 20.7401C1.67175 20.4497 1.90836 20.2131 2.19874 20.2131H5.78009C6.07047 20.2131 6.30708 20.4497 6.30708 20.7401C6.31783 21.0305 6.08122 21.2671 5.79084 21.2671Z" fill="#193B6E"/>
<path d="M5.79084 26.7092H2.19874C1.90836 26.7092 1.67175 26.4726 1.67175 26.1823C1.67175 25.8919 1.90836 25.6553 2.19874 25.6553H5.78009C6.07047 25.6553 6.30708 25.8919 6.30708 26.1823C6.30708 26.4726 6.08122 26.7092 5.79084 26.7092Z" fill="#193B6E"/>
<path d="M5.79084 32.1404H2.19874C1.90836 32.1404 1.67175 31.9038 1.67175 31.6134C1.67175 31.323 1.90836 31.0864 2.19874 31.0864H5.78009C6.07047 31.0864 6.30708 31.323 6.30708 31.6134C6.30708 31.9038 6.08122 32.1404 5.79084 32.1404Z" fill="#193B6E"/>
<path d="M5.79084 37.5718H2.19874C1.90836 37.5718 1.67175 37.3352 1.67175 37.0448C1.67175 36.7544 1.90836 36.5178 2.19874 36.5178H5.78009C6.07047 36.5178 6.30708 36.7544 6.30708 37.0448C6.31783 37.3352 6.08122 37.5718 5.79084 37.5718Z" fill="#193B6E"/>
<path d="M5.79084 43.0134H2.19874C1.90836 43.0134 1.67175 42.7768 1.67175 42.4865C1.67175 42.1961 1.90836 41.9595 2.19874 41.9595H5.78009C6.07047 41.9595 6.30708 42.1961 6.30708 42.4865C6.31783 42.7768 6.08122 43.0134 5.79084 43.0134Z" fill="#193B6E"/>
<path d="M5.79084 48.4446H2.19874C1.90836 48.4446 1.67175 48.208 1.67175 47.9176C1.67175 47.6272 1.90836 47.3906 2.19874 47.3906H5.78009C6.07047 47.3906 6.30708 47.6272 6.30708 47.9176C6.31783 48.208 6.08122 48.4446 5.79084 48.4446Z" fill="#193B6E"/>
<path d="M5.79084 53.8865H2.19874C1.90836 53.8865 1.67175 53.6499 1.67175 53.3595C1.67175 53.0691 1.90836 52.8325 2.19874 52.8325H5.78009C6.07047 52.8325 6.30708 53.0691 6.30708 53.3595C6.30708 53.6499 6.08122 53.8865 5.79084 53.8865Z" fill="#193B6E"/>
<path d="M5.79084 59.3179H2.19874C1.90836 59.3179 1.67175 59.0813 1.67175 58.7909C1.67175 58.5005 1.90836 58.2639 2.19874 58.2639H5.78009C6.07047 58.2639 6.30708 58.5005 6.30708 58.7909C6.30708 59.0813 6.08122 59.3179 5.79084 59.3179Z" fill="#193B6E"/>
<path d="M10.7811 67.5665C10.4907 67.5665 10.2541 67.3299 10.2541 67.0395V63.4581C10.2541 63.1678 10.4907 62.9312 10.7811 62.9312C11.0715 62.9312 11.3081 63.1678 11.3081 63.4581V67.0395C11.3081 67.3299 11.0715 67.5665 10.7811 67.5665Z" fill="#193B6E"/>
<path d="M16.223 67.5665C15.9326 67.5665 15.696 67.3299 15.696 67.0395V63.4581C15.696 63.1678 15.9326 62.9312 16.223 62.9312C16.5134 62.9312 16.75 63.1678 16.75 63.4581V67.0395C16.75 67.3299 16.5134 67.5665 16.223 67.5665Z" fill="#193B6E"/>
<path d="M21.6542 67.5665C21.3638 67.5665 21.1272 67.3299 21.1272 67.0395V63.4581C21.1272 63.1678 21.3638 62.9312 21.6542 62.9312C21.9445 62.9312 22.1811 63.1678 22.1811 63.4581V67.0395C22.1811 67.3299 21.9445 67.5665 21.6542 67.5665Z" fill="#193B6E"/>
<path d="M27.0854 67.5665C26.795 67.5665 26.5584 67.3299 26.5584 67.0395V63.4581C26.5584 63.1678 26.795 62.9312 27.0854 62.9312C27.3757 62.9312 27.6124 63.1678 27.6124 63.4581V67.0395C27.6124 67.3299 27.3757 67.5665 27.0854 67.5665Z" fill="#193B6E"/>
<path d="M32.5273 67.5665C32.2369 67.5665 32.0003 67.3299 32.0003 67.0395V63.4581C32.0003 63.1678 32.2369 62.9312 32.5273 62.9312C32.8177 62.9312 33.0543 63.1678 33.0543 63.4581V67.0395C33.0543 67.3299 32.8177 67.5665 32.5273 67.5665Z" fill="#193B6E"/>
<path d="M37.9584 67.5665C37.6681 67.5665 37.4315 67.3299 37.4315 67.0395V63.4581C37.4315 63.1678 37.6681 62.9312 37.9584 62.9312C38.2488 62.9312 38.4854 63.1678 38.4854 63.4581V67.0395C38.4854 67.3299 38.2488 67.5665 37.9584 67.5665Z" fill="#193B6E"/>
<path d="M43.3897 67.5665C43.0993 67.5665 42.8627 67.3299 42.8627 67.0395V63.4581C42.8627 63.1678 43.0993 62.9312 43.3897 62.9312C43.68 62.9312 43.9166 63.1678 43.9166 63.4581V67.0395C43.9274 67.3299 43.6908 67.5665 43.3897 67.5665Z" fill="#193B6E"/>
<path d="M48.8316 67.5665C48.5412 67.5665 48.3046 67.3299 48.3046 67.0395V63.4581C48.3046 63.1678 48.5412 62.9312 48.8316 62.9312C49.122 62.9312 49.3586 63.1678 49.3586 63.4581V67.0395C49.3586 67.3299 49.122 67.5665 48.8316 67.5665Z" fill="#193B6E"/>
<path d="M54.2627 67.5665C53.9724 67.5665 53.7357 67.3299 53.7357 67.0395V63.4581C53.7357 63.1678 53.9724 62.9312 54.2627 62.9312C54.5531 62.9312 54.7897 63.1678 54.7897 63.4581V67.0395C54.7897 67.3299 54.5531 67.5665 54.2627 67.5665Z" fill="#193B6E"/>
<path d="M59.6939 67.5665C59.4036 67.5665 59.167 67.3299 59.167 67.0395V63.4581C59.167 63.1678 59.4036 62.9312 59.6939 62.9312C59.9843 62.9312 60.2209 63.1678 60.2209 63.4581V67.0395C60.2317 67.3299 59.9951 67.5665 59.6939 67.5665Z" fill="#193B6E"/>
<path d="M65.1358 67.5665C64.8455 67.5665 64.6089 67.3299 64.6089 67.0395V63.4581C64.6089 63.1678 64.8455 62.9312 65.1358 62.9312C65.4262 62.9312 65.6628 63.1678 65.6628 63.4581V67.0395C65.6628 67.3299 65.4262 67.5665 65.1358 67.5665Z" fill="#193B6E"/>
<path d="M25.5474 25.6338C25.4184 25.6338 25.2893 25.5908 25.1818 25.494C24.9667 25.2896 24.9559 24.9562 25.1603 24.7411L36.2592 12.9969C36.4313 12.814 36.7109 12.7818 36.9153 12.9108L47.6593 19.482L56.8762 10.2652H52.5743C52.2839 10.2652 52.0473 10.0285 52.0473 9.73817C52.0473 9.44779 52.2839 9.21118 52.5743 9.21118H58.156C58.3711 9.21118 58.5647 9.34024 58.64 9.53383C58.726 9.72741 58.6722 9.96402 58.5217 10.1146L48.111 20.5252C47.9389 20.6973 47.6701 20.7296 47.4657 20.6005L36.7324 14.0401L25.9346 25.4725C25.8271 25.58 25.6872 25.6338 25.5474 25.6338Z" fill="#193B6E"/>
<path d="M58.156 14.9758C57.8656 14.9758 57.629 14.7392 57.629 14.4488V9.73817C57.629 9.44779 57.8656 9.21118 58.156 9.21118C58.4464 9.21118 58.683 9.44779 58.683 9.73817V14.4488C58.683 14.7392 58.4464 14.9758 58.156 14.9758Z" fill="#193B6E"/>
</svg>
