<svg width="69" height="69" viewBox="0 0 69 69" fill="none" xmlns="http://www.w3.org/2000/svg">
<path d="M7.43768 62.5624C8.64717 60.3162 9.85667 57.8972 10.9798 55.5646C14.8674 47.6165 19.2734 38.7181 24.3706 37.6814C26.444 37.2495 28.6038 38.1998 31.1092 40.3596C35.3424 44.1608 39.1437 45.5431 42.6858 44.5928C49.9427 42.6058 53.5712 31.1156 57.3725 18.7615L61.1738 19.971L58.7548 8.91274L50.3747 16.6017L54.176 17.8112C50.9795 28.2646 47.2646 39.7548 41.8219 41.3099C39.5757 41.9146 36.7247 40.7915 33.4418 37.8542C30.1589 34.9169 26.876 33.7074 23.7658 34.3121C17.0272 35.608 12.362 45.0248 7.86964 54.0096C7.1785 55.3055 6.57376 56.6013 5.96901 57.8972V0.446289H0.00793457V68.6099H68.2579V62.5624H7.43768Z" fill="#193B6E"/>
</svg>
