<svg width="70" height="69" viewBox="0 0 70 69" fill="none" xmlns="http://www.w3.org/2000/svg">
<path d="M35.1204 68.654C28.371 68.654 21.773 66.6525 16.161 62.9027C10.549 59.1529 6.17501 53.8231 3.59209 47.5874C1.00917 41.3517 0.333362 34.4901 1.65012 27.8703C2.96688 21.2504 6.21707 15.1698 10.9897 10.3972C15.7623 5.62454 21.843 2.37435 28.4628 1.05759C35.0826 -0.259168 41.9442 0.416641 48.1799 2.99956C54.4156 5.58248 59.7454 9.9565 63.4952 15.5685C67.245 21.1805 69.2465 27.7784 69.2465 34.5279C69.2366 43.5757 65.638 52.25 59.2402 58.6477C52.8425 65.0454 44.1682 68.644 35.1204 68.654ZM35.1204 2.65194C28.816 2.65194 22.6531 4.52143 17.4111 8.02401C12.1691 11.5266 8.0835 16.5049 5.67088 22.3295C3.25827 28.1541 2.62702 34.5633 3.85696 40.7466C5.0869 46.9299 8.12279 52.6097 12.5807 57.0676C17.0387 61.5256 22.7184 64.5615 28.9018 65.7914C35.0851 67.0213 41.4943 66.3901 47.3189 63.9775C53.1434 61.5649 58.1218 57.4792 61.6244 52.2373C65.1269 46.9953 66.9964 40.8324 66.9964 34.5279C66.9865 26.0769 63.625 17.9749 57.6492 11.9992C51.6734 6.0234 43.5714 2.66186 35.1204 2.65194Z" fill="#193B6E"/>
<path d="M33.4405 65.0385H33.3805C32.5929 64.9935 31.8054 64.9185 31.0254 64.8135C30.8785 64.7941 30.7369 64.7459 30.6087 64.6717C30.4804 64.5974 30.3682 64.4985 30.2783 64.3808C30.1884 64.263 30.1226 64.1286 30.0848 63.9854C30.047 63.8421 30.0378 63.6928 30.0578 63.546C30.0763 63.3997 30.1236 63.2585 30.1972 63.1307C30.2708 63.0029 30.3692 62.891 30.4865 62.8016C30.6038 62.7122 30.7377 62.6471 30.8805 62.6101C31.0232 62.5731 31.1719 62.5649 31.3179 62.5859C32.0679 62.6759 32.7804 62.7509 33.508 62.7884C33.8063 62.7974 34.0889 62.9245 34.2936 63.1418C34.4982 63.3591 34.6082 63.6489 34.5992 63.9472C34.5903 64.2456 34.4632 64.5282 34.2459 64.7329C34.0285 64.9375 33.7388 65.0475 33.4405 65.0385ZM38.0006 64.9485C37.7022 64.9624 37.4105 64.8573 37.1897 64.6561C36.9689 64.455 36.837 64.1744 36.8231 63.876C36.8091 63.5776 36.9143 63.2859 37.1154 63.0651C37.3166 62.8443 37.5972 62.7124 37.8956 62.6984C38.6456 62.6309 39.3506 62.5334 40.0707 62.4059C40.2184 62.3803 40.3697 62.3841 40.516 62.417C40.6623 62.4498 40.8007 62.5112 40.9233 62.5976C41.0459 62.6839 41.1502 62.7936 41.2304 62.9203C41.3106 63.047 41.3651 63.1882 41.3907 63.336C41.4163 63.4837 41.4126 63.635 41.3797 63.7813C41.3468 63.9276 41.2854 64.066 41.1991 64.1886C41.1127 64.3112 41.0031 64.4155 40.8764 64.4957C40.7497 64.5759 40.6084 64.6304 40.4607 64.656C39.7106 64.7985 38.8931 64.9035 38.1131 64.9785L38.0006 64.9485ZM26.7502 63.8685C26.6412 63.8683 26.5327 63.8532 26.4277 63.8235C25.6777 63.5985 24.9277 63.336 24.1777 63.0735C23.8992 62.966 23.6748 62.7524 23.5538 62.4795C23.4328 62.2066 23.4252 61.8969 23.5326 61.6184C23.6401 61.3399 23.8537 61.1155 24.1266 60.9946C24.3995 60.8736 24.7092 60.866 24.9877 60.9734C25.6627 61.2359 26.3602 61.4684 27.0578 61.6784C27.3177 61.7542 27.5416 61.9213 27.6884 62.1489C27.8351 62.3766 27.8948 62.6495 27.8565 62.9176C27.8182 63.1856 27.6845 63.4309 27.4799 63.6084C27.2753 63.7858 27.0136 63.8835 26.7427 63.8835L26.7502 63.8685ZM44.7508 63.501C44.4838 63.5022 44.2251 63.4084 44.021 63.2364C43.8168 63.0644 43.6804 62.8254 43.6362 62.5621C43.5921 62.2989 43.6429 62.0284 43.7798 61.7992C43.9166 61.57 44.1306 61.3969 44.3833 61.3109C45.0733 61.0709 45.7633 60.8084 46.4309 60.5159C46.6954 60.4476 46.9757 60.4778 47.2195 60.601C47.4634 60.7242 47.6541 60.9319 47.756 61.1854C47.858 61.4388 47.8642 61.7207 47.7735 61.9785C47.6829 62.2362 47.5015 62.4521 47.2634 62.5859C46.5134 62.8935 45.8008 63.186 45.0508 63.441C44.9321 63.4799 44.8082 63.5001 44.6833 63.501H44.7508ZM20.4351 61.1534C20.2378 61.1526 20.044 61.1009 19.8725 61.0034C19.1825 60.6059 18.515 60.1784 17.8625 59.7359C17.7356 59.6544 17.6265 59.5482 17.5415 59.4237C17.4564 59.2993 17.3973 59.1589 17.3676 59.0112C17.3379 58.8634 17.3381 58.7111 17.3684 58.5634C17.3987 58.4157 17.4583 58.2756 17.5438 58.1515C17.6292 58.0273 17.7388 57.9215 17.8659 57.8405C17.9931 57.7595 18.1352 57.7049 18.2839 57.6799C18.4325 57.6548 18.5847 57.66 18.7313 57.6949C18.878 57.7299 19.0161 57.7939 19.1375 57.8833C19.7375 58.2958 20.3601 58.6858 20.9976 59.0533C21.2124 59.177 21.3804 59.3682 21.4754 59.5971C21.5704 59.8261 21.5872 60.08 21.523 60.3195C21.4589 60.5589 21.3175 60.7705 21.1207 60.9213C20.924 61.0721 20.6829 61.1537 20.4351 61.1534ZM50.841 60.5309C50.603 60.5218 50.3741 60.4374 50.1872 60.2899C50.0003 60.1423 49.8649 59.9393 49.8007 59.71C49.7365 59.4807 49.7467 59.2369 49.8299 59.0138C49.913 58.7907 50.0649 58.5997 50.2635 58.4683C50.886 58.0783 51.4935 57.6583 52.071 57.2233C52.3107 57.0443 52.6117 56.9678 52.9078 57.0107C53.2039 57.0536 53.4708 57.2123 53.6498 57.452C53.8288 57.6917 53.9053 57.9927 53.8624 58.2888C53.8195 58.5849 53.6608 58.8518 53.4211 59.0308C52.791 59.4958 52.1385 59.9534 51.471 60.3734C51.2815 60.4891 51.0631 60.5489 50.841 60.5459V60.5309ZM14.9449 57.0883C14.6649 57.0847 14.3968 56.9748 14.1949 56.7808C13.6248 56.2407 13.0623 55.6782 12.5373 55.0932C12.3686 54.8685 12.2901 54.5888 12.3172 54.3091C12.3444 54.0294 12.4752 53.77 12.684 53.5819C12.8928 53.3938 13.1644 53.2907 13.4454 53.2927C13.7264 53.2948 13.9964 53.402 14.2024 53.5932C14.6899 54.1332 15.2074 54.6582 15.7399 55.1607C15.9022 55.3141 16.0152 55.5123 16.0645 55.73C16.1138 55.9478 16.0972 56.1754 16.0168 56.3837C15.9364 56.592 15.7958 56.7717 15.6129 56.8998C15.43 57.028 15.2131 57.0988 14.9899 57.1033L14.9449 57.0883ZM56.1511 56.2482C55.8693 56.2399 55.6011 56.1246 55.4011 55.9257C55.1904 55.7148 55.0721 55.4289 55.0721 55.1307C55.0721 54.8326 55.1904 54.5466 55.4011 54.3357C55.9111 53.8107 56.4062 53.2632 56.9012 52.7081C57.0931 52.4794 57.3681 52.3363 57.6656 52.3102C57.9631 52.2842 58.2587 52.3774 58.4875 52.5694C58.7162 52.7613 58.8594 53.0363 58.8854 53.3338C58.9114 53.6313 58.8182 53.9269 58.6262 54.1557C58.1162 54.7557 57.5837 55.3482 57.0287 55.9107C56.916 56.0278 56.779 56.1187 56.6274 56.177C56.4758 56.2353 56.3132 56.2596 56.1511 56.2482ZM10.5122 51.8606C10.3265 51.8614 10.1436 51.8158 9.97986 51.7281C9.81617 51.6403 9.67693 51.5132 9.57472 51.3581C9.13971 50.7056 8.72719 50.0231 8.34468 49.333C8.26235 49.2035 8.2074 49.0585 8.18321 48.9069C8.15901 48.7553 8.16609 48.6004 8.204 48.4517C8.24191 48.303 8.30985 48.1636 8.40365 48.0421C8.49745 47.9206 8.61511 47.8196 8.74941 47.7452C8.8837 47.6709 9.03178 47.6249 9.18454 47.6099C9.3373 47.5949 9.4915 47.6114 9.63766 47.6583C9.78382 47.7051 9.91884 47.7814 10.0344 47.8824C10.15 47.9834 10.2437 48.107 10.3097 48.2455C10.6698 48.883 11.0598 49.513 11.4498 50.1206C11.5316 50.2437 11.5883 50.3817 11.6167 50.5267C11.6452 50.6718 11.6448 50.821 11.6155 50.9659C11.5863 51.1107 11.5287 51.2484 11.4463 51.3711C11.3638 51.4937 11.2579 51.5989 11.1348 51.6806C10.9482 51.7977 10.7325 51.86 10.5122 51.8606ZM60.3138 50.8481C60.1071 50.8494 59.9043 50.7922 59.7288 50.6831C59.4837 50.523 59.31 50.2743 59.2443 49.9891C59.1786 49.7038 59.2259 49.4042 59.3763 49.153C59.7588 48.5305 60.1263 47.8855 60.4413 47.233C60.5078 47.101 60.5996 46.9834 60.7115 46.8869C60.8235 46.7904 60.9533 46.7169 61.0936 46.6706C61.234 46.6243 61.3821 46.6061 61.5294 46.617C61.6768 46.6279 61.8206 46.6677 61.9526 46.7342C62.0846 46.8007 62.2022 46.8925 62.2987 47.0045C62.3951 47.1164 62.4687 47.2462 62.515 47.3866C62.5613 47.5269 62.5795 47.675 62.5686 47.8224C62.5577 47.9697 62.5178 48.1135 62.4513 48.2455C62.0988 48.943 61.7013 49.6405 61.3038 50.3231C61.2012 50.4846 61.0593 50.6174 60.8914 50.7092C60.7235 50.801 60.5351 50.8488 60.3438 50.8481H60.3138ZM7.45966 45.7704C7.2278 45.7687 7.00207 45.6958 6.81295 45.5617C6.62383 45.4276 6.48043 45.2386 6.40212 45.0204C6.13212 44.2704 5.89211 43.5204 5.6521 42.7703C5.57222 42.4869 5.60585 42.1836 5.74586 41.9245C5.88587 41.6655 6.12126 41.4712 6.40212 41.3828C6.68558 41.2989 6.99074 41.3307 7.25079 41.4712C7.51085 41.6118 7.70461 41.8497 7.78967 42.1328C7.98467 42.8303 8.21718 43.5279 8.46469 44.2179C8.51607 44.3562 8.53955 44.5034 8.53376 44.6508C8.52798 44.7983 8.49305 44.9431 8.43099 45.077C8.36893 45.2109 8.28097 45.3311 8.17218 45.4309C8.06339 45.5306 7.93594 45.6077 7.79717 45.6579C7.69225 45.7152 7.57796 45.7533 7.45966 45.7704ZM63.1714 44.6529C62.9904 44.6548 62.8116 44.613 62.6502 44.5311C62.4888 44.4492 62.3496 44.3295 62.2443 44.1823C62.1391 44.035 62.0709 43.8646 62.0455 43.6854C62.0202 43.5062 62.0385 43.3235 62.0988 43.1528C62.3238 42.4628 62.5188 41.7503 62.6838 41.0453C62.7178 40.9015 62.7798 40.7658 62.8662 40.6459C62.9527 40.5261 63.0618 40.4244 63.1875 40.3468C63.3133 40.2691 63.453 40.217 63.5989 40.1933C63.7448 40.1697 63.8938 40.175 64.0376 40.209C64.1814 40.243 64.3171 40.305 64.437 40.3914C64.5568 40.4778 64.6585 40.587 64.7362 40.7127C64.8138 40.8384 64.866 40.9782 64.8896 41.1241C64.9132 41.2699 64.9079 41.419 64.8739 41.5628C64.6939 42.3128 64.4839 43.0628 64.2439 43.8129C64.1827 44.0515 64.0444 44.2633 63.8504 44.4152C63.6565 44.5671 63.4177 44.6507 63.1714 44.6529ZM5.87711 39.1252C5.60085 39.1252 5.33427 39.0235 5.12818 38.8395C4.92209 38.6555 4.79088 38.4022 4.75957 38.1277C4.66957 37.3777 4.60957 36.5602 4.57207 35.7651C4.56013 35.4667 4.66722 35.1758 4.86976 34.9564C5.07231 34.737 5.35372 34.607 5.6521 34.5951C5.95048 34.5832 6.24138 34.6902 6.4608 34.8928C6.68023 35.0953 6.8102 35.3767 6.82214 35.6751C6.82214 36.4251 6.91214 37.1752 6.99464 37.8652C7.01246 38.012 7.00116 38.1608 6.96142 38.3032C6.92167 38.4456 6.85424 38.5788 6.76299 38.6951C6.67174 38.8114 6.55845 38.9086 6.42961 38.9812C6.30077 39.0537 6.1589 39.1001 6.01211 39.1177L5.87711 39.1252ZM64.5139 37.9027H64.4239C64.1273 37.8778 63.8525 37.7371 63.6588 37.5112C63.4651 37.2852 63.3681 36.9921 63.3889 36.6952C63.4414 35.9451 63.4714 35.2326 63.4714 34.4976V34.3701C63.4714 34.0717 63.5899 33.7855 63.8009 33.5746C64.0119 33.3636 64.298 33.245 64.5964 33.245C64.8948 33.245 65.1809 33.3636 65.3919 33.5746C65.6029 33.7855 65.7214 34.0717 65.7214 34.3701V34.4976C65.7214 35.2851 65.7214 36.0801 65.6314 36.8677C65.6089 37.1489 65.4815 37.4114 65.2745 37.6031C65.0675 37.7948 64.796 37.9017 64.5139 37.9027ZM5.86211 32.285H5.7346C5.58818 32.2692 5.44633 32.2245 5.31722 32.1537C5.18811 32.0828 5.07428 31.9871 4.98228 31.8721C4.89027 31.7571 4.82191 31.625 4.78111 31.4835C4.74032 31.342 4.7279 31.1938 4.74457 31.0475C4.83458 30.26 4.95458 29.4724 5.10458 28.6999C5.12481 28.5479 5.17591 28.4016 5.25472 28.2701C5.33354 28.1385 5.43841 28.0245 5.56291 27.935C5.6874 27.8454 5.82888 27.7823 5.97867 27.7494C6.12845 27.7166 6.28337 27.7147 6.43392 27.7439C6.58446 27.773 6.72745 27.8327 6.8541 27.9192C6.98075 28.0056 7.08839 28.1171 7.1704 28.2466C7.25241 28.3762 7.30707 28.5212 7.33102 28.6726C7.35497 28.8241 7.34769 28.9789 7.30965 29.1274C7.17465 29.8774 7.06214 30.575 6.97964 31.295C6.94663 31.5681 6.81469 31.8197 6.60876 32.0021C6.40284 32.1845 6.13721 32.2852 5.86211 32.285ZM64.1989 30.965C63.9307 30.9646 63.6715 30.8684 63.468 30.6937C63.2644 30.5191 63.13 30.2775 63.0889 30.0124C62.9764 29.2999 62.8264 28.5724 62.6614 27.8674C62.6169 27.721 62.6027 27.567 62.6198 27.415C62.6368 27.2629 62.6847 27.116 62.7605 26.983C62.8363 26.8501 62.9384 26.7341 63.0606 26.642C63.1828 26.5499 63.3225 26.4837 63.4711 26.4474C63.6198 26.4111 63.7743 26.4056 63.9251 26.431C64.076 26.4565 64.2201 26.5125 64.3486 26.5956C64.4771 26.6786 64.5873 26.7871 64.6725 26.9142C64.7576 27.0413 64.816 27.1844 64.8439 27.3349C65.0314 28.0849 65.1889 28.8874 65.3089 29.6599C65.3324 29.8062 65.3268 29.9557 65.2924 30.0999C65.2579 30.244 65.1953 30.3799 65.1082 30.4998C65.0211 30.6196 64.9112 30.7211 64.7847 30.7984C64.6583 30.8756 64.5178 30.9272 64.3714 30.95L64.1989 30.965ZM7.41465 25.6323C7.28423 25.6319 7.15485 25.609 7.03214 25.5648C6.75174 25.4633 6.52313 25.2545 6.39656 24.9845C6.26998 24.7145 6.2558 24.4052 6.35712 24.1248C6.61963 23.3747 6.91964 22.6247 7.24965 21.9272C7.30753 21.7879 7.39282 21.6617 7.50045 21.5561C7.60807 21.4504 7.73585 21.3675 7.87617 21.3122C8.01649 21.2569 8.1665 21.2304 8.31726 21.2343C8.46803 21.2381 8.61649 21.2722 8.75381 21.3346C8.89112 21.397 9.0145 21.4863 9.1166 21.5973C9.21869 21.7083 9.29743 21.8387 9.34812 21.9808C9.39882 22.1228 9.42043 22.2736 9.41169 22.4242C9.40294 22.5747 9.36401 22.722 9.29721 22.8572C8.9972 23.5247 8.71969 24.2073 8.47219 24.8898C8.39452 25.1078 8.25105 25.2964 8.06162 25.4294C7.87218 25.5624 7.64612 25.6333 7.41465 25.6323ZM62.3463 24.4023C62.123 24.4027 61.9045 24.3365 61.7188 24.2123C61.5332 24.0881 61.3887 23.9114 61.3038 23.7048C61.0263 23.0372 60.7188 22.3622 60.3888 21.7172C60.3189 21.5857 60.2755 21.4417 60.2612 21.2935C60.2469 21.1452 60.262 20.9956 60.3055 20.8532C60.3934 20.5656 60.592 20.3246 60.8575 20.1834C61.1231 20.0422 61.4339 20.0122 61.7215 20.1001C62.0092 20.188 62.2501 20.3866 62.3913 20.6522C62.7514 21.3497 63.0814 22.0772 63.3814 22.8047C63.4427 22.9428 63.4756 23.0917 63.4781 23.2427C63.4806 23.3937 63.4526 23.5437 63.3959 23.6837C63.3392 23.8237 63.2549 23.9508 63.1481 24.0575C63.0412 24.1642 62.9139 24.2483 62.7739 24.3048C62.6395 24.3662 62.494 24.3993 62.3463 24.4023ZM10.5122 19.5196C10.293 19.521 10.0784 19.4556 9.89723 19.3321C9.77312 19.2523 9.66606 19.1487 9.58221 19.0272C9.49837 18.9058 9.4394 18.769 9.40872 18.6246C9.37804 18.4803 9.37625 18.3313 9.40345 18.1862C9.43066 18.0412 9.48632 17.903 9.56722 17.7796C10.0022 17.1196 10.4597 16.467 10.9398 15.8445C11.1228 15.6078 11.3923 15.4535 11.6891 15.4155C11.9859 15.3775 12.2856 15.459 12.5223 15.642C12.759 15.825 12.9133 16.0946 12.9513 16.3913C12.9893 16.6881 12.9078 16.9878 12.7248 17.2246C12.2823 17.8021 11.8473 18.4021 11.4498 19.0096C11.3479 19.1656 11.209 19.2939 11.0453 19.3829C10.8817 19.4719 10.6985 19.5189 10.5122 19.5196ZM59.0162 18.4021C58.838 18.4015 58.6623 18.3591 58.5034 18.2784C58.3445 18.1976 58.2068 18.0807 58.1012 17.9371C57.6737 17.3371 57.2162 16.7595 56.7512 16.2045C56.6556 16.0917 56.5832 15.9613 56.5381 15.8205C56.493 15.6798 56.4761 15.5315 56.4883 15.3842C56.5005 15.2369 56.5415 15.0934 56.6092 14.962C56.6768 14.8306 56.7696 14.7138 56.8824 14.6182C57.1102 14.4253 57.4053 14.3307 57.7028 14.3553C57.8501 14.3675 57.9935 14.4086 58.1249 14.4762C58.2564 14.5439 58.3732 14.6367 58.4687 14.7495C58.9712 15.3495 59.4663 15.972 59.9238 16.617C60.011 16.736 60.0739 16.8711 60.1087 17.0144C60.1435 17.1578 60.1496 17.3066 60.1266 17.4524C60.1036 17.5981 60.0519 17.7378 59.9746 17.8635C59.8973 17.9892 59.7959 18.0983 59.6763 18.1846C59.4855 18.3263 59.2539 18.4026 59.0162 18.4021ZM14.8549 14.277C14.6316 14.2725 14.4148 14.2016 14.2319 14.0735C14.049 13.9454 13.9084 13.7657 13.828 13.5574C13.7476 13.3491 13.7309 13.1215 13.7802 12.9037C13.8295 12.686 13.9426 12.4878 14.1049 12.3344C14.6749 11.7869 15.2749 11.2619 15.8824 10.7669C15.9934 10.6497 16.1283 10.5578 16.278 10.4973C16.4276 10.4369 16.5885 10.4094 16.7497 10.4166C16.911 10.4239 17.0687 10.4657 17.2124 10.5394C17.356 10.613 17.4821 10.7166 17.5821 10.8433C17.6821 10.97 17.7537 11.1166 17.7921 11.2734C17.8304 11.4302 17.8345 11.5934 17.8042 11.7519C17.7739 11.9104 17.7098 12.0606 17.6163 12.1921C17.5229 12.3237 17.4022 12.4336 17.2625 12.5144C16.6999 12.9719 16.1449 13.4594 15.6124 13.962C15.4094 14.1598 15.1384 14.2726 14.8549 14.277ZM54.4036 13.3844C54.1288 13.3829 53.8632 13.2847 53.6536 13.1069C53.1136 12.6269 52.536 12.1694 51.9435 11.7344C51.7053 11.5553 51.5473 11.2895 51.5038 10.9946C51.4603 10.6998 51.5347 10.3997 51.711 10.1593C51.8873 9.92428 52.149 9.76809 52.4396 9.72457C52.7302 9.68106 53.0262 9.75372 53.2636 9.92683C53.9011 10.3918 54.5161 10.8944 55.1086 11.4269C55.2847 11.5774 55.41 11.7786 55.4675 12.0029C55.525 12.2273 55.5118 12.464 55.4297 12.6806C55.3477 12.8972 55.2008 13.0832 55.0091 13.2132C54.8173 13.3432 54.5902 13.4109 54.3586 13.4069L54.4036 13.3844ZM20.3226 10.1518C20.074 10.1538 19.8318 10.0734 19.6338 9.92317C19.4358 9.77296 19.2931 9.56141 19.228 9.32154C19.1629 9.08168 19.179 8.82701 19.2739 8.5973C19.3688 8.36758 19.5371 8.17576 19.7525 8.05178C20.4426 7.65426 21.1401 7.30175 21.8451 6.94174C21.9781 6.87723 22.1224 6.83954 22.27 6.83082C22.4175 6.8221 22.5653 6.84252 22.705 6.89093C22.8446 6.93933 22.9733 7.01477 23.0838 7.11292C23.1943 7.21108 23.2844 7.33004 23.3489 7.46301C23.4134 7.59598 23.4511 7.74035 23.4598 7.88788C23.4685 8.03542 23.4481 8.18322 23.3997 8.32286C23.3513 8.4625 23.2759 8.59124 23.1777 8.70173C23.0796 8.81222 22.9606 8.90229 22.8276 8.9668C22.1751 9.28181 21.5226 9.62682 20.8851 10.0018C20.7136 10.0994 20.5198 10.151 20.3226 10.1518ZM48.7634 9.52932C48.5805 9.53166 48.3999 9.4878 48.2384 9.40182C47.6009 9.06431 46.9334 8.7493 46.2583 8.46429C46.11 8.41597 45.9733 8.33733 45.857 8.23336C45.7407 8.12938 45.6472 8.00235 45.5826 7.86033C45.518 7.7183 45.4837 7.5644 45.4818 7.40839C45.4799 7.25238 45.5104 7.09768 45.5715 6.95411C45.6326 6.81054 45.7229 6.68125 45.8366 6.57444C45.9503 6.46764 46.085 6.38566 46.2321 6.33371C46.3793 6.28176 46.5356 6.26098 46.6912 6.27269C46.8467 6.2844 46.9982 6.32834 47.1359 6.40173C47.8859 6.70923 48.5834 7.05425 49.2734 7.41426C49.4921 7.53215 49.6656 7.7191 49.7669 7.94594C49.8681 8.17278 49.8915 8.42677 49.8332 8.66827C49.775 8.90976 49.6385 9.1252 49.4449 9.28096C49.2514 9.43672 49.0118 9.52405 48.7634 9.52932ZM26.5852 7.44426C26.3181 7.44028 26.0611 7.34134 25.8602 7.16516C25.6593 6.98898 25.5277 6.74706 25.4889 6.48271C25.4501 6.21835 25.5067 5.94881 25.6484 5.72235C25.7902 5.49588 26.008 5.32727 26.2627 5.24669C27.0128 5.02168 27.7628 4.81918 28.5128 4.64667C28.8042 4.58202 29.1094 4.63579 29.3612 4.79614C29.6129 4.95648 29.7907 5.21028 29.8553 5.5017C29.92 5.79311 29.8662 6.09827 29.7059 6.35005C29.5455 6.60183 29.2917 6.77959 29.0003 6.84424C28.2503 7.00174 27.5678 7.18925 26.8703 7.39926C26.7774 7.42574 26.6817 7.44085 26.5852 7.44426ZM42.3357 7.09175C42.2445 7.09031 42.1539 7.07772 42.0657 7.05425C41.3157 6.87424 40.6332 6.72424 39.9132 6.59673C39.7602 6.58035 39.6122 6.53277 39.4783 6.45692C39.3445 6.38108 39.2276 6.27858 39.1349 6.15578C39.0422 6.03297 38.9757 5.89246 38.9395 5.74293C38.9033 5.59341 38.8981 5.43804 38.9244 5.28644C38.9506 5.13484 39.0076 4.99022 39.0919 4.86153C39.1762 4.73284 39.286 4.62282 39.4146 4.53825C39.5431 4.45369 39.6876 4.39638 39.8391 4.36988C39.9907 4.34337 40.1461 4.34824 40.2957 4.38416C41.0457 4.51917 41.8482 4.68417 42.6132 4.87168C42.761 4.8899 42.9037 4.93704 43.0332 5.01042C43.1627 5.08379 43.2765 5.18195 43.3681 5.29931C43.4597 5.41666 43.5273 5.5509 43.567 5.69437C43.6067 5.83784 43.6177 5.98773 43.5995 6.13547C43.5813 6.28321 43.5341 6.42591 43.4608 6.55544C43.3874 6.68496 43.2892 6.79876 43.1719 6.89035C43.0545 6.98193 42.9203 7.0495 42.7768 7.08921C42.6334 7.12891 42.4835 7.13997 42.3357 7.12175V7.09175ZM33.313 6.24422C33.0146 6.25317 32.7249 6.14323 32.5075 5.93857C32.2902 5.73392 32.1631 5.45131 32.1542 5.15294C32.1452 4.85456 32.2552 4.56485 32.4598 4.34753C32.6645 4.13022 32.9471 4.0031 33.2454 3.99415C33.868 3.99415 34.498 3.94915 35.1205 3.94165H35.608C35.9058 3.94756 36.1892 4.07051 36.397 4.28389C36.6047 4.49726 36.7201 4.78388 36.7181 5.08168C36.7192 5.23031 36.6902 5.37763 36.6329 5.51477C36.5756 5.65192 36.4912 5.77607 36.3847 5.87976C36.2782 5.98345 36.1518 6.06453 36.0132 6.11814C35.8746 6.17175 35.7266 6.19678 35.578 6.19172H35.1205C34.5655 6.19172 33.958 6.19172 33.3805 6.24422H33.313Z" fill="#193B6E"/>
<path d="M36.958 45.4405V50.4357C36.958 50.7904 36.8176 51.1308 36.5674 51.3824C36.3173 51.6339 35.9777 51.7762 35.6229 51.7782C35.2669 51.7782 34.9254 51.6368 34.6736 51.385C34.4218 51.1332 34.2804 50.7917 34.2804 50.4357V45.343" fill="#193B6E"/>
<path d="M34.2804 22.5198V17.5246C34.2764 17.3458 34.3082 17.168 34.3739 17.0017C34.4396 16.8353 34.5378 16.6837 34.6629 16.5559C34.7879 16.428 34.9373 16.3264 35.1022 16.2571C35.267 16.1877 35.4441 16.1521 35.623 16.1521C35.9777 16.1541 36.3173 16.2964 36.5674 16.548C36.8176 16.7995 36.958 17.1399 36.958 17.4946V22.5798" fill="#193B6E"/>
<path d="M42.7632 26.4274C40.7987 24.5921 38.2281 23.5431 35.5404 23.4798C32.6637 23.5305 29.9201 24.7014 27.8934 26.7436C25.8666 28.7858 24.7165 31.5381 24.6876 34.4151C24.7042 35.7906 24.9947 37.1489 25.542 38.4109C26.0893 39.6729 26.8824 40.8132 27.8752 41.7654C29.9225 43.7673 32.6415 44.9357 35.5029 45.043C38.1069 44.9527 40.6053 43.9913 42.5981 42.3129C43.18 41.8288 43.8326 41.4368 44.5332 41.1504C45.7632 41.1504 43.5132 43.4979 43.5132 43.4979C41.296 45.3931 38.4797 46.4426 35.5629 46.4605C28.9477 46.4605 23.1801 40.9403 23.1801 34.2951C23.2235 31.0331 24.5509 27.9196 26.8745 25.6297C29.1981 23.3398 32.3306 22.058 35.5929 22.0623C38.5257 22.07 41.35 23.172 43.5132 25.1524C43.5132 25.1524 44.5707 26.2024 44.5707 26.4499C44.5332 27.6724 42.9057 26.5924 42.7632 26.4274Z" fill="#193B6E"/>
<path d="M35.563 46.8355C32.2233 46.8168 29.0226 45.4961 26.6415 43.1542C24.2604 40.8124 22.8867 37.6341 22.8126 34.2951C22.8501 30.9383 24.21 27.7317 26.5971 25.3712C28.9842 23.0108 32.2059 21.687 35.563 21.6873C38.5777 21.7001 41.4793 22.8366 43.7007 24.8749C44.8782 26.0449 44.8782 26.3299 44.8782 26.4499C44.8981 26.6297 44.8619 26.8112 44.7746 26.9696C44.6874 27.128 44.5533 27.2556 44.3907 27.3349C43.6407 27.6574 42.4482 26.7124 42.4407 26.6974C40.5459 24.9264 38.0658 23.9146 35.4729 23.8548C32.705 23.9152 30.0695 25.0519 28.1259 27.0235C26.1823 28.9952 25.0834 31.6466 25.0626 34.4151C25.0766 35.7408 25.3559 37.0503 25.8841 38.2663C26.4122 39.4823 27.1785 40.5802 28.1377 41.4954C30.114 43.4283 32.7403 44.5542 35.5029 44.653C38.0165 44.5631 40.4274 43.6336 42.3507 42.0129C42.3507 42.0129 43.9482 40.7603 44.5332 40.7603C44.6738 40.7436 44.816 40.7724 44.9389 40.8427C45.0618 40.9129 45.1588 41.0208 45.2157 41.1504C45.4858 41.7729 44.5632 42.9054 43.7157 43.7454C41.4457 45.7015 38.5592 46.7955 35.563 46.8355ZM35.563 22.4373C33.6507 22.4258 31.7642 22.8781 30.065 23.7555C28.3659 24.6329 26.9049 25.9092 25.8071 27.475C24.7093 29.0409 24.0076 30.8495 23.762 32.7459C23.5164 34.6424 23.7343 36.5701 24.397 38.3639C25.0597 40.1577 26.1475 41.7641 27.5671 43.0453C28.9867 44.3266 30.6957 45.2445 32.5478 45.7205C34.3999 46.1965 36.3398 46.2163 38.2013 45.7783C40.0627 45.3402 41.7902 44.4574 43.2357 43.2054C43.7311 42.7219 44.1531 42.1686 44.4882 41.5629C43.9044 41.8436 43.3535 42.1883 42.8457 42.5904C40.7834 44.3259 38.1969 45.3167 35.5029 45.403C32.5454 45.3016 29.732 44.1009 27.6127 42.0354C26.5814 41.0502 25.758 39.8682 25.1911 38.5594C24.6243 37.2505 24.3256 35.8414 24.3126 34.4151C24.3356 31.4432 25.5182 28.5978 27.6085 26.4851C29.6988 24.3724 32.5314 23.1595 35.5029 23.1048C38.2942 23.1611 40.9659 24.2485 43.0032 26.1574C43.2207 26.3524 43.9707 26.7349 44.1432 26.6449C44.1588 26.5808 44.1588 26.514 44.1432 26.4499C43.8468 26.0907 43.5314 25.7477 43.1982 25.4224C41.1228 23.5157 38.4111 22.4514 35.593 22.4373H35.563Z" fill="#193B6E"/>
</svg>
