<svg width="529" height="353" viewBox="0 0 529 353" fill="none" xmlns="http://www.w3.org/2000/svg">
<path d="M22.0617 21.1206H21.3578V317.647H22.0617V21.1206Z" fill="#DAE9F7"/>
<path d="M54.4412 21.1206H53.7373V317.647H54.4412V21.1206Z" fill="#DAE9F7"/>
<path d="M86.8206 21.1206H86.1168V317.647H86.8206V21.1206Z" fill="#DAE9F7"/>
<path d="M119.2 21.1206H118.496V317.647H119.2V21.1206Z" fill="#DAE9F7"/>
<path d="M151.579 21.1206H150.875V317.647H151.579V21.1206Z" fill="#DAE9F7"/>
<path d="M183.958 21.1206H183.255V317.647H183.958V21.1206Z" fill="#DAE9F7"/>
<path d="M216.338 21.1206H215.634V317.647H216.338V21.1206Z" fill="#DAE9F7"/>
<path d="M248.718 21.1206H248.014V317.647H248.718V21.1206Z" fill="#DAE9F7"/>
<path d="M281.097 21.1206H280.393V317.647H281.097V21.1206Z" fill="#DAE9F7"/>
<path d="M313.476 21.1206H312.773V317.647H313.476V21.1206Z" fill="#DAE9F7"/>
<path d="M345.856 21.1206H345.152V317.647H345.856V21.1206Z" fill="#DAE9F7"/>
<path d="M378.236 21.1206H377.532V317.647H378.236V21.1206Z" fill="#DAE9F7"/>
<path d="M410.615 21.1206H409.911V317.647H410.615V21.1206Z" fill="#DAE9F7"/>
<path d="M442.994 21.1206H442.291V317.647H442.994V21.1206Z" fill="#DAE9F7"/>
<path d="M475.374 21.1206H474.67V317.647H475.374V21.1206Z" fill="#DAE9F7"/>
<path d="M507.753 21.1206H507.049V317.647H507.753V21.1206Z" fill="#DAE9F7"/>
<path d="M514.885 25.8804H14.2261V26.5843H514.885V25.8804Z" fill="#DAE9F7"/>
<path d="M514.885 58.2598H14.2261V58.9637H514.885V58.2598Z" fill="#DAE9F7"/>
<path d="M514.885 90.6392H14.2261V91.343H514.885V90.6392Z" fill="#DAE9F7"/>
<path d="M514.885 123.019H14.2261V123.723H514.885V123.019Z" fill="#DAE9F7"/>
<path d="M514.885 155.398H14.2261V156.102H514.885V155.398Z" fill="#DAE9F7"/>
<path d="M514.885 187.777H14.2261V188.481H514.885V187.777Z" fill="#DAE9F7"/>
<path d="M514.885 220.157H14.2261V220.861H514.885V220.157Z" fill="#DAE9F7"/>
<path d="M514.885 252.537H14.2261V253.241H514.885V252.537Z" fill="#DAE9F7"/>
<path d="M514.885 284.916H14.2261V285.62H514.885V284.916Z" fill="#DAE9F7"/>
<path d="M434.469 302.764C434.469 302.764 427.918 307.944 423.579 309.071C419.241 310.198 412.974 311.392 413.043 318.09H452.873C452.606 311.823 451.438 306.373 449.19 303.719C446.685 304.002 444.844 304.313 443.056 304.045C441.243 303.341 436.829 300.919 434.469 302.764Z" fill="#162E4C"/>
<path d="M480.257 303.48C480.257 303.48 481.816 308.518 485.448 309.358C489.787 310.45 494.355 311.605 494.286 318.09H461.25C461.518 312.023 462.433 306.504 464.682 303.935C467.187 304.208 469.28 304.751 471.068 304.492C472.881 303.81 477.898 301.693 480.257 303.48Z" fill="#162E4C"/>
<path d="M444.742 109.27C452.205 99.8277 445.435 91.054 437.928 90.9248C428.899 91.0187 392.613 110.322 390.272 112.016C374.238 121.168 383.208 134.411 393.178 132.859C399.867 132.61 435.588 120.853 444.742 109.27Z" fill="#2F4A7F"/>
<path d="M463.487 95.2894C457.735 98.996 452.371 99.9615 447.806 95.2894V69.7188H463.487V95.2894Z" fill="#EFAB8B"/>
<path d="M479.836 163.187L433.998 162.127C420.623 218.1 431.779 303.805 431.896 303.835C435.88 304.832 441.257 306.155 450.759 305.158C452.014 281.164 457.225 192.76 457.225 192.76L463.24 304.725C466.947 306.055 477.122 306.227 481.051 304.897C491.628 175.332 479.836 163.187 479.836 163.187Z" fill="#7DB6F9"/>
<path d="M431.836 169.321L431.592 170.522C439.274 173.589 447.486 175.108 455.756 174.994L456.592 171.441L457.567 174.994C466.927 174.799 475.524 173.753 482.918 171.37L482.52 169.321H431.836Z" fill="white"/>
<path d="M456.874 192.779L456.489 185.336L449.538 183.545L449.714 182.863L457.166 184.783L457.576 192.742L456.874 192.779Z" fill="#3E7EDB"/>
<path d="M428.035 94.8809C432.914 90.5238 446.401 89.6791 446.401 89.6791C446.401 89.6791 447.578 92.879 454.343 92.879C461.108 92.879 464.88 89.6694 464.88 89.6694C464.88 89.6694 480.256 90.2417 486.616 95.5157C492.977 100.79 487.529 167.315 483.363 169.427C477.865 172.379 435.107 171.695 431.616 169.191C428.342 167.259 422.181 100.237 428.035 94.8809Z" fill="#2F4A7F"/>
<path d="M425.261 122.023C425.206 116.951 425.474 111.88 426.064 106.842L426.762 106.926C426.176 111.934 425.91 116.974 425.964 122.016L425.261 122.023Z" fill="#162E4C"/>
<path d="M444.946 89.8032L447.806 85.8159C449.329 89.0154 450.366 90.9515 453.548 92.8789L450.02 97.6696C447.58 95.6138 445.813 92.8737 444.946 89.8032Z" fill="white"/>
<path d="M466.566 89.8034L463.487 84.8555C462.195 88.8635 459.96 90.8496 455.812 92.879L458.939 97.6697C462.174 95.822 464.819 93.0942 466.566 89.8034Z" fill="white"/>
<path d="M486.616 95.5157C477.709 91.5395 473.753 95.7775 472.177 102.555C470.521 110.732 482.107 145.536 483.287 147.828C489.373 159.943 505.626 152.181 505.434 141.817C506.488 135.741 498.019 103.446 486.616 95.5157Z" fill="#2F4A7F"/>
<path d="M483.434 137.946C477.751 130.733 473.224 118.639 473.178 118.517L473.838 118.272C473.883 118.392 478.372 130.385 483.986 137.51L483.434 137.946Z" fill="#162E4C"/>
<path d="M419.171 172.762L439.814 151.86C440.313 151.355 440.991 151.069 441.7 151.065C442.41 151.06 443.091 151.338 443.596 151.836L472.046 179.934C472.551 180.432 472.837 181.111 472.841 181.82C472.846 182.529 472.568 183.211 472.07 183.715L451.426 204.618C450.928 205.123 450.25 205.409 449.54 205.413C448.831 205.417 448.149 205.14 447.645 204.642L419.195 176.544C418.69 176.046 418.404 175.367 418.4 174.658C418.395 173.949 418.673 173.267 419.171 172.762Z" fill="#162E4C"/>
<path d="M442.229 153.814L421.156 175.152L449.012 202.663L470.085 181.325L442.229 153.814Z" fill="white"/>
<path d="M434.063 156.433L433.175 157.331C432.648 156.904 431.981 156.688 431.304 156.726C430.626 156.763 429.987 157.051 429.51 157.534L424.716 162.389C424.239 162.872 423.959 163.514 423.93 164.192C423.901 164.87 424.125 165.534 424.558 166.056L423.671 166.955C423.554 167.073 423.461 167.214 423.399 167.368C423.336 167.523 423.304 167.688 423.305 167.855C423.306 168.021 423.34 168.186 423.405 168.34C423.469 168.493 423.564 168.633 423.682 168.75L425.765 170.807C425.884 170.924 426.024 171.017 426.179 171.079C426.333 171.142 426.498 171.174 426.665 171.173C426.832 171.172 426.997 171.138 427.15 171.073C427.304 171.009 427.443 170.914 427.56 170.796L437.952 160.274C438.069 160.155 438.162 160.014 438.225 159.86C438.287 159.706 438.319 159.54 438.318 159.374C438.317 159.207 438.283 159.042 438.218 158.888C438.154 158.735 438.059 158.595 437.941 158.478L435.858 156.421C435.739 156.304 435.599 156.212 435.444 156.149C435.29 156.086 435.125 156.054 434.958 156.055C434.791 156.056 434.626 156.09 434.473 156.155C434.319 156.22 434.18 156.314 434.063 156.433Z" fill="#7DB6F9"/>
<path d="M443.425 189.89L441.116 192.227L448.666 199.683L450.974 197.346L443.425 189.89Z" fill="#E8615B"/>
<path d="M450.425 190.352L448.117 192.689L451.891 196.417L454.2 194.08L450.425 190.352Z" fill="#E8615B"/>
<path d="M448.35 181.852L446.042 184.189L455.117 193.151L457.425 190.814L448.35 181.852Z" fill="#E8615B"/>
<path d="M456.283 183.236L453.975 185.573L458.342 189.886L460.65 187.549L456.283 183.236Z" fill="#E8615B"/>
<path d="M449.539 170.123L447.231 172.46L461.567 186.619L463.876 184.282L449.539 170.123Z" fill="#E8615B"/>
<path d="M459.551 173.561L457.243 175.898L464.793 183.354L467.101 181.017L459.551 173.561Z" fill="#E8615B"/>
<path d="M432.929 157.086L424.305 165.805L424.806 166.3L433.429 157.581L432.929 157.086Z" fill="#162E4C"/>
<path d="M435.447 170.679L435.993 177.348L440.697 172.586C440.011 171.908 439.187 171.387 438.281 171.057C437.375 170.728 436.408 170.599 435.447 170.679Z" fill="#EFAC37"/>
<path d="M435.447 170.68C434.17 170.784 432.951 171.252 431.932 172.029C430.914 172.806 430.14 173.858 429.702 175.062C429.265 176.266 429.182 177.57 429.463 178.819C429.744 180.069 430.379 181.211 431.29 182.111L435.993 177.349L435.447 170.68Z" fill="#7DB6F9"/>
<path d="M440.756 182.052C442.003 180.789 442.698 179.082 442.686 177.307C442.675 175.532 441.96 173.834 440.697 172.586L435.993 177.349L431.29 182.111C431.916 182.729 432.656 183.217 433.471 183.548C434.285 183.88 435.156 184.047 436.035 184.042C436.914 184.036 437.783 183.858 438.593 183.516C439.403 183.175 440.138 182.677 440.756 182.052Z" fill="#E8615B"/>
<path d="M438.54 165.245L437.372 166.427L438.554 167.595L439.722 166.413L438.54 165.245Z" fill="#E8615B"/>
<path d="M440.905 167.582L439.738 168.764L440.92 169.932L442.087 168.749L440.905 167.582Z" fill="#7DB6F9"/>
<path d="M443.271 169.918L442.104 171.1L443.286 172.267L444.453 171.085L443.271 169.918Z" fill="#EFAC37"/>
<path d="M445.246 159.139L439.933 164.511L440.433 165.006L445.747 159.634L445.246 159.139Z" fill="#162E4C"/>
<path d="M447.612 161.476L442.299 166.849L442.8 167.344L448.113 161.971L447.612 161.476Z" fill="#162E4C"/>
<path d="M449.978 163.813L444.664 169.185L445.164 169.68L450.478 164.308L449.978 163.813Z" fill="#162E4C"/>
<path d="M470.165 164.259C472.522 168.82 470.044 170.671 466.763 173.201C463.482 175.731 454.63 179.185 454.63 179.185C452.301 180.132 451.458 178.269 452.086 177.87C452.407 177.704 450.822 178.411 450.492 178.546C447.536 179.634 447.2 177.161 448.232 176.433C446.101 177.658 444.606 175.411 445.918 174.516C444.297 175.223 443.016 173.109 445.189 171.653C446.324 170.743 456.806 164.86 456.806 164.86L454.17 162.319C457.082 161.385 460.132 160.957 463.188 161.053C465.527 161.015 468.746 161.515 470.165 164.259Z" fill="#EFAB8B"/>
<path d="M458.671 173.474L451.787 177.68L452.154 178.28L459.038 174.075L458.671 173.474Z" fill="#D88260"/>
<path d="M457.009 171.094L448.111 176.152L448.459 176.764L457.357 171.705L457.009 171.094Z" fill="#D88260"/>
<path d="M455.723 168.497L445.802 174.104L446.148 174.717L456.07 169.111L455.723 168.497Z" fill="#D88260"/>
<path d="M464.381 157.637L460.97 160.188C464.636 163.589 467.907 167.28 470.112 171.98L474.193 169.45C474.054 161.835 471.394 157.055 464.381 157.637Z" fill="white"/>
<path d="M472.473 171.301C468.607 161.834 462.545 158.199 462.545 158.199L487.673 134.567C501.567 125.994 511.745 141.39 500.019 152.001C492.086 159.28 483.28 165.546 473.803 170.654C472.098 171.574 472.473 171.301 472.473 171.301Z" fill="#2F4A7F"/>
<path d="M468.251 153.17L467.761 152.664L483.542 137.419C486.41 135.897 489.697 135.356 492.901 135.879L492.802 136.576C489.764 136.063 486.641 136.569 483.92 138.015L468.251 153.17Z" fill="#162E4C"/>
<path d="M472.631 171.616L472.316 170.986C476.809 168.789 481.098 166.196 485.132 163.239L485.565 163.794C481.494 166.779 477.165 169.397 472.631 171.616Z" fill="#162E4C"/>
<path d="M443.947 66.9179L437.942 67.0229L437.955 67.7268L443.959 67.6218L443.947 66.9179Z" fill="#162E4C"/>
<path d="M443.822 56.9247C443.822 56.9247 439.246 73.0389 439.743 77.4156C440.241 81.7923 441.733 84.7763 450.088 84.08C458.444 83.3837 462.621 78.3122 465.407 70.5528C468.192 62.7934 451.182 44.3915 443.822 56.9247Z" fill="#EFAB8B"/>
<path d="M447.808 84.5326L447.792 83.8287C447.858 83.8274 454.411 83.6511 457.116 81.2314L457.584 81.7559C454.686 84.3495 448.088 84.5264 447.808 84.5326Z" fill="#05060B"/>
<path d="M445.126 49.3528C445.661 48.702 446.324 48.1684 447.074 47.7853C447.888 47.4533 448.756 47.2727 449.634 47.2526C452.441 46.2245 455.632 45.5867 458.572 46.436C461.584 47.3057 463.705 50.0386 465.932 52.1C467.709 53.7589 469.056 55.8255 469.855 58.1212C470.398 59.504 470.637 60.9874 470.557 62.4708C470.364 64.9915 469.855 67.0403 470.187 69.6137C470.064 71.7355 469.369 73.7845 468.176 75.5429C466.982 77.3014 465.335 78.7036 463.408 79.6006C463.408 79.6006 461.186 78.6349 460.286 77.511C459.832 76.9838 459.482 76.3748 459.255 75.7164C458.724 73.9627 459.608 72.1238 460.368 70.4667C461.129 68.8096 461.771 66.7688 460.84 65.2118C460.634 64.8841 460.361 64.6031 460.04 64.387C459.718 64.1708 459.355 64.0243 458.974 63.9567C458.592 63.8891 458.201 63.902 457.825 63.9945C457.449 64.087 457.096 64.2572 456.79 64.494C455.742 65.3789 455.45 66.9152 455.335 68.326C454.908 68.1082 454.545 67.7829 454.282 67.3821C454.018 66.9814 453.864 66.519 453.833 66.0404C453.886 64.9625 454.198 63.9133 454.742 62.9812C455.179 62.0027 455.525 60.8432 455.085 59.8662C454.892 59.4796 454.627 59.1328 454.305 58.8441C443.898 54.8213 443.139 59.4601 443.139 59.4601C443.139 59.4601 442.987 59.9894 442.766 60.8307C441.508 60.3233 442.202 55.9927 442.419 54.93C442.825 52.8684 443.757 50.9469 445.126 49.3528Z" fill="#162E4C"/>
<path d="M439.291 72.8524C439.227 72.8524 439.164 72.8478 439.102 72.8386C438.902 72.8023 438.711 72.7248 438.543 72.611C438.374 72.4972 438.231 72.3497 438.123 72.1777C437.405 71.1459 437.254 68.9858 437.738 66.6741C438.423 63.4025 440.017 61.1018 441.474 61.3138C441.674 61.3502 441.864 61.4277 442.032 61.5415C442.201 61.6553 442.344 61.8028 442.452 61.9748C443.17 63.0062 443.321 65.1663 442.837 67.478C442.182 70.6077 440.684 72.8524 439.291 72.8524ZM441.282 62.0036C440.391 62.0036 439.034 63.916 438.427 66.8184C437.987 68.9167 438.097 70.9087 438.7 71.7756C438.755 71.8683 438.828 71.9488 438.915 72.0119C439.002 72.075 439.101 72.1194 439.206 72.1423C440.07 72.2787 441.52 70.3324 442.148 67.3336C442.587 65.2354 442.477 63.2433 441.875 62.3766C441.82 62.2839 441.747 62.2035 441.66 62.1404C441.573 62.0774 441.474 62.033 441.369 62.0102C441.341 62.0057 441.311 62.0035 441.282 62.0036Z" fill="#162E4C"/>
<path d="M446.129 73.8753C446.066 73.8753 446.002 73.8706 445.94 73.8613C445.74 73.8249 445.549 73.7474 445.381 73.6335C445.212 73.5197 445.069 73.372 444.961 73.2C444.243 72.1686 444.092 70.0085 444.576 67.6971C445.261 64.4254 446.857 62.123 448.312 62.3365C448.512 62.3729 448.702 62.4504 448.871 62.5641C449.039 62.6778 449.182 62.8252 449.291 62.9971C450.008 64.0282 450.16 66.1886 449.676 68.501C449.021 71.6306 447.522 73.8753 446.129 73.8753ZM448.12 63.0263C447.229 63.0263 445.872 64.9389 445.265 67.8414C444.826 69.9393 444.936 71.9314 445.538 72.7982C445.593 72.8909 445.666 72.9714 445.753 73.0345C445.84 73.0976 445.939 73.142 446.044 73.1649C446.921 73.2976 448.359 71.3547 448.987 68.3567C449.426 66.2577 449.316 64.2657 448.713 63.3992C448.658 63.3065 448.586 63.226 448.499 63.1629C448.412 63.0999 448.312 63.0556 448.207 63.0328C448.179 63.0283 448.149 63.0262 448.12 63.0263Z" fill="#162E4C"/>
<path d="M445.543 65.5315C444.425 64.8496 443.582 64.7259 442.968 65.1531L442.566 64.575C443.421 63.9811 444.546 64.0993 445.91 64.9307L445.543 65.5315Z" fill="#162E4C"/>
<path d="M455.329 67.973L449.325 68.0786L449.338 68.7825L455.341 68.6768L455.329 67.973Z" fill="#162E4C"/>
<path d="M294.796 318.09H210.921L218.892 183.758H287.439L294.796 318.09Z" fill="#2F4A7F"/>
<path d="M294.796 318.09H210.921L218.892 183.758H287.439L294.796 318.09Z" fill="#2F4A7F"/>
<path d="M98.1131 80.5278H407.604C408.518 80.5278 409.422 80.7078 410.266 81.0573C411.11 81.4069 411.877 81.9193 412.523 82.5652C413.169 83.2111 413.681 83.9779 414.031 84.8219C414.38 85.6658 414.56 86.5703 414.56 87.4838V271.248C414.56 272.161 414.38 273.066 414.031 273.909C413.681 274.753 413.169 275.52 412.523 276.166C411.877 276.812 411.11 277.324 410.266 277.674C409.422 278.024 408.518 278.203 407.604 278.203H98.1131C97.1996 278.203 96.2951 278.024 95.4511 277.674C94.6072 277.324 93.8404 276.812 93.1945 276.166C92.5485 275.52 92.0362 274.753 91.6866 273.909C91.337 273.065 91.1571 272.161 91.1571 271.248V87.4838C91.1571 86.5703 91.337 85.6658 91.6866 84.8219C92.0362 83.9779 92.5485 83.2111 93.1945 82.5652C93.8404 81.9193 94.6072 81.4069 95.4511 81.0573C96.2951 80.7078 97.1996 80.5278 98.1131 80.5278Z" fill="#476B9E"/>
<path d="M399.342 95.8574H106.375V262.874H399.342V95.8574Z" fill="white"/>
<path d="M343.237 318.09H162.481C162.481 316.947 162.706 315.815 163.143 314.76C163.58 313.704 164.221 312.744 165.029 311.936C165.837 311.128 166.797 310.487 167.852 310.05C168.908 309.613 170.04 309.388 171.183 309.388H334.535C335.677 309.388 336.809 309.613 337.865 310.05C338.92 310.487 339.88 311.128 340.688 311.936C341.496 312.744 342.137 313.704 342.574 314.76C343.011 315.815 343.237 316.947 343.237 318.09Z" fill="#476B9E"/>
<path d="M257.243 89.3718H244.968C244.589 89.3718 244.226 89.2214 243.959 88.9537C243.691 88.686 243.54 88.323 243.54 87.9444C243.54 87.5659 243.691 87.2028 243.959 86.9351C244.226 86.6675 244.589 86.5171 244.968 86.5171H257.243C257.621 86.5171 257.984 86.6675 258.252 86.9351C258.52 87.2028 258.67 87.5659 258.67 87.9444C258.67 88.323 258.52 88.686 258.252 88.9537C257.984 89.2214 257.621 89.3718 257.243 89.3718ZM244.968 87.221C244.776 87.221 244.592 87.2972 244.456 87.4329C244.321 87.5685 244.244 87.7526 244.244 87.9444C244.244 88.1363 244.321 88.3203 244.456 88.456C244.592 88.5917 244.776 88.6679 244.968 88.6679H257.243C257.434 88.6679 257.618 88.5917 257.754 88.456C257.89 88.3203 257.966 88.1363 257.966 87.9444C257.966 87.7526 257.89 87.5685 257.754 87.4329C257.618 87.2972 257.434 87.221 257.243 87.221H244.968Z" fill="#162E4C"/>
<path d="M260.7 89.3717C260.42 89.3622 260.149 89.2704 259.92 89.1078C259.692 88.9452 259.516 88.7189 259.415 88.4572C259.315 88.1955 259.293 87.9099 259.354 87.6361C259.414 87.3623 259.554 87.1124 259.756 86.9175C259.957 86.7226 260.212 86.5913 260.488 86.5401C260.763 86.4889 261.048 86.52 261.306 86.6295C261.564 86.739 261.784 86.9221 261.939 87.1559C262.094 87.3897 262.177 87.6639 262.177 87.9443C262.169 88.3292 262.01 88.6955 261.733 88.9631C261.456 89.2306 261.085 89.3775 260.7 89.3717ZM260.7 87.2209C260.559 87.2302 260.424 87.2805 260.311 87.3656C260.198 87.4508 260.113 87.5671 260.065 87.7002C260.017 87.8333 260.01 87.9774 260.043 88.1148C260.076 88.2522 260.149 88.3769 260.252 88.4735C260.355 88.5701 260.485 88.6345 260.624 88.6587C260.763 88.6828 260.906 88.6657 261.036 88.6095C261.166 88.5533 261.276 88.4603 261.354 88.3422C261.431 88.224 261.473 88.0857 261.473 87.9443C261.466 87.7461 261.38 87.5588 261.236 87.4232C261.091 87.2877 260.898 87.2149 260.7 87.2209Z" fill="#162E4C"/>
<path d="M292.611 277.852H213.287V278.555H292.611V277.852Z" fill="#162E4C"/>
<path d="M294.32 309.036H211.58V309.74H294.32V309.036Z" fill="#162E4C"/>
<path d="M131.691 95.8569H130.987V262.874H131.691V95.8569Z" fill="#DAE9F7"/>
<path d="M118.9 95.8569H118.196V262.874H118.9V95.8569Z" fill="#DAE9F7"/>
<path d="M144.482 95.8569H143.778V262.874H144.482V95.8569Z" fill="#DAE9F7"/>
<path d="M157.274 95.8569H156.57V262.874H157.274V95.8569Z" fill="#DAE9F7"/>
<path d="M170.066 95.8569H169.362V262.874H170.066V95.8569Z" fill="#DAE9F7"/>
<path d="M195.649 95.8569H194.945V262.874H195.649V95.8569Z" fill="#DAE9F7"/>
<path d="M182.857 95.8569H182.153V262.874H182.857V95.8569Z" fill="#DAE9F7"/>
<path d="M208.44 95.8569H207.736V262.874H208.44V95.8569Z" fill="#DAE9F7"/>
<path d="M221.231 95.8569H220.528V262.874H221.231V95.8569Z" fill="#DAE9F7"/>
<path d="M234.023 95.8569H233.319V262.874H234.023V95.8569Z" fill="#DAE9F7"/>
<path d="M259.606 95.8569H258.902V262.874H259.606V95.8569Z" fill="#DAE9F7"/>
<path d="M246.815 95.8569H246.111V262.874H246.815V95.8569Z" fill="#DAE9F7"/>
<path d="M272.398 95.8569H271.694V262.874H272.398V95.8569Z" fill="#DAE9F7"/>
<path d="M285.189 95.8569H284.485V262.874H285.189V95.8569Z" fill="#DAE9F7"/>
<path d="M297.981 95.8569H297.277V262.874H297.981V95.8569Z" fill="#DAE9F7"/>
<path d="M323.564 95.8569H322.86V262.874H323.564V95.8569Z" fill="#DAE9F7"/>
<path d="M310.772 95.8569H310.068V262.874H310.772V95.8569Z" fill="#DAE9F7"/>
<path d="M336.355 95.8569H335.652V262.874H336.355V95.8569Z" fill="#DAE9F7"/>
<path d="M349.147 95.8569H348.443V262.874H349.147V95.8569Z" fill="#DAE9F7"/>
<path d="M361.938 95.8569H361.234V262.874H361.938V95.8569Z" fill="#DAE9F7"/>
<path d="M374.73 95.8569H374.026V262.874H374.73V95.8569Z" fill="#DAE9F7"/>
<path d="M387.522 95.8569H386.818V262.874H387.522V95.8569Z" fill="#DAE9F7"/>
<path d="M208.44 128.026H207.736V159.032H208.44V128.026Z" fill="#162E4C"/>
<path d="M213.045 153.341C212.402 154.112 203.623 154.198 203.024 153.341C202.424 152.485 202.638 134.423 203.024 133.684C203.409 132.946 212.402 132.881 213.045 133.684C213.687 134.487 213.687 152.57 213.045 153.341Z" fill="#7DB6F9"/>
<path d="M259.606 111.666H258.902V167.661H259.606V111.666Z" fill="#162E4C"/>
<path d="M264.211 151.532C263.568 152.303 254.789 152.389 254.19 151.532C253.59 150.676 253.804 132.614 254.19 131.875C254.575 131.137 263.568 131.072 264.211 131.875C264.853 132.678 264.853 150.761 264.211 151.532Z" fill="#7DB6F9"/>
<path d="M170.16 108.394H169.456V164.39H170.16V108.394Z" fill="#162E4C"/>
<path d="M174.764 148.261C174.122 149.032 165.343 149.118 164.743 148.261C164.143 147.405 164.358 129.343 164.743 128.605C165.128 127.866 174.122 127.802 174.764 128.605C175.406 129.408 175.406 147.491 174.764 148.261Z" fill="#7DB6F9"/>
<path d="M285.189 94.647H284.485V150.643H285.189V94.647Z" fill="#162E4C"/>
<path d="M289.794 134.514C289.151 135.285 280.372 135.37 279.773 134.514C279.173 133.658 279.387 115.596 279.773 114.857C280.158 114.118 289.151 114.054 289.794 114.857C290.436 115.66 290.436 133.743 289.794 134.514Z" fill="#7DB6F9"/>
<path d="M349.116 61.9175H348.412V97.8178H349.116V61.9175Z" fill="#162E4C"/>
<path d="M353.721 87.4756C353.078 88.2465 344.299 88.3322 343.7 87.4756C343.1 86.6191 343.314 73.4187 343.7 72.6799C344.085 71.9412 353.078 71.877 353.721 72.6799C354.363 73.4829 354.363 86.7048 353.721 87.4756Z" fill="#7DB6F9"/>
<path d="M336.355 69.7144H335.652V105.615H336.355V69.7144Z" fill="#162E4C"/>
<path d="M340.96 95.2731C340.317 96.0439 331.538 96.1296 330.939 95.2731C330.339 94.4166 330.553 81.216 330.939 80.4773C331.324 79.7386 340.317 79.6744 340.96 80.4773C341.602 81.2802 341.602 94.5022 340.96 95.2731Z" fill="#7DB6F9"/>
<path d="M374.73 46.0518H374.026V81.9524H374.73V46.0518Z" fill="#162E4C"/>
<path d="M379.334 71.6099C378.692 72.3808 369.913 72.4664 369.313 71.6099C368.714 70.7535 368.928 57.553 369.313 56.8142C369.699 56.0755 378.692 56.0112 379.334 56.8142C379.977 57.6172 379.977 70.8391 379.334 71.6099Z" fill="#7DB6F9"/>
<path d="M157.274 101.784H156.57V143.506H157.274V101.784Z" fill="#162E4C"/>
<path d="M161.879 136.374C161.236 137.145 152.457 137.231 151.858 136.374C151.258 135.518 151.472 117.456 151.858 116.718C152.243 115.979 161.236 115.915 161.879 116.718C162.521 117.52 162.521 135.603 161.879 136.374Z" fill="#7DB6F9"/>
<path d="M182.857 120.277H182.153V149.511H182.857V120.277Z" fill="#162E4C"/>
<path d="M187.462 133.574C186.819 134.345 178.04 134.43 177.441 133.574C176.841 132.717 177.055 125.893 177.441 125.155C177.826 124.416 186.819 124.352 187.462 125.155C188.104 125.958 188.104 132.803 187.462 133.574Z" fill="#7DB6F9"/>
<path d="M221.231 120.277H220.528V149.511H221.231V120.277Z" fill="#162E4C"/>
<path d="M225.836 133.574C225.194 134.345 216.415 134.43 215.815 133.574C215.216 132.717 215.43 125.893 215.815 125.155C216.2 124.416 225.194 124.352 225.836 125.155C226.479 125.958 226.479 132.803 225.836 133.574Z" fill="#7DB6F9"/>
<path d="M144.482 107.16H143.778V136.393H144.482V107.16Z" fill="#162E4C"/>
<path d="M149.087 120.456C148.445 121.226 139.666 121.312 139.066 120.456C138.466 119.599 138.681 112.775 139.066 112.036C139.451 111.298 148.445 111.233 149.087 112.036C149.729 112.839 149.729 119.685 149.087 120.456Z" fill="#7DB6F9"/>
<path d="M272.398 121.776H271.694V151.009H272.398V121.776Z" fill="#162E4C"/>
<path d="M277.002 135.073C276.36 135.844 267.581 135.929 266.981 135.073C266.382 134.216 266.596 127.392 266.981 126.654C267.367 125.915 276.36 125.851 277.002 126.654C277.645 127.457 277.645 134.302 277.002 135.073Z" fill="#7DB6F9"/>
<path d="M323.564 70.9951H322.86V100.228H323.564V70.9951Z" fill="#162E4C"/>
<path d="M328.168 84.2925C327.526 85.0633 318.747 85.149 318.147 84.2925C317.548 83.436 317.762 76.612 318.147 75.8733C318.533 75.1346 327.526 75.0704 328.168 75.8733C328.811 76.6762 328.811 83.5216 328.168 84.2925Z" fill="#7DB6F9"/>
<path d="M387.522 46.6577H386.818V75.8907H387.522V46.6577Z" fill="#162E4C"/>
<path d="M392.126 59.9536C391.484 60.7244 382.704 60.8101 382.105 59.9536C381.505 59.0971 381.719 52.2732 382.105 51.5345C382.49 50.7957 391.484 50.7315 392.126 51.5345C392.768 52.3374 392.768 59.1827 392.126 59.9536Z" fill="#7DB6F9"/>
<path d="M118.9 86.96H118.196V137.375H118.9V86.96Z" fill="#162E4C"/>
<path d="M123.504 128.988C122.862 129.759 114.082 129.845 113.483 128.988C112.883 128.132 113.097 103.888 113.483 103.149C113.868 102.41 122.862 102.346 123.504 103.149C124.146 103.952 124.146 128.217 123.504 128.988Z" fill="#7DB6F9"/>
<path d="M297.981 81.9517H297.277V132.366H297.981V81.9517Z" fill="#162E4C"/>
<path d="M302.585 123.979C301.943 124.75 293.164 124.836 292.564 123.979C291.965 123.123 292.179 98.8791 292.564 98.1404C292.95 97.4017 301.943 97.3374 302.585 98.1404C303.228 98.9434 303.228 123.209 302.585 123.979Z" fill="#7DB6F9"/>
<path d="M131.691 62.397H130.987V125.085H131.691V62.397Z" fill="#162E4C"/>
<path d="M136.296 111.453C135.653 112.224 126.874 112.309 126.275 111.453C125.675 110.596 125.889 69.8093 126.275 69.0706C126.66 68.3319 135.653 68.2676 136.296 69.0706C136.938 69.8736 136.938 110.682 136.296 111.453Z" fill="#7DB6F9"/>
<path d="M361.938 56.8716H361.234V113.541H361.938V56.8716Z" fill="#162E4C"/>
<path d="M366.543 99.9081C365.901 100.679 357.121 100.765 356.522 99.9081C355.922 99.0516 356.136 64.2834 356.522 63.5447C356.907 62.806 365.901 62.7417 366.543 63.5447C367.185 64.3477 367.185 99.1372 366.543 99.9081Z" fill="#7DB6F9"/>
<path d="M246.815 135.271H246.111V189.191H246.815V135.271Z" fill="#162E4C"/>
<path d="M251.419 175.558C250.777 176.329 241.998 176.415 241.398 175.558C240.799 174.702 241.013 142.683 241.398 141.945C241.783 141.206 250.777 141.142 251.419 141.945C252.062 142.748 252.062 174.788 251.419 175.558Z" fill="#7DB6F9"/>
<path d="M310.772 76.9424H310.068V112.351H310.772V76.9424Z" fill="#162E4C"/>
<path d="M315.377 107.301C314.735 108.072 305.955 108.157 305.356 107.301C304.756 106.444 304.97 82.2005 305.356 81.4617C305.741 80.7229 314.735 80.6588 315.377 81.4617C316.019 82.2646 316.019 106.53 315.377 107.301Z" fill="#7DB6F9"/>
<path d="M195.649 138.07H194.945V173.479H195.649V138.07Z" fill="#162E4C"/>
<path d="M200.253 168.428C199.611 169.199 190.832 169.285 190.232 168.428C189.633 167.572 189.847 143.328 190.232 142.589C190.618 141.85 199.611 141.786 200.253 142.589C200.896 143.392 200.896 167.657 200.253 168.428Z" fill="#7DB6F9"/>
<path d="M234.023 125.414H233.319V160.823H234.023V125.414Z" fill="#162E4C"/>
<path d="M238.628 155.772C237.985 156.543 229.206 156.628 228.607 155.772C228.007 154.915 228.221 130.672 228.607 129.933C228.992 129.194 237.985 129.13 238.628 129.933C239.27 130.736 239.27 155.001 238.628 155.772Z" fill="#7DB6F9"/>
<path d="M144.131 179.976H106.386V262.874H144.131V179.976Z" fill="#193B6E"/>
<path d="M195.297 201.754H156.922V262.874H195.297V201.754Z" fill="#193B6E"/>
<path d="M246.346 240.501H207.971V262.874H246.346V240.501Z" fill="#193B6E"/>
<path d="M348.795 213.789H310.42V262.874H348.795V213.789Z" fill="#193B6E"/>
<path d="M399.332 154.559H360.957V262.874H399.332V154.559Z" fill="#193B6E"/>
<path d="M297.629 182.757H259.254V262.874H297.629V182.757Z" fill="#193B6E"/>
<path d="M206.26 66.5903C205.195 63.4989 203.09 60.8734 200.303 59.163C191.106 53.6224 176.595 56.0328 173.188 67.3157C170.214 77.1651 177.414 87.6177 187.685 88.1089C193.332 88.3791 199.567 86.6214 203.441 82.3001C207.256 78.0449 208.123 71.7991 206.26 66.5903Z" fill="#EFAC37"/>
<path d="M202.349 67.9329C201.538 65.5786 199.935 63.5792 197.813 62.2765C190.808 58.057 179.758 59.8927 177.163 68.4853C174.898 75.9864 180.381 83.9468 188.203 84.3209C192.504 84.5266 197.252 83.188 200.203 79.8971C201.588 78.2717 202.517 76.3075 202.894 74.2053C203.271 72.1032 203.083 69.9385 202.349 67.9329Z" fill="#E5931C"/>
<path d="M197.042 62.2425C195.783 61.5732 194.436 61.0867 193.041 60.7976L193.187 60.1089C194.647 60.4117 196.057 60.9214 197.374 61.6225L197.042 62.2425Z" fill="#D16D00"/>
<path d="M202.661 76.4552L202 76.2126C202.946 73.5754 202.952 70.6925 202.018 68.0512C201.526 66.65 200.75 65.3659 199.737 64.2802L200.25 63.7983C201.329 64.9542 202.157 66.3217 202.68 67.8141C203.669 70.6107 203.662 73.663 202.661 76.4552Z" fill="#D16D00"/>
<path d="M189.092 84.6941C188.792 84.6941 188.49 84.6869 188.187 84.6725C186.3 84.5742 184.461 84.0443 182.811 83.1236C181.162 82.2028 179.745 80.9158 178.671 79.3616C177.544 77.795 176.792 75.9905 176.472 74.0873C176.152 72.184 176.273 70.2327 176.826 68.3837C178.319 63.4389 182.673 60.2282 188.473 59.7944L188.525 60.4963C183.027 60.9074 178.906 63.9322 177.5 68.5872C176.978 70.3338 176.864 72.1768 177.167 73.9744C177.47 75.7719 178.181 77.476 179.246 78.9554C180.258 80.422 181.594 81.6367 183.15 82.5059C184.705 83.3752 186.44 83.8758 188.22 83.9692C192.948 84.194 197.321 82.5848 199.941 79.6621C200.444 79.0997 200.884 78.4846 201.255 77.8274L201.868 78.1732C201.472 78.875 201.002 79.5317 200.465 80.1319C197.875 83.0214 193.673 84.6941 189.092 84.6941Z" fill="#D16D00"/>
<path d="M194.169 74.4754C194.192 74.969 194.118 75.4626 193.951 75.9276C193.783 76.3926 193.526 76.8201 193.193 77.1853C192.555 77.8574 191.733 78.3252 190.83 78.5297V79.9172C190.852 80.277 190.804 80.6378 190.689 80.9795C190.611 81.1656 190.463 81.3135 190.277 81.3913C189.803 81.5359 189.298 81.5359 188.825 81.3913C188.737 81.3574 188.658 81.305 188.592 81.2376C188.527 81.1703 188.476 81.0896 188.445 81.0011C188.327 80.6449 188.276 80.2701 188.293 79.8953V78.5512C187.724 78.4308 187.181 78.2105 186.689 77.9006C186.318 77.6847 185.982 77.4144 185.691 77.0987L185.41 76.7301C185.152 76.4484 184.992 76.0908 184.954 75.7109C184.954 75.4221 185.2 75.0392 185.691 74.5619C185.932 74.3086 186.263 74.1605 186.613 74.1499C186.938 74.1499 187.39 74.439 187.968 75.0171C188.14 75.2624 188.367 75.4644 188.63 75.6074C188.893 75.7504 189.186 75.8304 189.486 75.8412C190.555 75.8412 191.09 75.4003 191.09 74.5185C191.09 74.2008 190.888 73.9551 190.483 73.7816C190.006 73.585 189.513 73.429 189.009 73.3153C188.418 73.1741 187.838 72.9893 187.274 72.7624C186.677 72.5166 186.165 72.1022 185.8 71.57C185.375 70.9372 185.162 70.1855 185.193 69.4237C185.187 68.5712 185.479 67.7433 186.017 67.0821C186.589 66.3745 187.397 65.8973 188.293 65.738V64.5237C188.275 64.1648 188.319 63.8053 188.423 63.4614C188.567 63.1147 188.95 62.9413 189.572 62.9412C189.885 62.9178 190.196 63.0062 190.451 63.1905C190.623 63.321 190.743 63.5098 190.786 63.7218C190.82 63.995 190.835 64.2703 190.83 64.5456V65.7596C191.211 65.8388 191.583 65.9625 191.935 66.1282C192.179 66.2362 192.411 66.3668 192.629 66.5184L192.824 66.6919L192.911 66.7569C193.272 67.0895 193.453 67.364 193.453 67.5807C193.375 67.9784 193.2 68.3508 192.944 68.665C192.837 68.8753 192.678 69.0551 192.483 69.1878C192.288 69.3204 192.062 69.4016 191.827 69.4237C191.591 69.4312 191.36 69.3628 191.166 69.2286C190.985 69.0986 190.844 68.9901 190.743 68.9032C190.653 68.8255 190.559 68.7532 190.461 68.6865C190.18 68.5181 189.856 68.4352 189.529 68.448C189.197 68.4349 188.87 68.5301 188.596 68.7192C188.478 68.8034 188.382 68.9159 188.318 69.0464C188.254 69.177 188.223 69.3215 188.228 69.4668C188.228 69.6229 188.269 69.7764 188.347 69.9116C188.425 70.0467 188.538 70.1589 188.673 70.2368C189.005 70.445 189.379 70.5782 189.768 70.6269C190.251 70.7033 190.729 70.8119 191.198 70.952C191.688 71.0927 192.167 71.2704 192.629 71.4834C193.097 71.7187 193.48 72.0938 193.724 72.5566C194.039 73.1459 194.192 73.8078 194.169 74.4754Z" fill="white"/>
<path d="M190.21 46.5479H189.506V52.2507H190.21V46.5479Z" fill="#D16D00"/>
<path d="M186.347 49.3994H185.643V55.1024H186.347V49.3994Z" fill="#D16D00"/>
<path d="M194.01 50.231H193.306V54.2704H194.01V50.231Z" fill="#D16D00"/>
<path d="M243.559 185.308C242.495 182.217 240.389 179.591 237.603 177.881C228.406 172.34 213.895 174.751 210.488 186.033C207.514 195.883 214.714 206.335 224.984 206.827C230.632 207.097 236.867 205.339 240.741 201.018C244.556 196.763 245.422 190.517 243.559 185.308Z" fill="#EFAC37"/>
<path d="M239.649 186.65C238.838 184.296 237.235 182.296 235.113 180.994C228.108 176.774 217.058 178.61 214.463 187.203C212.198 194.704 217.681 202.664 225.503 203.038C229.804 203.244 234.552 201.905 237.502 198.614C238.888 196.989 239.817 195.025 240.194 192.923C240.571 190.82 240.383 188.656 239.649 186.65Z" fill="#E5931C"/>
<path d="M234.341 180.959C233.083 180.29 231.736 179.803 230.341 179.514L230.487 178.826C231.947 179.128 233.357 179.638 234.674 180.339L234.341 180.959Z" fill="#D16D00"/>
<path d="M239.961 195.173L239.3 194.93C240.245 192.293 240.252 189.41 239.317 186.768C238.826 185.367 238.05 184.083 237.037 182.997L237.55 182.516C238.629 183.672 239.456 185.039 239.98 186.531C240.969 189.328 240.962 192.38 239.961 195.173Z" fill="#D16D00"/>
<path d="M226.392 203.411C226.091 203.411 225.79 203.404 225.486 203.389C223.6 203.291 221.761 202.761 220.111 201.84C218.461 200.919 217.045 199.632 215.971 198.078C214.844 196.511 214.091 194.707 213.772 192.804C213.452 190.901 213.573 188.949 214.126 187.1C215.619 182.156 219.974 178.945 225.773 178.511L225.825 179.213C220.328 179.624 216.206 182.649 214.8 187.304C214.278 189.051 214.164 190.894 214.467 192.691C214.77 194.488 215.481 196.192 216.546 197.672C217.558 199.138 218.894 200.353 220.449 201.222C222.005 202.092 223.74 202.592 225.519 202.686C230.243 202.911 234.62 201.301 237.241 198.379C237.744 197.817 238.184 197.201 238.554 196.544L239.168 196.89C238.772 197.592 238.302 198.248 237.765 198.849C235.175 201.738 230.973 203.411 226.392 203.411Z" fill="#D16D00"/>
<path d="M231.469 193.193C231.492 193.687 231.418 194.18 231.251 194.645C231.083 195.11 230.826 195.538 230.493 195.903C229.855 196.575 229.033 197.043 228.13 197.247V198.635C228.152 198.995 228.104 199.356 227.989 199.697C227.911 199.883 227.763 200.031 227.577 200.109C227.103 200.254 226.598 200.254 226.124 200.109C226.037 200.075 225.957 200.023 225.892 199.955C225.826 199.888 225.776 199.807 225.745 199.719C225.627 199.363 225.576 198.988 225.593 198.613V197.269C225.024 197.149 224.481 196.928 223.989 196.618C223.618 196.403 223.282 196.132 222.991 195.817L222.71 195.448C222.452 195.166 222.292 194.809 222.254 194.429C222.254 194.14 222.5 193.757 222.991 193.28C223.232 193.026 223.563 192.878 223.913 192.868C224.238 192.868 224.69 193.157 225.268 193.735C225.44 193.98 225.667 194.182 225.93 194.325C226.193 194.468 226.486 194.548 226.786 194.559C227.855 194.559 228.39 194.118 228.39 193.236C228.39 192.919 228.187 192.673 227.783 192.499C227.306 192.303 226.812 192.147 226.309 192.033C225.718 191.892 225.138 191.707 224.574 191.48C223.977 191.234 223.465 190.82 223.1 190.288C222.675 189.655 222.462 188.903 222.493 188.142C222.487 187.289 222.779 186.461 223.317 185.8C223.889 185.092 224.697 184.615 225.593 184.456V183.241C225.575 182.883 225.619 182.523 225.723 182.179C225.867 181.832 226.25 181.659 226.872 181.659C227.185 181.636 227.496 181.724 227.75 181.908C227.923 182.039 228.043 182.228 228.086 182.44C228.12 182.713 228.135 182.988 228.13 183.263V184.477C228.511 184.557 228.882 184.68 229.235 184.846C229.478 184.954 229.711 185.085 229.929 185.236L230.124 185.41L230.211 185.475C230.572 185.807 230.753 186.082 230.753 186.298C230.675 186.696 230.5 187.069 230.244 187.383C230.137 187.593 229.978 187.773 229.783 187.906C229.588 188.038 229.362 188.119 229.127 188.142C228.891 188.149 228.66 188.081 228.466 187.946C228.285 187.816 228.144 187.708 228.043 187.621C227.953 187.543 227.859 187.471 227.761 187.404C227.48 187.236 227.156 187.153 226.829 187.166C226.497 187.153 226.17 187.248 225.896 187.437C225.778 187.521 225.682 187.634 225.618 187.764C225.553 187.895 225.523 188.039 225.528 188.185C225.528 188.341 225.569 188.494 225.647 188.629C225.725 188.765 225.837 188.877 225.973 188.955C226.305 189.163 226.679 189.296 227.068 189.345C227.551 189.421 228.029 189.53 228.498 189.67C228.988 189.811 229.466 189.988 229.929 190.201C230.397 190.437 230.78 190.812 231.024 191.274C231.339 191.864 231.492 192.526 231.469 193.193Z" fill="white"/>
<path d="M227.51 165.265H226.806V170.968H227.51V165.265Z" fill="#D16D00"/>
<path d="M223.646 168.117H222.942V173.82H223.646V168.117Z" fill="#D16D00"/>
<path d="M231.31 168.948H230.606V172.988H231.31V168.948Z" fill="#D16D00"/>
<path d="M345.854 140.129C344.79 137.038 342.684 134.413 339.898 132.702C330.701 127.162 316.19 129.572 312.783 140.855C309.809 150.704 317.009 161.157 327.279 161.648C332.927 161.918 339.162 160.16 343.036 155.839C346.851 151.584 347.717 145.338 345.854 140.129Z" fill="#EFAC37"/>
<path d="M341.944 141.471C341.133 139.117 339.53 137.118 337.408 135.815C330.403 131.596 319.353 133.431 316.758 142.024C314.493 149.525 319.976 157.485 327.798 157.859C332.099 158.065 336.847 156.727 339.797 153.436C341.183 151.81 342.112 149.846 342.489 147.744C342.866 145.642 342.678 143.477 341.944 141.471Z" fill="#E5931C"/>
<path d="M336.637 135.781C335.379 135.112 334.032 134.626 332.637 134.337L332.781 133.648C334.242 133.95 335.652 134.46 336.969 135.161L336.637 135.781Z" fill="#D16D00"/>
<path d="M342.255 149.994L341.594 149.752C342.54 147.115 342.547 144.232 341.613 141.591C341.121 140.19 340.344 138.906 339.332 137.819L339.845 137.337C340.924 138.494 341.751 139.861 342.275 141.353C343.264 144.15 343.257 147.202 342.255 149.994Z" fill="#D16D00"/>
<path d="M328.686 158.233C328.386 158.233 328.084 158.225 327.781 158.211C325.895 158.113 324.056 157.583 322.406 156.662C320.757 155.742 319.34 154.455 318.266 152.901C317.139 151.334 316.387 149.529 316.067 147.626C315.747 145.723 315.868 143.771 316.421 141.922C317.914 136.978 322.268 133.767 328.068 133.333L328.12 134.035C322.622 134.446 318.501 137.471 317.095 142.126C316.573 143.872 316.459 145.716 316.762 147.513C317.065 149.311 317.776 151.015 318.841 152.495C319.853 153.961 321.189 155.176 322.745 156.045C324.3 156.914 326.035 157.414 327.814 157.508C332.538 157.734 336.914 156.123 339.535 153.201C340.039 152.638 340.479 152.023 340.85 151.366L341.463 151.712C341.067 152.414 340.596 153.07 340.059 153.671C337.469 156.56 333.267 158.233 328.686 158.233Z" fill="#D16D00"/>
<path d="M333.763 148.014C333.787 148.508 333.713 149.002 333.546 149.467C333.378 149.932 333.121 150.359 332.788 150.724C332.15 151.396 331.328 151.864 330.424 152.069V153.456C330.447 153.816 330.399 154.177 330.284 154.519C330.206 154.705 330.058 154.853 329.872 154.93C329.398 155.075 328.893 155.075 328.419 154.93C328.332 154.896 328.252 154.844 328.187 154.777C328.121 154.709 328.071 154.629 328.04 154.54C327.922 154.184 327.87 153.809 327.888 153.434V152.09C327.319 151.97 326.776 151.75 326.284 151.44C325.913 151.224 325.577 150.954 325.286 150.638L325.005 150.269C324.747 149.987 324.587 149.63 324.549 149.25C324.549 148.961 324.795 148.578 325.286 148.101C325.527 147.848 325.858 147.7 326.208 147.689C326.533 147.689 326.985 147.978 327.563 148.556C327.735 148.802 327.962 149.004 328.225 149.147C328.488 149.29 328.781 149.37 329.081 149.38C330.15 149.38 330.685 148.939 330.685 148.058C330.685 147.74 330.482 147.494 330.078 147.321C329.601 147.124 329.107 146.968 328.604 146.854C328.013 146.713 327.433 146.528 326.869 146.302C326.272 146.056 325.76 145.641 325.395 145.109C324.969 144.476 324.757 143.725 324.788 142.963C324.782 142.11 325.074 141.282 325.612 140.621C326.184 139.914 326.992 139.436 327.888 139.277V138.063C327.87 137.704 327.914 137.344 328.018 137C328.162 136.654 328.545 136.48 329.167 136.48C329.48 136.457 329.791 136.545 330.045 136.73C330.218 136.86 330.338 137.049 330.381 137.261C330.415 137.534 330.43 137.809 330.424 138.085V139.299C330.806 139.378 331.177 139.502 331.53 139.667C331.773 139.775 332.006 139.906 332.224 140.057L332.419 140.231L332.506 140.296C332.867 140.629 333.048 140.903 333.048 141.12C332.97 141.518 332.795 141.89 332.539 142.204C332.432 142.414 332.273 142.594 332.078 142.727C331.882 142.86 331.657 142.941 331.422 142.963C331.186 142.97 330.955 142.902 330.761 142.768C330.58 142.638 330.439 142.529 330.338 142.442C330.248 142.365 330.154 142.292 330.056 142.226C329.775 142.057 329.451 141.974 329.124 141.987C328.792 141.974 328.465 142.069 328.191 142.258C328.073 142.343 327.977 142.455 327.913 142.586C327.848 142.716 327.818 142.861 327.823 143.006C327.823 143.162 327.864 143.315 327.942 143.451C328.02 143.586 328.132 143.698 328.268 143.776C328.6 143.984 328.973 144.117 329.362 144.166C329.846 144.242 330.324 144.351 330.793 144.491C331.283 144.632 331.761 144.809 332.224 145.023C332.692 145.258 333.074 145.633 333.319 146.096C333.634 146.685 333.787 147.347 333.763 148.014Z" fill="white"/>
<path d="M329.805 120.086H329.101V125.789H329.805V120.086Z" fill="#D16D00"/>
<path d="M325.941 122.938H325.238V128.641H325.941V122.938Z" fill="#D16D00"/>
<path d="M333.605 123.77H332.901V127.809H333.605V123.77Z" fill="#D16D00"/>
<path d="M19.0665 285.458L17.0759 283.467L54.7979 245.745H105.001L135.685 215.061H188.024L200.776 227.812H225.705L256.741 196.775H304.203L325.112 175.866H361.858L402.278 135.446H433.699L463.25 105.895L465.24 107.886L434.865 138.261H403.444L363.024 178.681H326.279L305.369 199.59H257.907L226.87 230.627H199.609L186.858 217.876H136.851L106.166 248.561H55.9636L19.0665 285.458Z" fill="#162E4C"/>
<path d="M465.653 120.759H462.837V108.298H450.484V105.482H465.653V120.759Z" fill="#162E4C"/>
<path d="M63.4229 244.908C62.9668 243.583 62.0648 242.458 60.8711 241.726C56.9311 239.352 50.715 240.385 49.2554 245.218C48.9614 246.218 48.8957 247.271 49.0633 248.3C49.2308 249.329 49.6272 250.307 50.2233 251.162C50.8194 252.017 51.5999 252.727 52.5072 253.24C53.4145 253.753 54.4255 254.056 55.4654 254.126C57.885 254.242 60.5559 253.489 62.2154 251.637C62.9948 250.723 63.5172 249.618 63.7294 248.436C63.9416 247.253 63.8358 246.036 63.4229 244.908Z" fill="#E8615B"/>
<path d="M59.4891 246.258C59.2884 245.675 58.8914 245.18 58.366 244.857C56.6319 243.813 53.8959 244.267 53.2536 246.394C53.1241 246.835 53.0952 247.298 53.169 247.751C53.2427 248.204 53.4172 248.634 53.6796 249.01C53.9419 249.387 54.2854 249.699 54.6848 249.925C55.0841 250.151 55.5291 250.284 55.9868 250.315C56.5318 250.358 57.0797 250.283 57.5926 250.094C58.1056 249.905 58.5713 249.606 58.9577 249.22C59.3007 248.817 59.5307 248.331 59.6241 247.811C59.7174 247.29 59.6709 246.754 59.4891 246.258Z" fill="white"/>
<path d="M113.813 244.908C113.357 243.583 112.455 242.458 111.261 241.726C107.321 239.352 101.105 240.385 99.6456 245.218C99.3515 246.218 99.2859 247.271 99.4534 248.3C99.6209 249.329 100.017 250.307 100.613 251.162C101.21 252.017 101.99 252.727 102.897 253.24C103.805 253.753 104.816 254.056 105.856 254.126C108.275 254.242 110.946 253.489 112.606 251.637C113.385 250.723 113.907 249.618 114.12 248.436C114.332 247.253 114.226 246.036 113.813 244.908Z" fill="#E8615B"/>
<path d="M109.879 246.258C109.679 245.675 109.282 245.18 108.756 244.857C107.022 243.813 104.286 244.267 103.644 246.394C103.514 246.835 103.486 247.298 103.559 247.751C103.633 248.204 103.807 248.634 104.07 249.01C104.332 249.387 104.676 249.699 105.075 249.925C105.474 250.151 105.919 250.284 106.377 250.315C106.922 250.358 107.47 250.283 107.983 250.094C108.496 249.905 108.962 249.606 109.348 249.22C109.691 248.817 109.921 248.331 110.014 247.811C110.108 247.29 110.061 246.754 109.879 246.258Z" fill="white"/>
<path d="M143.07 214.379C142.614 213.054 141.712 211.93 140.518 211.197C136.578 208.823 130.362 209.856 128.903 214.689C128.609 215.689 128.543 216.743 128.71 217.771C128.878 218.8 129.274 219.778 129.871 220.633C130.467 221.488 131.247 222.198 132.154 222.711C133.062 223.224 134.073 223.527 135.113 223.597C137.532 223.713 140.203 222.96 141.863 221.109C142.642 220.194 143.165 219.09 143.377 217.907C143.589 216.725 143.483 215.507 143.07 214.379Z" fill="#E8615B"/>
<path d="M139.136 215.728C138.936 215.145 138.539 214.65 138.013 214.328C136.279 213.283 133.543 213.738 132.901 215.865C132.771 216.305 132.742 216.769 132.816 217.222C132.89 217.674 133.064 218.105 133.327 218.481C133.589 218.857 133.933 219.17 134.332 219.396C134.731 219.622 135.176 219.755 135.634 219.786C136.179 219.829 136.727 219.754 137.24 219.565C137.753 219.375 138.219 219.077 138.605 218.69C138.948 218.288 139.178 217.802 139.271 217.281C139.365 216.761 139.318 216.225 139.136 215.728Z" fill="white"/>
<path d="M195.087 214.379C194.631 213.054 193.729 211.93 192.535 211.197C188.595 208.823 182.379 209.856 180.92 214.689C180.626 215.689 180.56 216.743 180.728 217.771C180.895 218.8 181.291 219.778 181.888 220.633C182.484 221.488 183.264 222.198 184.171 222.711C185.079 223.224 186.09 223.527 187.13 223.597C189.549 223.713 192.22 222.96 193.88 221.109C194.659 220.194 195.182 219.09 195.394 217.907C195.606 216.725 195.5 215.507 195.087 214.379Z" fill="#E8615B"/>
<path d="M191.153 215.728C190.953 215.145 190.556 214.65 190.03 214.328C188.296 213.283 185.56 213.738 184.918 215.865C184.788 216.305 184.759 216.769 184.833 217.222C184.907 217.674 185.081 218.105 185.344 218.481C185.606 218.857 185.95 219.17 186.349 219.396C186.748 219.622 187.193 219.755 187.651 219.786C188.196 219.829 188.744 219.754 189.257 219.565C189.77 219.375 190.236 219.077 190.622 218.69C190.965 218.288 191.195 217.802 191.288 217.281C191.382 216.761 191.335 216.225 191.153 215.728Z" fill="white"/>
<path d="M207.372 226.663C206.916 225.339 206.014 224.214 204.82 223.481C200.88 221.108 194.664 222.14 193.204 226.974C192.91 227.974 192.845 229.027 193.012 230.056C193.18 231.084 193.576 232.062 194.172 232.917C194.768 233.772 195.549 234.483 196.456 234.996C197.363 235.509 198.374 235.811 199.414 235.881C201.834 235.997 204.505 235.244 206.164 233.393C206.944 232.479 207.466 231.374 207.678 230.191C207.89 229.009 207.785 227.791 207.372 226.663Z" fill="#E8615B"/>
<path d="M203.438 228.013C203.237 227.431 202.84 226.936 202.315 226.613C200.581 225.568 197.845 226.023 197.202 228.15C197.073 228.59 197.044 229.054 197.118 229.507C197.192 229.96 197.366 230.39 197.628 230.766C197.891 231.143 198.234 231.455 198.634 231.681C199.033 231.907 199.478 232.04 199.936 232.071C200.481 232.114 201.029 232.039 201.542 231.85C202.054 231.661 202.52 231.362 202.907 230.976C203.25 230.573 203.48 230.087 203.573 229.566C203.666 229.046 203.62 228.51 203.438 228.013Z" fill="white"/>
<path d="M233.325 226.663C232.869 225.339 231.967 224.214 230.774 223.481C226.834 221.108 220.618 222.14 219.158 226.974C218.864 227.974 218.798 229.027 218.966 230.056C219.133 231.084 219.53 232.062 220.126 232.917C220.722 233.772 221.502 234.483 222.41 234.996C223.317 235.509 224.328 235.811 225.368 235.881C227.787 235.997 230.458 235.244 232.118 233.393C232.897 232.479 233.42 231.374 233.632 230.191C233.844 229.009 233.738 227.791 233.325 226.663Z" fill="#E8615B"/>
<path d="M229.392 228.013C229.191 227.431 228.794 226.936 228.269 226.613C226.534 225.568 223.799 226.023 223.156 228.15C223.027 228.59 222.998 229.054 223.072 229.507C223.145 229.96 223.32 230.39 223.582 230.766C223.845 231.143 224.188 231.455 224.587 231.681C224.987 231.907 225.432 232.04 225.889 232.071C226.434 232.114 226.982 232.039 227.495 231.85C228.008 231.661 228.474 231.362 228.86 230.976C229.203 230.573 229.433 230.087 229.527 229.566C229.62 229.046 229.573 228.51 229.392 228.013Z" fill="white"/>
<path d="M264.19 196.341C263.734 195.017 262.832 193.892 261.638 193.159C257.698 190.786 251.482 191.818 250.023 196.652C249.728 197.652 249.663 198.705 249.83 199.734C249.998 200.763 250.394 201.741 250.99 202.596C251.586 203.451 252.367 204.161 253.274 204.674C254.182 205.187 255.193 205.49 256.233 205.559C258.652 205.675 261.323 204.922 262.983 203.071C263.762 202.157 264.284 201.052 264.497 199.869C264.709 198.687 264.603 197.469 264.19 196.341Z" fill="#E8615B"/>
<path d="M260.256 197.691C260.056 197.108 259.659 196.613 259.133 196.291C257.399 195.246 254.663 195.701 254.021 197.828C253.891 198.268 253.862 198.732 253.936 199.184C254.01 199.637 254.184 200.068 254.447 200.444C254.709 200.82 255.053 201.133 255.452 201.359C255.851 201.585 256.296 201.718 256.754 201.749C257.299 201.792 257.847 201.717 258.36 201.527C258.873 201.338 259.339 201.04 259.725 200.653C260.068 200.251 260.298 199.765 260.391 199.244C260.485 198.724 260.438 198.188 260.256 197.691Z" fill="white"/>
<path d="M313.114 196.341C312.658 195.017 311.756 193.892 310.562 193.159C306.622 190.786 300.406 191.818 298.947 196.652C298.653 197.652 298.587 198.705 298.755 199.734C298.922 200.763 299.318 201.741 299.915 202.596C300.511 203.451 301.291 204.161 302.198 204.674C303.106 205.187 304.117 205.49 305.157 205.559C307.576 205.675 310.247 204.922 311.907 203.071C312.686 202.157 313.209 201.052 313.421 199.869C313.633 198.687 313.527 197.469 313.114 196.341Z" fill="#E8615B"/>
<path d="M309.18 197.691C308.98 197.108 308.583 196.613 308.057 196.291C306.323 195.246 303.587 195.701 302.945 197.828C302.815 198.268 302.787 198.732 302.86 199.184C302.934 199.637 303.108 200.068 303.371 200.444C303.633 200.82 303.977 201.133 304.376 201.359C304.775 201.585 305.22 201.718 305.678 201.749C306.223 201.792 306.771 201.717 307.284 201.527C307.797 201.338 308.263 201.04 308.649 200.653C308.992 200.251 309.222 199.765 309.315 199.244C309.409 198.724 309.362 198.188 309.18 197.691Z" fill="white"/>
<path d="M333.501 174.72C333.045 173.396 332.143 172.271 330.949 171.539C327.009 169.165 320.793 170.198 319.333 175.031C319.039 176.031 318.974 177.084 319.141 178.113C319.309 179.142 319.705 180.12 320.301 180.975C320.897 181.83 321.678 182.54 322.585 183.053C323.492 183.566 324.503 183.869 325.543 183.939C327.963 184.055 330.634 183.302 332.293 181.45C333.073 180.536 333.595 179.431 333.807 178.249C334.019 177.066 333.914 175.849 333.501 174.72Z" fill="#E8615B"/>
<path d="M329.567 176.071C329.367 175.488 328.97 174.993 328.444 174.671C326.71 173.626 323.974 174.08 323.332 176.208C323.202 176.648 323.173 177.112 323.247 177.564C323.321 178.017 323.495 178.448 323.758 178.824C324.02 179.2 324.364 179.513 324.763 179.739C325.162 179.964 325.607 180.098 326.065 180.128C326.61 180.172 327.158 180.096 327.671 179.907C328.184 179.718 328.649 179.42 329.036 179.033C329.379 178.631 329.609 178.145 329.702 177.624C329.796 177.104 329.749 176.568 329.567 176.071Z" fill="white"/>
<path d="M369.434 174.72C368.978 173.396 368.076 172.271 366.883 171.539C362.943 169.165 356.726 170.198 355.267 175.031C354.973 176.031 354.907 177.084 355.075 178.113C355.242 179.142 355.639 180.12 356.235 180.975C356.831 181.83 357.611 182.54 358.519 183.053C359.426 183.566 360.437 183.869 361.477 183.939C363.896 184.055 366.567 183.302 368.227 181.45C369.006 180.536 369.529 179.431 369.741 178.249C369.953 177.066 369.847 175.849 369.434 174.72Z" fill="#E8615B"/>
<path d="M365.501 176.071C365.3 175.488 364.903 174.993 364.378 174.671C362.643 173.626 359.907 174.08 359.265 176.208C359.136 176.648 359.107 177.112 359.18 177.564C359.254 178.017 359.429 178.448 359.691 178.824C359.953 179.2 360.297 179.513 360.696 179.739C361.096 179.964 361.541 180.098 361.998 180.128C362.543 180.172 363.091 180.096 363.604 179.907C364.117 179.718 364.583 179.42 364.969 179.033C365.312 178.631 365.542 178.145 365.636 177.624C365.729 177.104 365.682 176.568 365.501 176.071Z" fill="white"/>
<path d="M410.127 134.693C409.671 133.369 408.769 132.244 407.575 131.511C403.635 129.138 397.419 130.17 395.96 135.004C395.666 136.004 395.6 137.057 395.767 138.086C395.935 139.115 396.331 140.093 396.928 140.948C397.524 141.803 398.304 142.513 399.211 143.026C400.119 143.539 401.13 143.842 402.17 143.912C404.589 144.027 407.26 143.274 408.92 141.423C409.699 140.509 410.222 139.404 410.434 138.221C410.646 137.039 410.54 135.821 410.127 134.693Z" fill="#E8615B"/>
<path d="M406.193 136.043C405.993 135.46 405.596 134.965 405.07 134.643C403.336 133.598 400.6 134.053 399.958 136.18C399.828 136.62 399.799 137.084 399.873 137.537C399.947 137.989 400.121 138.42 400.384 138.796C400.646 139.172 400.99 139.485 401.389 139.711C401.788 139.937 402.233 140.07 402.691 140.101C403.236 140.144 403.784 140.069 404.297 139.88C404.81 139.69 405.276 139.392 405.662 139.005C406.005 138.603 406.235 138.117 406.328 137.596C406.422 137.076 406.375 136.54 406.193 136.043Z" fill="white"/>
<path d="M440.897 134.693C440.441 133.369 439.539 132.244 438.345 131.511C434.405 129.138 428.189 130.17 426.73 135.004C426.436 136.004 426.37 137.057 426.538 138.086C426.705 139.115 427.101 140.093 427.698 140.948C428.294 141.803 429.074 142.513 429.982 143.026C430.889 143.539 431.9 143.842 432.94 143.912C435.359 144.027 438.03 143.274 439.69 141.423C440.469 140.509 440.992 139.404 441.204 138.221C441.416 137.039 441.31 135.821 440.897 134.693Z" fill="#E8615B"/>
<path d="M436.964 136.043C436.763 135.46 436.366 134.965 435.84 134.643C434.106 133.598 431.37 134.053 430.728 136.18C430.599 136.62 430.57 137.084 430.643 137.537C430.717 137.989 430.892 138.42 431.154 138.796C431.416 139.172 431.76 139.485 432.159 139.711C432.559 139.937 433.003 140.07 433.461 140.101C434.006 140.144 434.554 140.069 435.067 139.88C435.58 139.69 436.046 139.392 436.432 139.005C436.775 138.603 437.005 138.117 437.098 137.596C437.192 137.076 437.145 136.54 436.964 136.043Z" fill="white"/>
<path d="M91.969 306.882C91.1863 310.563 90.9109 314.334 91.1504 318.09H125.632C126.307 315.144 126.009 313.491 118.409 311.323C114.012 310.172 108.388 306.594 108.388 306.594L91.969 306.882Z" fill="#162E4C"/>
<path d="M44.7612 306.882C43.9786 310.563 43.7032 314.334 43.9427 318.09L74.1831 318.09C74.1831 318.09 74.1831 313.204 68.4676 311.323C63.4131 309.564 61.1801 306.594 61.1801 306.594L44.7612 306.882Z" fill="#162E4C"/>
<path d="M43.4276 166.394C33.9089 193.215 41.4693 300.208 43.1487 306.919C46.1158 308.714 53.0799 308.625 63.4761 306.919C65.2026 258.249 65.7974 185.339 65.7974 185.339L66.461 185.326L90.2244 306.919C92.6138 308.868 99.9849 308.472 109.817 306.919C104.993 248.372 99.5372 193.321 89.1998 165.265L43.4276 166.394Z" fill="#7DB6F9"/>
<path d="M58.3586 84.3788L59.0694 68.6963L65.8926 58.3617L74.9901 51.2793L79.0414 51.9298C79.0414 51.9298 82.453 58.9399 82.8084 62.4088C83.1638 65.8777 85.0117 67.3231 85.0117 68.335C85.0117 69.3468 82.453 70.503 82.453 70.503C82.453 70.503 84.3707 80.3423 80.3905 81.4986C77.9692 81.8672 75.5164 81.9847 73.0711 81.8493L72.929 90.2326L58.3586 84.3788Z" fill="#EFAB8B"/>
<path d="M59.0694 75.0566C49.5691 65.9987 48.9159 56.6574 53.8099 54.8211C52.6822 49.4709 57.3771 46.0495 64.7191 43.5049C69.1242 41.9782 74.1922 41.5604 77.0186 42.5822C79.8449 43.604 82.6575 51.6569 75.4877 54.6043C77.0692 58.1093 77.5844 60.1509 77.691 64.9027C77.691 64.9027 77.6378 66.8901 76.3762 66.5288C75.7624 61.2384 71.2588 59.5908 70.3348 62.3732C69.8542 64.6935 70.4059 66.9624 69.4937 69.4195C67.3647 74.5225 63.4202 75.9575 59.0694 75.0566Z" fill="#162E4C"/>
<path d="M128.251 94.2902C130.174 91.1152 136.292 92.379 134.565 97.4451C134.565 97.4451 125.149 129.47 119.432 135.362C113.916 141.837 103.422 139.013 106.566 127.396C107.216 123.077 128.251 94.2902 128.251 94.2902Z" fill="#EFAB8B"/>
<path d="M42.1288 168.954L41.375 172.481C50.1368 177.366 73.4229 179.234 91.3231 171.315L90.7264 168.425L42.1288 168.954Z" fill="white"/>
<path d="M61.1418 148.263C63.7213 150.569 60.293 159.08 55.9179 156.667C55.9179 156.667 27.9694 142.838 23.5982 136.528C18.6466 130.318 23.3021 120.834 33.4925 125.594C37.3816 126.873 61.1418 148.263 61.1418 148.263Z" fill="#EFAB8B"/>
<path d="M43.4725 91.4589C51.0698 81.1241 62.7384 83.09 62.0633 97.658C61.4232 104.145 41.5598 134.279 36.3473 138.7C30.876 145.214 17.8324 140.137 21.1985 129.122C21.8188 124.798 43.4725 91.4589 43.4725 91.4589Z" fill="#D9EBFF"/>
<path d="M42.0609 169.272C45.3275 173.373 86.0245 173.403 91.0248 168.744C95.6726 164.945 90.4271 158.386 91.1345 147.334C91.5656 140.6 92.2803 133.69 93.4643 128.891C96.5916 116.215 96.6729 95.7754 93.4034 92.4323C91.541 89.9742 83.461 85.7904 73.0301 84.2677C68.1919 85.3178 63.1807 85.2804 58.3587 84.1582C56.2208 84.34 54.0995 84.682 52.0128 85.1814C30.5453 90.4735 42.4325 135.438 43.4276 145.606C44.4227 155.774 38.7943 165.171 42.0609 169.272Z" fill="#2F4A7F"/>
<path d="M134.763 96.7203C139.185 93.9423 141.434 79.3917 136.674 77.1885L136.718 79.2015C135.09 81.7373 132.355 85.7809 131.862 85.1289C131.151 84.1894 131.103 79.0362 131.103 79.0362C131.081 78.7396 130.949 78.4622 130.731 78.2596C130.513 78.057 130.227 77.9444 129.93 77.9444C129.633 77.9444 129.346 78.057 129.129 78.2596C128.911 78.4622 128.778 78.7396 128.757 79.0362C128.757 79.0362 127.478 85.5404 127.549 87.0581C127.62 88.5758 128.26 94.3573 128.26 94.3573C128.476 96.9911 129.656 99.589 134.763 96.7203Z" fill="#EFAB8B"/>
<path d="M77.364 108.872C70.07 98.3136 77.2261 84.9754 90.6313 90.1626C99.2447 94.287 116.443 122.055 118.952 128.468C123.336 135.782 116.203 146.145 106.956 139.464C103.109 137.518 77.364 108.872 77.364 108.872Z" fill="white"/>
<path d="M58.5531 80.5488C59.3068 82.5925 65.8542 82.5441 73.0712 81.8495L73.5657 84.3488C67.0478 87.7974 58.4379 86.937 57.5283 84.2659L58.5531 80.5488Z" fill="white"/>
<path d="M77.537 61.9252C77.537 61.9252 79.311 72.3742 80.4416 72.6616C81.5722 72.949 81.3869 70.5799 82.453 70.5031C82.453 70.5031 85.1208 80.7084 81.1325 81.5706C73.2337 82.9082 77.9057 73.2124 76.3762 66.5284C75.9683 62.7953 75.7624 60.9106 75.7624 60.9106L77.537 61.9252Z" fill="#162E4C"/>
<path d="M73.4228 78.3135H72.7189V81.8494H73.4228V78.3135Z" fill="#D88260"/>
<path d="M74.7419 188.631C71.1984 188.588 68.189 187.607 66.0148 185.79C61.9234 189.159 52.7626 189.082 49.3854 185.569L49.8927 185.081C53.0609 188.376 62.1166 188.366 65.779 185.064L66.0127 184.853L66.2485 185.062C68.3107 186.894 71.2499 187.884 74.7501 187.927L74.7419 188.631Z" fill="#3E7EDB"/>
<path d="M112.855 141.953C109.114 141.953 106.01 139.16 105.862 139.025L106.336 138.505C106.376 138.541 110.243 142.024 114.327 141.083C119.084 140.341 120.072 134.416 120.081 134.356L120.777 134.465C120.767 134.53 119.703 140.957 114.461 141.774C113.934 141.894 113.395 141.954 112.855 141.953Z" fill="#DAE9F7"/>
<path d="M106.283 106.697L105.696 107.085L112.241 117.001L112.828 116.613L106.283 106.697Z" fill="#DAE9F7"/>
<path d="M130.633 85.9945C130.428 85.9961 130.223 85.9763 130.022 85.9354L130.179 85.249C130.465 85.3061 130.759 85.306 131.045 85.2489C131.33 85.1917 131.602 85.0786 131.843 84.916L132.279 85.4686C131.805 85.8233 131.225 86.0084 130.633 85.9945Z" fill="#D88260"/>
<path d="M128.659 96.4001C128.264 95.7975 128.008 95.1147 127.91 94.4011L128.608 94.3135C128.693 94.9079 128.903 95.4774 129.226 95.9835L128.659 96.4001Z" fill="#D88260"/>
<path d="M399.045 80.5283C399.045 80.5283 395.89 76.1768 392.164 75.0255C391.316 74.6244 382.887 73.5147 380.117 76.9136C378.891 78.7163 379.636 81.5054 379.827 82.798C380.162 84.5939 380.882 86.6906 383.067 85.7958C383.194 87.4775 386.72 87.5235 386.618 86.1799C386.734 87.6999 390.016 87.5417 389.9 86.0229C390.393 87.6365 393.275 87.3518 393.07 85.2603L393.025 80.5319L399.045 80.5283Z" fill="#EFAB8B"/>
<path d="M382.724 85.8755C382.178 83.698 381.943 81.4542 382.026 79.2109L382.729 79.248C382.65 81.4254 382.88 83.6029 383.41 85.7161L382.724 85.8755Z" fill="#D88260"/>
<path d="M386.274 86.2564C385.69 83.8649 385.435 81.4049 385.515 78.9443L386.218 78.9835C386.142 81.3797 386.392 83.7751 386.962 86.1038L386.274 86.2564Z" fill="#D88260"/>
<path d="M389.552 86.0713C389.182 83.6265 389.052 81.1513 389.165 78.6812L389.868 78.7217C389.757 81.1459 389.885 83.5751 390.249 85.9744L389.552 86.0713Z" fill="#D88260"/>
</svg>
